SplineFontDB: 2.0
FontName: Umpush-Light
FullName: Umpush Light
FamilyName: Umpush
Weight: Light
Copyright: Copyright (c) NECTEC, 2003. All rights reserved.\nModified under GNU General Public License by TLWG.
Version: 0.9.7: 2007-04-13
ItalicAngle: 0
UnderlinePosition: -85
UnderlineWidth: 10
Ascent: 1638
Descent: 410
Order2: 1
NeedsXUIDChange: 1
FSType: 0
OS2Version: 0
OS2_WeightWidthSlopeOnly: 0
OS2_UseTypoMetrics: 0
CreationTime: 1176605901
ModificationTime: 1182163230
PfmFamily: 33
TTFWeight: 300
TTFWidth: 5
LineGap: 0
VLineGap: 0
Panose: 2 11 3 4 2 2 2 2 2 4
OS2TypoAscent: 0
OS2TypoAOffset: 1
OS2TypoDescent: 0
OS2TypoDOffset: 1
OS2TypoLinegap: 0
OS2WinAscent: 0
OS2WinAOffset: 1
OS2WinDescent: 0
OS2WinDOffset: 1
HheadAscent: 0
HheadAOffset: 1
HheadDescent: 0
HheadDOffset: 1
OS2SubXSize: -8690
OS2SubYSize: 13660
OS2SubXOff: 0
OS2SubYOff: 0
OS2SupXSize: 13582
OS2SupYSize: 15536
OS2SupXOff: -9278
OS2SupYOff: 13990
OS2StrikeYSize: 6888
OS2StrikeYPos: 45
OS2Vendor: 'PfEd'
Lookup: 6 0 0 "'ccmp' Glyph Composition/Decomposition in Thai lookup 0"  {"'ccmp' Glyph Composition/Decomposition in Thai lookup 0"  } ['ccmp' ('thai' <'KUY ' 'PAL ' 'THA ' 'dflt' > ) ]
Lookup: 6 0 0 "'ccmp' Glyph Composition/Decomposition in Thai lookup 1"  {"'ccmp' Glyph Composition/Decomposition in Thai lookup 1"  } ['ccmp' ('thai' <'KUY ' 'PAL ' 'THA ' 'dflt' > ) ]
Lookup: 5 0 0 "Required Feature in Thai lookup 2"  {"Required Feature in Thai lookup 2"  } [' RQD' ('thai' <'PAL ' > ) ]
Lookup: 1 0 0 "Single Substitution lookup 3"  {"Single Substitution lookup 3"  } []
Lookup: 1 0 0 "Single Substitution lookup 4"  {"Single Substitution lookup 4"  } []
Lookup: 2 0 0 "Multiple Substitution lookup 5"  {"Multiple Substitution lookup 5"  } []
Lookup: 2 0 0 "Multiple Substitution lookup 6"  {"Multiple Substitution lookup 6"  } []
Lookup: 1 0 0 "Single Substitution lookup 7"  {"Single Substitution lookup 7"  } []
Lookup: 1 0 0 "Single Substitution lookup 8"  {"Single Substitution lookup 8"  } []

StartChar: .notdef
Encoding: 65536 -1 0
Width: 1533
VWidth: 2045
Flags: W
HStem: 0 32<287 1247> 1248 32<287 1247>
VStem: 256 31<32 1248> 1247 31<32 1248>
Fore
256 0 m 1,0,-1
 256 1280 l 1,1,-1
 1278 1280 l 1,2,-1
 1278 0 l 1,3,-1
 256 0 l 1,0,-1
287 32 m 1,4,-1
 1247 32 l 1,5,-1
 1247 1248 l 1,6,-1
 287 1248 l 1,7,-1
 287 32 l 1,4,-1
EndSplineSet
EndChar
StartChar: uni0E4D.high
Encoding: 63262 63262 2
Width: 0
VWidth: 2558
Flags: W
TeX: 0 0 0 0
HStem: 1725 72<-306.2 -223> 1953 74<-310.1 -219.1>
VStem: -412 69<1833.7 1915.6> -183 70<1835 1919.5>
AnchorPoint: "AboveMark" -261.728 1739.3 mark 0
Fore
-262 2027 m 0,0,1
 -200 2027 -200 2027 -156 1982 c 0,2,3
 -113 1938 -113 1938 -113 1874 c 0,4,5
 -113 1814 -113 1814 -157 1770 c 0,6,7
 -201 1725 -201 1725 -262 1725 c 128,-1,8
 -323 1725 -323 1725 -367.5 1768 c 128,-1,9
 -412 1811 -412 1811 -412 1874 c 0,10,11
 -412 1936 -412 1936 -367 1982 c 0,12,13
 -323 2027 -323 2027 -262 2027 c 0,0,1
-262 1797 m 0,14,15
 -232 1797 -232 1797 -207.5 1820.5 c 128,-1,16
 -183 1844 -183 1844 -183 1874 c 0,17,18
 -183 1909 -183 1909 -206 1931 c 128,-1,19
 -229 1953 -229 1953 -262 1953 c 0,20,21
 -299 1953 -299 1953 -320 1930 c 0,22,23
 -343 1906 -343 1906 -343 1874 c 0,24,25
 -343 1843 -343 1843 -319 1820 c 0,26,27
 -296 1797 -296 1797 -262 1797 c 0,14,15
EndSplineSet
EndChar
StartChar: exclam
Encoding: 33 33 5
Width: 681
VWidth: 2045
Flags: W
HStem: 0 193<206 369> 1430 20G<213 362>
VStem: 206 163<0 193> 213 149<893.054 1450>
Fore
213 998 m 1,0,-1
 213 1450 l 1,1,-1
 362 1450 l 1,2,-1
 362 998 l 1,3,-1
 326 366 l 1,4,-1
 250 366 l 1,5,-1
 213 998 l 1,0,-1
206 193 m 1,6,-1
 369 193 l 1,7,-1
 369 0 l 1,8,-1
 206 0 l 1,9,-1
 206 193 l 1,6,-1
EndSplineSet
EndChar
StartChar: quotedbl
Encoding: 34 34 6
Width: 568
VWidth: 2045
Flags: W
HStem: 1430 20G<91 225 354 488>
VStem: 91 134<1152.96 1450> 354 134<1152.96 1450>
Fore
117 946 m 1,0,-1
 91 1217 l 1,1,-1
 91 1450 l 1,2,-1
 225 1450 l 1,3,-1
 225 1217 l 1,4,-1
 203 946 l 1,5,-1
 117 946 l 1,0,-1
380 946 m 1,6,-1
 354 1217 l 1,7,-1
 354 1450 l 1,8,-1
 488 1450 l 1,9,-1
 488 1217 l 1,10,-1
 465 946 l 1,11,-1
 380 946 l 1,6,-1
EndSplineSet
EndChar
StartChar: numbersign
Encoding: 35 35 7
Width: 1137
VWidth: 2045
Flags: W
HStem: -9 21G<87 213 599 724> 385 127<21 166 323 677 826 1113> 949 127<21 285 442 797 945 1113> 1450 20G<395 521 906 1034>
Fore
87 -9 m 1,0,-1
 166 385 l 1,1,-1
 21 385 l 1,2,-1
 21 512 l 1,3,-1
 195 512 l 1,4,-1
 285 949 l 1,5,-1
 21 949 l 1,6,-1
 21 1076 l 1,7,-1
 316 1076 l 1,8,-1
 395 1470 l 1,9,-1
 521 1470 l 1,10,-1
 442 1076 l 1,11,-1
 826 1076 l 1,12,-1
 906 1470 l 1,13,-1
 1034 1470 l 1,14,-1
 945 1076 l 1,15,-1
 1113 1076 l 1,16,-1
 1113 949 l 1,17,-1
 916 949 l 1,18,-1
 826 512 l 1,19,-1
 1113 512 l 1,20,-1
 1113 385 l 1,21,-1
 803 385 l 1,22,-1
 724 -9 l 1,23,-1
 599 -9 l 1,24,-1
 677 385 l 1,25,-1
 293 385 l 1,26,-1
 213 -9 l 1,27,-1
 87 -9 l 1,0,-1
323 512 m 1,28,-1
 707 512 l 1,29,-1
 797 949 l 1,30,-1
 412 949 l 1,31,-1
 323 512 l 1,28,-1
EndSplineSet
EndChar
StartChar: dollar
Encoding: 36 36 8
Width: 1137
VWidth: 2045
Flags: W
VStem: 76 125<255.8 417> 107 125<882.8 1172.7> 512 90<-118 -18 85 659 787 1307 1408 1488> 886 120<1050 1169.6> 910 130<260.9 500.1>
Fore
602 85 m 0,0,1
 787 112 787 112 848 201 c 128,-1,2
 909 290 909 290 910 387 c 0,3,4
 912 474 912 474 846.5 546.5 c 128,-1,5
 781 619 781 619 602 659 c 0,6,-1
 602 85 l 0,0,1
76 417 m 1,7,-1
 201 417 l 0,8,9
 201 293 201 293 294 189.5 c 128,-1,10
 387 86 387 86 512 85 c 1,11,-1
 512 681 l 17,12,13
 316 713 316 713 210 803.5 c 128,-1,14
 104 894 104 894 107 1030 c 0,15,16
 107 1181 107 1181 219.5 1295 c 128,-1,17
 332 1409 332 1409 512 1408 c 1,18,-1
 512 1488 l 1,19,-1
 602 1488 l 1,20,-1
 602 1408 l 0,21,22
 793 1405 793 1405 899.5 1293 c 128,-1,23
 1006 1181 1006 1181 1006 1050 c 0,24,-1
 886 1050 l 0,25,26
 881 1142 881 1142 797 1230.5 c 152,-1,27
 713 1319 713 1319 602 1307 c 0,28,-1
 602 767 l 0,29,30
 746 752 746 752 892 661.5 c 128,-1,31
 1038 571 1038 571 1040 406 c 0,32,33
 1042 227 1042 227 921 106 c 0,34,35
 802 -14 802 -14 602 -15 c 0,36,-1
 602 -118 l 1,37,-1
 512 -118 l 1,38,-1
 512 -18 l 1,39,40
 311 0 311 0 193.5 112 c 136,-1,41
 76 224 76 224 76 417 c 1,7,-1
512 787 m 0,42,-1
 512 1308 l 0,43,44
 393 1299 393 1299 311 1221 c 128,-1,45
 229 1143 229 1143 232 1044 c 0,46,47
 238 920 238 920 320 866.5 c 128,-1,48
 402 813 402 813 512 787 c 0,42,-1
EndSplineSet
EndChar
StartChar: percent
Encoding: 37 37 9
Width: 1818
VWidth: 2045
Flags: W
HStem: -48 85<1267.5 1489.8> 640 82<1267.5 1489.8> 719 85<320.5 542.8> 1408 82<320.5 542.8>
VStem: 119 101<968.2 1238.6> 640 104<968.2 1238.6> 1064 102<201.8 472.2> 1587 105<201.8 472.2>
Fore
1064 337 m 256,0,1
 1064 441 1064 441 1107 530 c 128,-1,2
 1150 619 1150 619 1221.5 670.5 c 128,-1,3
 1293 722 1293 722 1378 722 c 256,4,5
 1464 722 1464 722 1535.5 670.5 c 128,-1,6
 1607 619 1607 619 1649.5 530 c 128,-1,7
 1692 441 1692 441 1692 337 c 256,8,9
 1692 233 1692 233 1649.5 143.5 c 128,-1,10
 1607 54 1607 54 1535.5 3 c 128,-1,11
 1464 -48 1464 -48 1378 -48 c 256,12,13
 1293 -48 1293 -48 1221.5 3 c 128,-1,14
 1150 54 1150 54 1107 143.5 c 128,-1,15
 1064 233 1064 233 1064 337 c 256,0,1
1166 338 m 256,16,17
 1166 213 1166 213 1228 124.5 c 128,-1,18
 1290 36 1290 36 1377 37 c 256,19,20
 1464 37 1464 37 1525.5 125 c 128,-1,21
 1587 213 1587 213 1587 338 c 256,22,23
 1587 464 1587 464 1525.5 552 c 128,-1,24
 1464 640 1464 640 1377 640 c 256,25,26
 1290 640 1290 640 1228 552 c 128,-1,27
 1166 464 1166 464 1166 338 c 256,16,17
119 1106 m 256,28,29
 119 1208 119 1208 160 1297.5 c 128,-1,30
 201 1387 201 1387 273.5 1438 c 128,-1,31
 346 1489 346 1489 431 1490 c 256,32,33
 517 1490 517 1490 589.5 1438.5 c 128,-1,34
 662 1387 662 1387 703 1297.5 c 128,-1,35
 744 1208 744 1208 744 1106 c 256,36,37
 744 1000 744 1000 703 911.5 c 128,-1,38
 662 823 662 823 589.5 771 c 128,-1,39
 517 719 517 719 431 719 c 256,40,41
 346 719 346 719 273.5 771 c 128,-1,42
 201 823 201 823 160 911.5 c 128,-1,43
 119 1000 119 1000 119 1106 c 256,28,29
220 1106 m 256,44,45
 220 982 220 982 281.5 893 c 128,-1,46
 343 804 343 804 430 804 c 256,47,48
 517 804 517 804 578.5 893 c 128,-1,49
 640 982 640 982 640 1106 c 256,50,51
 640 1232 640 1232 578.5 1320 c 128,-1,52
 517 1408 517 1408 430 1408 c 256,53,54
 343 1408 343 1408 281.5 1320 c 128,-1,55
 220 1232 220 1232 220 1106 c 256,44,45
1069 347 m 0,56,-1
1247 1490 m 1,57,-1
 1372 1490 l 1,58,-1
 614 -9 l 1,59,-1
 488 -9 l 1,60,-1
 1247 1490 l 1,57,-1
EndSplineSet
EndChar
StartChar: ampersand
Encoding: 38 38 10
Width: 1364
VWidth: 2045
Flags: W
HStem: -24 119<352.2 677.2> 1381 110<473.6 751.8>
VStem: 271 131<1071.8 1261.6>
Fore
436 841 m 1,0,1
 392 891 392 891 331.5 978 c 128,-1,2
 271 1065 271 1065 271 1163 c 0,3,4
 271 1296 271 1296 375 1393 c 0,5,6
 479 1491 479 1491 637 1491 c 0,7,8
 781 1491 781 1491 878.5 1399.5 c 128,-1,9
 976 1308 976 1308 976 1178 c 0,10,11
 976 977 976 977 640 798 c 1,12,-1
 977 373 l 1,13,14
 1060 520 1060 520 1084 689 c 1,15,-1
 1220 649 l 1,16,17
 1183 456 1183 456 1067 269 c 1,18,19
 1157 159 1157 159 1317 56 c 1,20,-1
 1212 -27 l 1,21,22
 1070 51 1070 51 979 165 c 1,23,24
 817 -24 817 -24 552 -24 c 0,25,26
 326 -24 326 -24 201 119.5 c 128,-1,27
 76 263 76 263 88 402 c 0,28,29
 110 716 110 716 436 841 c 1,0,1
567 897 m 1,30,31
 622 920 622 920 730.5 997 c 128,-1,32
 839 1074 839 1074 845 1174 c 0,33,34
 851 1257 851 1257 787 1319 c 128,-1,35
 723 1381 723 1381 627 1381 c 0,36,37
 509 1381 509 1381 455.5 1312 c 128,-1,38
 402 1243 402 1243 402 1181 c 0,39,40
 402 1097 402 1097 467 1020 c 2,41,-1
 567 897 l 1,30,31
889 266 m 1,42,-1
 526 739 l 1,43,44
 358 681 358 681 293.5 583.5 c 128,-1,45
 229 486 229 486 229 417 c 0,46,47
 229 299 229 299 314 197 c 128,-1,48
 399 95 399 95 555 95 c 0,49,50
 649 95 649 95 745.5 145.5 c 128,-1,51
 842 196 842 196 889 266 c 1,42,-1
EndSplineSet
EndChar
StartChar: quotesingle
Encoding: 39 39 11
Width: 454
VWidth: 2045
Flags: W
HStem: 1445 20G<136 296>
VStem: 136 160<1170.49 1465>
Fore
166 946 m 1,0,-1
 136 1220 l 1,1,-1
 136 1465 l 1,2,-1
 296 1465 l 1,3,-1
 296 1220 l 1,4,-1
 262 946 l 1,5,-1
 166 946 l 1,0,-1
EndSplineSet
EndChar
StartChar: parenleft
Encoding: 40 40 12
Width: 681
VWidth: 2045
Flags: W
VStem: 125 131<268.1 905.4>
Fore
479 -430 m 1,0,1
 276 -175 276 -175 200.5 77 c 128,-1,2
 125 329 125 329 125 532 c 0,3,4
 122 846 122 846 237 1093.5 c 128,-1,5
 352 1341 352 1341 479 1489 c 1,6,-1
 555 1489 l 1,7,8
 430 1320 430 1320 341.5 1071 c 128,-1,9
 253 822 253 822 256 544 c 0,10,11
 259 214 259 214 350.5 -20 c 128,-1,12
 442 -254 442 -254 555 -430 c 1,13,-1
 479 -430 l 1,0,1
EndSplineSet
EndChar
StartChar: parenright
Encoding: 41 41 13
Width: 681
VWidth: 2045
Flags: W
VStem: 450 132<268.1 905.4>
Fore
227 -430 m 1,0,1
 430 -175 430 -175 504.5 77 c 128,-1,2
 579 329 579 329 582 532 c 0,3,4
 584 846 584 846 469 1093.5 c 128,-1,5
 354 1341 354 1341 227 1489 c 1,6,-1
 152 1489 l 1,7,8
 274 1320 274 1320 363.5 1071 c 128,-1,9
 453 822 453 822 450 544 c 0,10,11
 445 214 445 214 355 -20 c 128,-1,12
 265 -254 265 -254 152 -430 c 1,13,-1
 227 -430 l 1,0,1
EndSplineSet
EndChar
StartChar: asterisk
Encoding: 42 42 14
Width: 795
VWidth: 2045
Flags: W
HStem: 873 616<335 538>
VStem: 335 116<1352.94 1489>
Fore
70 1208 m 1,0,-1
 105 1325 l 1,1,2
 236 1273 236 1273 351 1223 c 1,3,4
 340 1390 340 1390 335 1489 c 1,5,-1
 451 1489 l 1,6,7
 447 1394 447 1394 433 1228 c 1,8,9
 543 1281 543 1281 683 1326 c 1,10,-1
 720 1210 l 1,11,12
 575 1166 575 1166 457 1143 c 1,13,14
 521 1092 521 1092 636 942 c 1,15,-1
 538 873 l 1,16,17
 444 998 444 998 389 1097 c 1,18,19
 328 989 328 989 245 878 c 1,20,-1
 156 941 l 1,21,22
 256 1078 256 1078 326 1142 c 1,23,24
 209 1171 209 1171 70 1208 c 1,0,-1
EndSplineSet
EndChar
StartChar: plus
Encoding: 43 43 15
Width: 1350
VWidth: 2045
Flags: W
HStem: 662 122<189 611 735 1157>
VStem: 611 124<237 662 784 1205>
Fore
611 237 m 5,0,-1
 611 662 l 5,1,-1
 189 662 l 5,2,-1
 189 784 l 5,3,-1
 611 784 l 5,4,-1
 611 1205 l 5,5,-1
 735 1205 l 5,6,-1
 735 784 l 5,7,-1
 1157 784 l 5,8,-1
 1157 662 l 5,9,-1
 735 662 l 5,10,-1
 735 237 l 5,11,-1
 611 237 l 5,0,-1
EndSplineSet
EndChar
StartChar: comma
Encoding: 44 44 16
Width: 568
VWidth: 2045
Flags: W
HStem: -20 20G<204 299>
VStem: 204 183<0 205> 299 88<-118.3 0>
Fore
204 0 m 1,0,-1
 204 205 l 1,1,-1
 387 205 l 1,2,-1
 387 0 l 2,3,4
 387 -113 387 -113 348 -181 c 0,5,6
 305 -254 305 -254 220 -290 c 1,7,-1
 186 -213 l 1,8,9
 244 -186 244 -186 268 -139 c 0,10,11
 296 -91 296 -91 299 0 c 1,12,-1
 204 0 l 1,0,-1
EndSplineSet
EndChar
StartChar: hyphen
Encoding: 45 45 17
Width: 681
VWidth: 2045
Flags: W
HStem: 462 136<64 617>
Fore
64 462 m 1,0,-1
 64 598 l 1,1,-1
 617 598 l 1,2,-1
 617 462 l 1,3,-1
 64 462 l 1,0,-1
EndSplineSet
EndChar
StartChar: period
Encoding: 46 46 18
Width: 568
VWidth: 2045
Flags: W
HStem: 0 196<186 369>
VStem: 186 183<0 196>
Fore
186 0 m 1,0,-1
 186 196 l 1,1,-1
 369 196 l 1,2,-1
 369 0 l 1,3,-1
 186 0 l 1,0,-1
EndSplineSet
EndChar
StartChar: slash
Encoding: 47 47 19
Width: 568
VWidth: 2045
Flags: W
HStem: -9 21G<-81 49> 1448 20G<506 634>
VStem: -81 715<-9 1468>
Fore
-81 -9 m 5,0,-1
 506 1468 l 5,1,-1
 634 1468 l 5,2,-1
 49 -9 l 5,3,-1
 -81 -9 l 5,0,-1
EndSplineSet
EndChar
StartChar: zero
Encoding: 48 48 20
Width: 1137
VWidth: 2045
Flags: W
HStem: -15 112<112.5 1005.6> 1347 112<112.5 1009.5>
VStem: 85 131<-90.5 1534.5> 904 130<-90.5 1534.5>
Fore
904 722 m 24,0,1
 906 1347 906 1347 561 1347 c 152,-1,2
 216 1347 216 1347 216 722 c 152,-1,3
 216 97 216 97 561 97 c 24,4,5
 903 97 903 97 904 722 c 24,0,1
1034 722 m 24,6,7
 1034 -15 1034 -15 558 -15 c 16,8,9
 88 -15 88 -15 85 722 c 0,10,11
 84 1459 84 1459 559.5 1459 c 152,-1,12
 1035 1459 1035 1459 1034 722 c 24,6,7
EndSplineSet
EndChar
StartChar: one
Encoding: 49 49 21
Width: 1137
VWidth: 2045
Flags: W
HStem: 0 21G<636 763> 1451 20G<582 763>
VStem: 636 127<0 1300>
Fore
763 0 m 1,0,-1
 636 0 l 1,1,-1
 636 1300 l 1,2,3
 527 1148 527 1148 439 1091.5 c 128,-1,4
 351 1035 351 1035 223 997 c 1,5,-1
 223 1103 l 1,6,7
 378 1175 378 1175 469.5 1282.5 c 128,-1,8
 561 1390 561 1390 582 1471 c 1,9,-1
 763 1471 l 1,10,-1
 763 0 l 1,0,-1
EndSplineSet
EndChar
StartChar: two
Encoding: 50 50 22
Width: 1137
VWidth: 2045
Flags: W
HStem: 0 136<259 1031> 1370 110<316.1 725.6>
VStem: 61 198<0 221.8> 96 131<1039 1188.5> 896 131<873.9 1262.6>
Fore
367.5 297.5 m 144,-1,1
 256 202 256 202 259 136 c 1,2,-1
 1031 136 l 1,3,-1
 1031 0 l 1,4,-1
 61 0 l 1,5,6
 61 196 61 196 202 321 c 128,-1,7
 343 446 343 446 534 598 c 0,8,9
 643 686 643 686 769.5 803.5 c 128,-1,10
 896 921 896 921 896 1078 c 0,11,12
 896 1220 896 1220 792.5 1295 c 128,-1,13
 689 1370 689 1370 567 1370 c 0,14,15
 374 1370 374 1370 301.5 1262 c 128,-1,16
 229 1154 229 1154 227 1039 c 1,17,-1
 96 1039 l 1,18,19
 96 1232 96 1232 226.5 1357 c 128,-1,20
 357 1482 357 1482 572 1480 c 0,21,22
 784 1480 784 1480 906 1365.5 c 128,-1,23
 1028 1251 1028 1251 1027 1075 c 0,24,25
 1027 885 1027 885 916 772 c 128,-1,26
 805 659 805 659 649 532 c 8,27,0
 479 393 479 393 367.5 297.5 c 144,-1,1
EndSplineSet
EndChar
StartChar: three
Encoding: 51 51 23
Width: 1137
VWidth: 2045
Flags: W
HStem: -9 127<353.1 726.2> 713 131<441 763.4> 1069 21G<104 231> 1353 127<350.1 720.6>
VStem: 85 128<294.7 426> 104 127<1069 1213.3> 842 131<999.4 1262> 892 152<247.7 606.5>
Fore
85 426 m 1,0,-1
 213 426 l 1,1,2
 213 325 213 325 306 221.5 c 128,-1,3
 399 118 399 118 552 118 c 0,4,5
 686 118 686 118 789.5 205.5 c 128,-1,6
 893 293 893 293 892 444 c 0,7,8
 890 569 890 569 807 639.5 c 128,-1,9
 724 710 724 710 570 713 c 0,10,11
 503 714 503 714 441 693 c 1,12,-1
 441 844 l 1,13,14
 689 842 689 842 765.5 933 c 128,-1,15
 842 1024 842 1024 842 1106 c 0,16,17
 842 1226 842 1226 761.5 1289.5 c 128,-1,18
 681 1353 681 1353 549 1353 c 0,19,20
 396 1355 396 1355 314 1267.5 c 128,-1,21
 232 1180 232 1180 231 1069 c 9,22,-1
 104 1069 l 1,23,24
 102 1231 102 1231 230.5 1355.5 c 128,-1,25
 359 1480 359 1480 544 1480 c 24,26,27
 738 1482 738 1482 854.5 1366.5 c 128,-1,28
 971 1251 971 1251 973 1100 c 0,29,30
 975 970 975 970 897.5 890 c 128,-1,31
 820 810 820 810 771 794 c 1,32,33
 893 769 893 769 968.5 680 c 128,-1,34
 1044 591 1044 591 1044 449 c 0,35,36
 1044 245 1044 245 900 118 c 144,-1,37
 756 -9 756 -9 552 -9 c 128,-1,38
 348 -9 348 -9 218 122.5 c 136,-1,39
 88 254 88 254 85 426 c 1,0,-1
EndSplineSet
EndChar
StartChar: four
Encoding: 52 52 24
Width: 1137
VWidth: 2045
Flags: W
HStem: 0 21G<715 842> 347 121<159 715 842 1040> 1451 20G<692 842>
VStem: 715 127<0 347 468 1282>
Fore
715 0 m 1,0,-1
 715 347 l 1,1,-1
 26 347 l 1,2,-1
 26 477 l 1,3,-1
 692 1471 l 1,4,-1
 842 1471 l 1,5,-1
 842 468 l 1,6,-1
 1040 468 l 1,7,-1
 1040 347 l 1,8,-1
 842 347 l 1,9,-1
 842 0 l 1,10,-1
 715 0 l 1,0,-1
715 468 m 1,11,-1
 715 1282 l 1,12,-1
 159 468 l 1,13,-1
 715 468 l 1,11,-1
EndSplineSet
EndChar
StartChar: five
Encoding: 53 53 25
Width: 1137
VWidth: 2045
Flags: W
HStem: -9 124<348.3 769.5> 855 131<298.5 793.8> 1344 127<369 988>
VStem: 85 135<322.147 414> 916 139<290 703.4>
Fore
555 -9 m 0,0,1
 334 -12 334 -12 212.5 116 c 128,-1,2
 91 244 91 244 85 414 c 1,3,-1
 220 414 l 1,4,5
 232 276 232 276 314 195.5 c 128,-1,6
 396 115 396 115 555 115 c 0,7,8
 720 118 720 118 817.5 229.5 c 128,-1,9
 915 341 915 341 916 511 c 256,10,11
 918 659 918 659 828 757 c 128,-1,12
 738 855 738 855 552 855 c 0,13,14
 357 853 357 853 259 686 c 1,15,-1
 116 707 l 1,16,-1
 259 1471 l 1,17,-1
 988 1471 l 1,18,-1
 988 1344 l 1,19,-1
 369 1344 l 1,20,-1
 268 852 l 1,21,22
 363 985 363 985 601 986 c 0,23,24
 788 988 788 988 921.5 858 c 128,-1,25
 1055 728 1055 728 1055 512 c 152,-1,26
 1055 296 1055 296 921.5 144 c 128,-1,27
 788 -8 788 -8 555 -9 c 0,0,1
EndSplineSet
EndChar
StartChar: six
Encoding: 54 54 26
Width: 1137
VWidth: 2045
Flags: W
HStem: -9 127<392.2 800.4> 844 132<386.2 782.7> 1341 139<367.1 777.9>
VStem: 76 140<701 997.979> 893 125<1103 1170.09> 913 130<291.5 680.2>
Fore
585 -9 m 0,0,1
 332 -12 332 -12 201 184.5 c 128,-1,2
 70 381 70 381 76 701 c 0,3,4
 87 1110 87 1110 216 1295 c 128,-1,5
 345 1480 345 1480 602 1480 c 0,6,7
 771 1480 771 1480 893 1376 c 128,-1,8
 1015 1272 1015 1272 1018 1103 c 1,9,-1
 893 1103 l 1,10,11
 883 1187 883 1187 809 1264 c 128,-1,12
 735 1341 735 1341 592 1341 c 0,13,14
 419 1341 419 1341 321 1206 c 128,-1,15
 223 1071 223 1071 216 766 c 1,16,17
 237 828 237 828 332.5 900.5 c 128,-1,18
 428 973 428 973 593 976 c 0,19,20
 765 982 765 982 904 846 c 128,-1,21
 1043 710 1043 710 1043 491 c 24,22,23
 1043 290 1043 290 922.5 141 c 128,-1,24
 802 -8 802 -8 585 -9 c 0,0,1
253 489 m 0,25,26
 253 329 253 329 344.5 223.5 c 128,-1,27
 436 118 436 118 582 118 c 0,28,29
 750 118 750 118 831.5 226.5 c 128,-1,30
 913 335 913 335 913 480 c 0,31,32
 913 634 913 634 824 739 c 128,-1,33
 735 844 735 844 576 844 c 0,34,35
 430 844 430 844 341.5 745 c 128,-1,36
 253 646 253 646 253 489 c 0,25,26
EndSplineSet
EndChar
StartChar: seven
Encoding: 55 55 27
Width: 1137
VWidth: 2045
Flags: W
HStem: 0 21G<361 510> 1329 142<98 886>
VStem: 361 149<0 419.9>
Fore
98 1329 m 1,0,-1
 98 1471 l 1,1,-1
 1046 1471 l 1,2,-1
 1046 1329 l 1,3,4
 782 1015 782 1015 646.5 669 c 128,-1,5
 511 323 511 323 510 0 c 1,6,-1
 361 0 l 1,7,8
 363 335 363 335 498 670.5 c 128,-1,9
 633 1006 633 1006 886 1329 c 1,10,-1
 98 1329 l 1,0,-1
EndSplineSet
EndChar
StartChar: eight
Encoding: 56 56 28
Width: 1137
VWidth: 2045
Flags: W
HStem: -9 119<377.5 753.2> 727 131<408.7 722> 1365 115<408.7 722>
VStem: 82 134<272.044 581.155> 142 131<974.2 1247.2> 858 130<974.2 1247.2> 915 134<343.571 521.983>
Fore
273 1112 m 256,0,1
 273 1216 273 1216 359 1290.5 c 128,-1,2
 445 1365 445 1365 566 1365 c 256,3,4
 686 1365 686 1365 772 1290.5 c 128,-1,5
 858 1216 858 1216 858 1112 c 256,6,7
 858 1006 858 1006 772 932 c 128,-1,8
 686 858 686 858 566 858 c 256,9,10
 445 858 445 858 359 932 c 128,-1,11
 273 1006 273 1006 273 1112 c 256,0,1
216 418 m 256,12,13
 216 547 216 547 318.5 637 c 128,-1,14
 421 727 421 727 566 727 c 256,15,16
 710 727 710 727 812.5 637 c 128,-1,17
 915 547 915 547 915 418 c 256,18,19
 915 290 915 290 812.5 200 c 128,-1,20
 710 110 710 110 566 110 c 256,21,22
 421 110 421 110 318.5 200 c 128,-1,23
 216 290 216 290 216 418 c 256,12,13
220 113 m 16,24,25
 352 -9 352 -9 566 -9 c 0,26,27
 738 -9 738 -9 858 65 c 0,28,29
 1031 171 1031 171 1043 369 c 2,30,-1
 1049 433 l 2,31,32
 1052 485 1052 485 1031 556 c 0,33,34
 976 737 976 737 771 804 c 1,35,-1
 799 816 l 2,36,37
 988 899 988 899 988 1100 c 0,38,39
 988 1266 988 1266 872 1371 c 0,40,41
 750 1480 750 1480 563 1480 c 0,42,43
 381 1482 381 1482 264 1381 c 0,44,45
 142 1275 142 1275 142 1103 c 0,46,47
 142 885 142 885 361 804 c 1,48,49
 300 788 300 788 255 761 c 0,50,51
 95 671 95 671 82 438 c 0,52,53
 73 251 73 251 220 113 c 16,24,25
EndSplineSet
EndChar
StartChar: nine
Encoding: 57 57 29
Width: 1137
VWidth: 2045
Flags: W
HStem: -9 139<419.1 729.8> 495 133<458.6 692.6> 1347 133<458.6 692.6>
VStem: 113 128<861.9 1112.8> 939 140<277.3 770>
Fore
241 988 m 256,0,1
 241 891 241 891 286 808 c 128,-1,2
 331 725 331 725 408 676.5 c 128,-1,3
 485 628 485 628 573 628 c 256,4,5
 665 628 665 628 741 676.5 c 128,-1,6
 817 725 817 725 861.5 808 c 128,-1,7
 906 891 906 891 906 988 c 256,8,9
 906 1084 906 1084 861.5 1167.5 c 128,-1,10
 817 1251 817 1251 741 1299 c 128,-1,11
 665 1347 665 1347 573 1347 c 256,12,13
 485 1347 485 1347 408 1299 c 128,-1,14
 331 1251 331 1251 286 1167.5 c 128,-1,15
 241 1084 241 1084 241 988 c 256,0,1
139 369 m 9,16,-1
 271 369 l 1,17,18
 287 266 287 266 370 197 c 128,-1,19
 453 128 453 128 566 130 c 0,20,21
 692 130 692 130 812.5 222 c 128,-1,22
 933 314 933 314 939 713 c 1,23,24
 893 616 893 616 806.5 555.5 c 128,-1,25
 720 495 720 495 564 495 c 0,26,27
 387 494 387 494 250 627.5 c 128,-1,28
 113 761 113 761 113 980 c 0,29,30
 113 1180 113 1180 233.5 1331 c 128,-1,31
 354 1482 354 1482 572 1480 c 0,32,33
 835 1480 835 1480 956 1293 c 0,34,35
 1075 1109 1075 1109 1079 770 c 0,36,37
 1084 391 1084 391 955 195.5 c 128,-1,38
 826 0 826 0 555 -9 c 0,39,40
 389 -15 389 -15 270.5 95 c 128,-1,41
 152 205 152 205 139 369 c 9,16,-1
EndSplineSet
EndChar
StartChar: colon
Encoding: 58 58 30
Width: 568
VWidth: 2045
Flags: W
HStem: 0 205<238 390> 856 204<238 390>
VStem: 238 152<0 205 856 1060>
Fore
238 856 m 1,0,-1
 238 1060 l 1,1,-1
 390 1060 l 1,2,-1
 390 856 l 1,3,-1
 238 856 l 1,0,-1
238 0 m 1,4,-1
 238 205 l 1,5,-1
 390 205 l 1,6,-1
 390 0 l 1,7,-1
 238 0 l 1,4,-1
EndSplineSet
EndChar
StartChar: semicolon
Encoding: 59 59 31
Width: 568
VWidth: 2045
Flags: W
HStem: -20 20G<220 291> 856 204<220 388>
VStem: 220 168<0 205 856 1060> 291 97<-90.708 0>
Fore
220 856 m 1,0,-1
 220 1060 l 1,1,-1
 388 1060 l 1,2,-1
 388 856 l 1,3,-1
 220 856 l 1,0,-1
220 0 m 1,4,-1
 220 205 l 1,5,-1
 388 205 l 1,6,-1
 388 0 l 2,7,8
 388 -180 388 -180 277 -257 c 0,9,10
 245 -279 245 -279 220 -290 c 1,11,-1
 177 -221 l 1,12,13
 255 -186 255 -186 281 -88 c 0,14,15
 291 -47 291 -47 291 0 c 1,16,-1
 220 0 l 1,4,-1
EndSplineSet
EndChar
StartChar: less
Encoding: 60 60 32
Width: 1350
VWidth: 2045
Flags: W
HStem: 227 990<1144 1144>
VStem: 174 970<663 1217>
Fore
174 663 m 5,0,-1
 174 785 l 5,1,-1
 1144 1217 l 5,2,-1
 1144 1081 l 5,3,-1
 320 723 l 5,4,-1
 1144 356 l 5,5,-1
 1144 227 l 5,6,-1
 174 663 l 5,0,-1
EndSplineSet
EndChar
StartChar: equal
Encoding: 61 61 33
Width: 1350
VWidth: 2045
Flags: W
HStem: 440 130<189 1157> 885 121<189 1157>
Fore
1157 885 m 5,0,-1
 189 885 l 5,1,-1
 189 1006 l 5,2,-1
 1157 1006 l 5,3,-1
 1157 885 l 5,0,-1
1157 440 m 5,4,-1
 189 440 l 5,5,-1
 189 570 l 5,6,-1
 1157 570 l 5,7,-1
 1157 440 l 5,4,-1
EndSplineSet
EndChar
StartChar: greater
Encoding: 62 62 34
Width: 1350
VWidth: 2045
Flags: W
HStem: 227 990<189 189>
VStem: 188 971<663 1081>
Fore
1159 663 m 1,0,-1
 1159 785 l 1,1,-1
 189 1217 l 1,2,-1
 188 1081 l 1,3,-1
 1011 723 l 1,4,-1
 188 356 l 1,5,-1
 189 227 l 1,6,-1
 1159 663 l 1,0,-1
EndSplineSet
EndChar
StartChar: question
Encoding: 63 63 35
Width: 1022
VWidth: 2045
Flags: W
HStem: 0 205<430 589> 1378 126<299.5 698.6>
VStem: 37 131<1045 1215.39> 430 159<0 205> 442 125<361 432.825> 852 130<989.2 1231>
Fore
982 1084 m 4,0,1
 982 959 982 959 915 873.5 c 132,-1,2
 848 788 848 788 720 693 c 4,3,4
 614 613 614 613 590.5 506 c 132,-1,5
 567 399 567 399 567 361 c 13,6,-1
 442 361 l 21,7,8
 441 414 441 414 472 544.5 c 132,-1,9
 503 675 503 675 634 776 c 4,10,11
 755 867 755 867 803.5 939.5 c 132,-1,12
 852 1012 852 1012 852 1088 c 4,13,14
 851 1198 851 1198 753.5 1289.5 c 132,-1,15
 656 1381 656 1381 514 1378 c 28,16,17
 349 1378 349 1378 259 1282.5 c 132,-1,18
 169 1187 169 1187 168 1045 c 5,19,-1
 37 1045 l 5,20,21
 46 1237 46 1237 174 1370.5 c 132,-1,22
 302 1504 302 1504 511 1504 c 4,23,24
 712 1504 712 1504 847 1386.5 c 132,-1,25
 982 1269 982 1269 982 1084 c 4,0,1
430 0 m 5,26,-1
 430 205 l 5,27,-1
 589 205 l 5,28,-1
 589 0 l 5,29,-1
 430 0 l 5,26,-1
EndSplineSet
EndChar
StartChar: at
Encoding: 64 64 36
Width: 1635
VWidth: 2045
Flags: W
HStem: -430 112<432.6 1292.8> -33 145<1154 1302.2> -3 115<546.9 884.8> 967 116<668 962.1> 1384 109<563.7 1080.2>
VStem: -88 113<206.7 852.8> 303 123<244.9 670.3> 1645 111.074<627.429 862.5>
Fore
1146 172 m 0,0,1
 1146 151 1146 151 1169 131.5 c 128,-1,2
 1192 112 1192 112 1223 112 c 0,3,4
 1371 118 1371 118 1473.5 260 c 128,-1,5
 1576 402 1576 402 1611.5 529 c 128,-1,6
 1647 656 1647 656 1645 716 c 0,7,8
 1640 947 1640 947 1510 1101 c 128,-1,9
 1380 1255 1380 1255 1208.5 1320 c 128,-1,10
 1037 1385 1037 1385 893 1384 c 0,11,12
 521 1378 521 1378 273.5 1127 c 128,-1,13
 26 876 26 876 25 485 c 24,14,15
 23 79 23 79 277 -119 c 128,-1,16
 531 -317 531 -317 921 -318 c 0,17,18
 1207 -320 1207 -320 1402.5 -229.5 c 128,-1,19
 1598 -139 1598 -139 1669 18 c 1,20,-1
 1805 18 l 1,21,22
 1709 -178 1709 -178 1475 -305 c 128,-1,23
 1241 -432 1241 -432 924 -430 c 0,24,25
 546 -429 546 -429 318.5 -293 c 128,-1,26
 91 -157 91 -157 1.5 55 c 128,-1,27
 -88 267 -88 267 -88 468 c 0,28,29
 -87 764 -87 764 42 1007.5 c 128,-1,30
 171 1251 171 1251 406.5 1370 c 128,-1,31
 642 1489 642 1489 903 1493 c 0,32,33
 1243 1496 1243 1496 1448.5 1330.5 c 128,-1,34
 1654 1165 1654 1165 1706 996.5 c 128,-1,35
 1758 828 1758 828 1756 713 c 0,36,37
 1753 504 1753 504 1645 311 c 128,-1,38
 1537 118 1537 118 1402.5 42.5 c 128,-1,39
 1268 -33 1268 -33 1154 -33 c 0,40,41
 1122 -33 1122 -33 1078 -16.5 c 128,-1,42
 1034 0 1034 0 1008 44 c 128,-1,43
 982 88 982 88 982 145 c 1,44,45
 832 -3 832 -3 656 -3 c 0,46,47
 497 -3 497 -3 400 133 c 128,-1,48
 303 269 303 269 303 461 c 0,49,50
 303 622 303 622 380 773 c 128,-1,51
 457 924 457 924 579 1004 c 128,-1,52
 701 1084 701 1084 811 1083 c 0,53,54
 1046 1078 1046 1078 1153 938 c 1,55,-1
 1186 1078 l 1,56,-1
 1326 1078 l 1,57,-1
 1159 257 l 10,58,59
 1145 193 1145 193 1146 172 c 0,0,1
426 462 m 0,60,61
 426 295 426 295 502.5 203.5 c 128,-1,62
 579 112 579 112 686 112 c 0,63,64
 861 112 861 112 977 290 c 128,-1,65
 1093 468 1093 468 1101 646 c 0,66,67
 1104 725 1104 725 1085.5 802 c 128,-1,68
 1067 879 1067 879 998.5 923 c 128,-1,69
 930 967 930 967 823 967 c 0,70,71
 659 965 659 965 542.5 800.5 c 128,-1,72
 426 636 426 636 426 462 c 0,60,61
EndSplineSet
EndChar
StartChar: A
Encoding: 65 65 37
Width: 1364
VWidth: 2045
Flags: W
HStem: 0 21G<-3 149 1201 1366> 471 129<381 954> 1430 20G<582 744>
Fore
582 1450 m 1,0,-1
 744 1450 l 1,1,-1
 1366 0 l 1,2,-1
 1201 0 l 1,3,-1
 1000 471 l 1,4,-1
 338 471 l 1,5,-1
 149 0 l 1,6,-1
 -3 0 l 1,7,-1
 582 1450 l 1,0,-1
954 600 m 1,8,-1
 659 1290 l 1,9,-1
 381 600 l 1,10,-1
 954 600 l 1,8,-1
EndSplineSet
EndChar
StartChar: B
Encoding: 66 66 38
Width: 1364
VWidth: 2045
Flags: W
HStem: 0 136<290 904.1> 692 127<290 851> 1314 136<290 827.5>
VStem: 165 125<136 692 819 1314> 1047 137.5<960.85 1196.15> 1108 148<343.98 534.4>
Fore
165 0 m 5,0,-1
 165 1450 l 5,1,-1
 698 1450 l 6,2,3
 867 1450 867 1450 973 1403 c 132,-1,4
 1079 1356 1079 1356 1132 1262.5 c 132,-1,5
 1185 1169 1185 1169 1184.5 1078.5 c 132,-1,6
 1184 988 1184 988 1133 905 c 132,-1,7
 1082 822 1082 822 980 772 c 5,8,9
 1116 731 1116 731 1187.5 634.5 c 132,-1,10
 1259 538 1259 538 1256 420 c 4,11,12
 1250 293 1250 293 1203 211.5 c 132,-1,13
 1156 130 1156 130 1098 89 c 132,-1,14
 1040 48 1040 48 956 24 c 132,-1,15
 872 0 872 0 753 0 c 6,16,-1
 165 0 l 5,0,-1
290 819 m 5,17,-1
 729 819 l 6,18,19
 860 819 860 819 954.5 877.5 c 132,-1,20
 1049 936 1049 936 1047 1056 c 4,21,22
 1046 1172 1046 1172 993.5 1222 c 132,-1,23
 941 1272 941 1272 870 1293 c 132,-1,24
 799 1314 799 1314 704 1314 c 6,25,-1
 290 1314 l 5,26,-1
 290 819 l 5,17,-1
290 136 m 5,27,-1
 778 136 l 6,28,29
 875 136 875 136 933.5 160 c 132,-1,30
 992 184 992 184 1035.5 232.5 c 132,-1,31
 1079 281 1079 281 1093.5 328 c 132,-1,32
 1108 375 1108 375 1108 420 c 4,33,34
 1110 508 1110 508 1060.5 568 c 132,-1,35
 1011 628 1011 628 931 660 c 132,-1,36
 851 692 851 692 750 692 c 6,37,-1
 290 692 l 5,38,-1
 290 136 l 5,27,-1
EndSplineSet
EndChar
StartChar: C
Encoding: 67 67 39
Width: 1477
VWidth: 2045
Flags: W
HStem: -9 142<599.8 989.68> 1335 142<543.4 994.1>
VStem: 102 143<491.5 1023.2>
Fore
1262 480 m 1,0,-1
 1396 480 l 1,1,2
 1351 257 1351 257 1183 119.5 c 128,-1,3
 1015 -18 1015 -18 790 -9 c 0,4,5
 538 -2 538 -2 397 91 c 128,-1,6
 256 184 256 184 179 367 c 128,-1,7
 102 550 102 550 102 745 c 0,8,9
 102 959 102 959 189.5 1129 c 128,-1,10
 277 1299 277 1299 439 1388 c 128,-1,11
 601 1477 601 1477 793 1477 c 0,12,13
 1012 1477 1012 1477 1163 1364 c 128,-1,14
 1314 1251 1314 1251 1372 1050 c 1,15,-1
 1238 1050 l 1,16,17
 1192 1193 1192 1193 1069.5 1264 c 128,-1,18
 947 1335 947 1335 790 1335 c 0,19,20
 570 1335 570 1335 409.5 1190 c 128,-1,21
 249 1045 249 1045 245 746 c 0,22,23
 243 547 243 547 319.5 400.5 c 128,-1,24
 396 254 396 254 519.5 192.5 c 128,-1,25
 643 131 643 131 787 133 c 0,26,27
 991 133 991 133 1108.5 218.5 c 128,-1,28
 1226 304 1226 304 1262 480 c 1,0,-1
EndSplineSet
EndChar
StartChar: D
Encoding: 68 68 40
Width: 1477
VWidth: 2045
Flags: W
HStem: 0 136<296 1055.6> 1314 136<296 984>
VStem: 168 128<136 1314> 1235 143<387.6 1180.6>
Fore
168 0 m 1,0,-1
 168 1450 l 1,1,-1
 672 1450 l 2,2,3
 1031 1450 1031 1450 1206 1282.5 c 128,-1,4
 1381 1115 1381 1115 1378 733 c 0,5,6
 1375 326 1375 326 1186 163 c 128,-1,7
 997 0 997 0 695 0 c 2,8,-1
 168 0 l 1,0,-1
296 136 m 1,9,-1
 689 136 l 2,10,11
 971 136 971 136 1103 302 c 128,-1,12
 1235 468 1235 468 1235 736 c 0,13,14
 1235 1078 1235 1078 1075 1196 c 128,-1,15
 915 1314 915 1314 685 1314 c 2,16,-1
 296 1314 l 1,17,-1
 296 136 l 1,9,-1
EndSplineSet
EndChar
StartChar: E
Encoding: 69 69 41
Width: 1248
VWidth: 2045
Flags: W
HStem: 0 142<235 1168> 668 136<235 967> 1305 145<235 1168>
VStem: 108 127<142 668 804 1305>
Fore
108 0 m 5,0,-1
 108 1450 l 5,1,-1
 1168 1450 l 5,2,-1
 1168 1305 l 5,3,-1
 235 1305 l 5,4,-1
 235 804 l 5,5,-1
 967 804 l 5,6,-1
 967 668 l 5,7,-1
 235 668 l 5,8,-1
 235 142 l 5,9,-1
 1168 142 l 5,10,-1
 1168 0 l 5,11,-1
 108 0 l 5,0,-1
EndSplineSet
EndChar
StartChar: F
Encoding: 70 70 42
Width: 1137
VWidth: 2045
Flags: W
HStem: 0 21G<91 216> 663 135<216 932> 1323 127<216 1079>
VStem: 91 125<0 663 798 1323>
Fore
91 0 m 5,0,-1
 91 1450 l 5,1,-1
 1079 1450 l 5,2,-1
 1079 1323 l 5,3,-1
 216 1323 l 5,4,-1
 216 798 l 5,5,-1
 932 798 l 5,6,-1
 932 663 l 5,7,-1
 216 663 l 5,8,-1
 216 0 l 5,9,-1
 91 0 l 5,0,-1
EndSplineSet
EndChar
StartChar: G
Encoding: 71 71 43
Width: 1590
VWidth: 2045
Flags: W
HStem: -9 142<566.8 1133.6> 541 142<950 1310> 1335 142<588.1 1113.2>
VStem: 148 143<526.3 1023.2> 1310 138<349.9 541>
Fore
1281.5 137.5 m 128,-1,1
 1445 284 1445 284 1448 539 c 2,2,-1
 1448 683 l 1,3,-1
 950 683 l 1,4,-1
 950 541 l 1,5,-1
 1310 541 l 1,6,7
 1313 394 1313 394 1188.5 264 c 128,-1,8
 1064 134 1064 134 832 133 c 0,9,10
 628 130 628 130 503 237 c 128,-1,11
 378 344 378 344 335.5 460.5 c 128,-1,12
 293 577 293 577 291 746 c 0,13,14
 289 1009 289 1009 435 1173.5 c 128,-1,15
 581 1338 581 1338 835 1335 c 0,16,17
 1049 1332 1049 1332 1155.5 1234.5 c 128,-1,18
 1262 1137 1262 1137 1284 1050 c 1,19,-1
 1418 1050 l 1,20,21
 1360 1251 1360 1251 1209 1364 c 128,-1,22
 1058 1477 1058 1477 839 1477 c 0,23,24
 646 1477 646 1477 484.5 1388 c 128,-1,25
 323 1299 323 1299 235.5 1129 c 128,-1,26
 148 959 148 959 148 745 c 0,27,28
 148 550 148 550 225 367 c 128,-1,29
 302 184 302 184 453 86.5 c 128,-1,30
 604 -11 604 -11 835 -9 c 0,31,0
 1118 -9 1118 -9 1281.5 137.5 c 128,-1,1
EndSplineSet
EndChar
StartChar: H
Encoding: 72 72 44
Width: 1477
VWidth: 2045
Flags: W
HStem: 0 21G<165 290 1186 1313> 690 134<290 1186> 1430 20G<165 290 1186 1313>
VStem: 165 125<0 690 824 1450> 1186 127<0 690 824 1450>
Fore
165 0 m 1,0,-1
 165 1450 l 1,1,-1
 290 1450 l 1,2,-1
 290 824 l 1,3,-1
 1186 824 l 1,4,-1
 1186 1450 l 1,5,-1
 1313 1450 l 1,6,-1
 1313 0 l 1,7,-1
 1186 0 l 1,8,-1
 1186 690 l 1,9,-1
 290 690 l 1,10,-1
 290 0 l 1,11,-1
 165 0 l 1,0,-1
EndSplineSet
EndChar
StartChar: I
Encoding: 73 73 45
Width: 568
VWidth: 2045
Flags: W
HStem: 0 21G<235 369> 1430 20G<235 369>
VStem: 235 134<0 1450>
Fore
235 0 m 1,0,-1
 235 1450 l 1,1,-1
 369 1450 l 1,2,-1
 369 0 l 1,3,-1
 235 0 l 1,0,-1
EndSplineSet
EndChar
StartChar: J
Encoding: 74 74 46
Width: 1022
VWidth: 2045
Flags: W
HStem: -9 126.852<329.1 560.542> 1430 20G<730 864>
VStem: 64 127<272.552 455> 730 134<296 1450>
Fore
730 1450 m 17,0,-1
 864 1450 l 1,1,-1
 864 456 l 2,2,3
 864 281 864 281 824 199.5 c 128,-1,4
 784 118 784 118 704.5 53 c 128,-1,5
 625 -12 625 -12 463 -9 c 0,6,7
 360 -9 360 -9 273 27 c 128,-1,8
 186 63 186 63 135.5 134 c 128,-1,9
 85 205 85 205 73 280.5 c 128,-1,10
 61 356 61 356 64 455 c 1,11,-1
 191 455 l 17,12,13
 189 275 189 275 257 196.5 c 128,-1,14
 325 118 325 118 460 118 c 0,15,16
 537 116 537 116 591 141 c 128,-1,17
 645 166 645 166 687.5 231 c 128,-1,18
 730 296 730 296 730 408 c 10,19,-1
 730 1450 l 17,0,-1
EndSplineSet
EndChar
StartChar: K
Encoding: 75 75 47
Width: 1364
VWidth: 2045
Flags: W
HStem: 0 21G<149 277 1165 1345> 1430 20G<149 277 1125 1314>
VStem: 149 128<0 553 716 1450>
Fore
149 0 m 1,0,-1
 149 1450 l 1,1,-1
 277 1450 l 1,2,-1
 277 716 l 1,3,-1
 1125 1450 l 1,4,-1
 1314 1450 l 1,5,-1
 590 823 l 1,6,-1
 1345 0 l 1,7,-1
 1165 0 l 1,8,-1
 488 743 l 1,9,-1
 277 553 l 1,10,-1
 277 0 l 1,11,-1
 149 0 l 1,0,-1
EndSplineSet
EndChar
StartChar: L
Encoding: 76 76 48
Width: 1137
VWidth: 2045
Flags: W
HStem: 0 133<277 1058> 1430 20G<149 277>
VStem: 149 128<133 1450>
Fore
149 0 m 1,0,-1
 149 1450 l 1,1,-1
 277 1450 l 1,2,-1
 277 133 l 1,3,-1
 1058 133 l 1,4,-1
 1058 0 l 1,5,-1
 149 0 l 1,0,-1
EndSplineSet
EndChar
StartChar: M
Encoding: 77 77 49
Width: 1702
VWidth: 2045
Flags: W
HStem: 0 21G<152 277 796 903 1415 1549> 1430 20G<152 277 1415 1549>
VStem: 152 125<0 1145> 1415 134<0 1145>
Fore
152 0 m 1,0,-1
 152 1450 l 1,1,-1
 277 1450 l 1,2,-1
 851 156 l 1,3,-1
 1415 1450 l 1,4,-1
 1549 1450 l 1,5,-1
 1549 0 l 1,6,-1
 1415 0 l 1,7,-1
 1415 1145 l 1,8,-1
 903 0 l 1,9,-1
 796 0 l 1,10,-1
 277 1145 l 1,11,-1
 277 0 l 1,12,-1
 152 0 l 1,0,-1
EndSplineSet
EndChar
StartChar: N
Encoding: 78 78 50
Width: 1477
VWidth: 2045
Flags: W
HStem: 0 21G<156 283 1175 1309> 1430 20G<156 283 1175 1309>
VStem: 156 127<0 1242> 1175 134<208 1450>
Fore
156 0 m 1,0,-1
 156 1450 l 1,1,-1
 283 1450 l 1,2,-1
 1175 208 l 1,3,-1
 1175 1450 l 1,4,-1
 1309 1450 l 1,5,-1
 1309 0 l 1,6,-1
 1175 0 l 1,7,-1
 283 1242 l 1,8,-1
 283 0 l 1,9,-1
 156 0 l 1,0,-1
EndSplineSet
EndChar
StartChar: O
Encoding: 79 79 51
Width: 1590
VWidth: 2045
Flags: W
HStem: -12 119<672.85 921.2> 1349 125<668.332 928.471>
VStem: 99 145<601 947.7> 1342 157<597.629 864.9>
Fore
99 731 m 256,0,1
 99 946 99 946 164 1071 c 128,-1,2
 229 1196 229 1196 295 1266.5 c 128,-1,3
 361 1337 361 1337 439 1384.5 c 128,-1,4
 517 1432 517 1432 610.5 1453 c 128,-1,5
 704 1474 704 1474 799 1474 c 256,6,7
 893 1474 893 1474 986 1453 c 128,-1,8
 1079 1432 1079 1432 1159 1386.5 c 128,-1,9
 1239 1341 1239 1341 1310 1266.5 c 128,-1,10
 1381 1192 1381 1192 1414.5 1109 c 128,-1,11
 1448 1026 1448 1026 1473.5 930 c 128,-1,12
 1499 834 1499 834 1499 731 c 256,13,14
 1499 631 1499 631 1476.5 533 c 128,-1,15
 1454 435 1454 435 1408.5 346.5 c 128,-1,16
 1363 258 1363 258 1299 190 c 128,-1,17
 1235 122 1235 122 1159.5 81.5 c 128,-1,18
 1084 41 1084 41 988.5 14.5 c 128,-1,19
 893 -12 893 -12 799 -12 c 256,20,21
 704 -12 704 -12 612.5 10 c 128,-1,22
 521 32 521 32 441 79.5 c 128,-1,23
 361 127 361 127 292.5 199.5 c 128,-1,24
 224 272 224 272 186.5 355 c 128,-1,25
 149 438 149 438 124 534.5 c 128,-1,26
 99 631 99 631 99 731 c 256,0,1
244 728 m 256,27,28
 244 559 244 559 318 416 c 128,-1,29
 392 273 392 273 518.5 190 c 128,-1,30
 645 107 645 107 793 107 c 256,31,32
 942 107 942 107 1068.5 190 c 128,-1,33
 1195 273 1195 273 1268.5 416 c 128,-1,34
 1342 559 1342 559 1342 728 c 256,35,36
 1342 897 1342 897 1268.5 1040 c 128,-1,37
 1195 1183 1195 1183 1068.5 1266 c 128,-1,38
 942 1349 942 1349 793 1349 c 256,39,40
 645 1349 645 1349 518.5 1266 c 128,-1,41
 392 1183 392 1183 318 1040 c 128,-1,42
 244 897 244 897 244 728 c 256,27,28
EndSplineSet
EndChar
StartChar: P
Encoding: 80 80 52
Width: 1248
VWidth: 2045
Flags: W
HStem: 0 21G<88 216> 580 127<216 920.7> 1314 136<216 907.2>
VStem: 88 128<0 580 707 1314>
Fore
88 0 m 5,0,-1
 88 1450 l 5,1,-1
 642 1450 l 6,2,3
 846 1450 846 1450 921.5 1426 c 132,-1,4
 997 1402 997 1402 1069.5 1347.5 c 132,-1,5
 1142 1293 1142 1293 1174.5 1196.5 c 132,-1,6
 1207 1100 1207 1100 1207 1026 c 4,7,8
 1207 840 1207 840 1088.5 710 c 132,-1,9
 970 580 970 580 659 580 c 6,10,-1
 216 580 l 5,11,-1
 216 0 l 5,12,-1
 88 0 l 5,0,-1
1061 1020 m 28,13,14
 1070 1127 1070 1127 984 1220.5 c 132,-1,15
 898 1314 898 1314 659 1314 c 6,16,-1
 216 1314 l 5,17,-1
 216 707 l 5,18,-1
 662 707 l 6,19,20
 861 707 861 707 955 791 c 132,-1,21
 1049 875 1049 875 1061 1020 c 28,13,14
EndSplineSet
EndChar
StartChar: Q
Encoding: 81 81 53
Width: 1590
VWidth: 2045
Flags: W
HStem: -9 139<598.3 927.791> 0 116<1275.3 1465.61> 347 123<708.6 932.2> 1335 142<390.6 1090>
VStem: 81 146<551.8 1028.5> 1325 146.089<534.7 901.3>
Fore
788 470 m 0,0,1
 927 470 927 470 1032 416 c 128,-1,2
 1137 362 1137 362 1186 293 c 1,3,4
 1262 372 1262 372 1294 476 c 128,-1,5
 1326 580 1326 580 1325 731 c 0,6,7
 1323 1009 1323 1009 1170.5 1172 c 128,-1,8
 1018 1335 1018 1335 778 1335 c 0,9,10
 480 1335 480 1335 351.5 1145 c 128,-1,11
 223 955 223 955 227 710 c 0,12,13
 229 563 229 563 290 427.5 c 128,-1,14
 351 292 351 292 430 249 c 1,15,16
 497 347 497 347 593 408.5 c 128,-1,17
 689 470 689 470 788 470 c 0,0,1
776 -9 m 0,18,19
 512 -9 512 -9 343 131.5 c 128,-1,20
 174 272 174 272 127.5 430.5 c 128,-1,21
 81 589 81 589 81 713 c 0,22,23
 79 1074 79 1074 271 1277 c 128,-1,24
 463 1480 463 1480 778 1477 c 0,25,26
 1067 1474 1067 1474 1228.5 1320 c 128,-1,27
 1390 1166 1390 1166 1430 1017 c 0,28,29
 1473 862 1473 862 1471 731 c 0,30,31
 1468 476 1468 476 1405 354.5 c 128,-1,32
 1342 233 1342 233 1259 172 c 1,33,34
 1299 121 1299 121 1378 116 c 0,35,36
 1433 113 1433 113 1480.5 133.5 c 128,-1,37
 1528 154 1528 154 1552 186 c 1,38,-1
 1634 91 l 1,39,40
 1552 0 1552 0 1387 0 c 0,41,42
 1290 0 1290 0 1227.5 41 c 128,-1,43
 1165 82 1165 82 1153 104 c 1,44,45
 997 -11 997 -11 776 -9 c 0,18,19
784 347 m 16,46,47
 726 344 726 344 641 285.5 c 128,-1,48
 556 227 556 227 546 175 c 1,49,50
 640 130 640 130 779 130 c 0,51,52
 863 128 863 128 950.5 145.5 c 128,-1,53
 1038 163 1038 163 1085 204 c 1,54,55
 1052 263 1052 263 975 306.5 c 128,-1,56
 898 350 898 350 784 347 c 16,46,47
EndSplineSet
EndChar
StartChar: R
Encoding: 82 82 54
Width: 1364
VWidth: 2045
Flags: W
HStem: 0 21G<98 223 1168 1325> 580 127<223 713> 1314 136<223 915.5>
VStem: 98 125<0 580 707 1314> 1052 162<828.9 1124.91>
Fore
713 580 m 5,0,-1
 223 580 l 5,1,-1
 223 0 l 5,2,-1
 98 0 l 5,3,-1
 98 1450 l 5,4,-1
 649 1450 l 6,5,6
 854 1450 854 1450 928.5 1426 c 132,-1,7
 1003 1402 1003 1402 1074.5 1349 c 132,-1,8
 1146 1296 1146 1296 1181.5 1197 c 132,-1,9
 1217 1098 1217 1098 1214 1026 c 4,10,11
 1211 856 1211 856 1122.5 740.5 c 132,-1,12
 1034 625 1034 625 863 595 c 5,13,-1
 1325 0 l 5,14,-1
 1168 0 l 5,15,-1
 713 580 l 5,0,-1
1052 1020 m 4,16,17
 1052 1160 1052 1160 962 1237 c 132,-1,18
 872 1314 872 1314 695 1314 c 6,19,-1
 223 1314 l 5,20,-1
 223 707 l 5,21,-1
 700 707 l 6,22,23
 887 707 887 707 969.5 790 c 132,-1,24
 1052 873 1052 873 1052 1020 c 4,16,17
EndSplineSet
EndChar
StartChar: S
Encoding: 83 83 55
Width: 1248
VWidth: 2045
Flags: W
HStem: -9 136<330.5 938.9> 1338 133<366.1 835.6>
VStem: 46 145<304.7 501> 102 142<957.1 1219.7> 1020 148<1001.97 1150.96> 1070 142<268.4 555.7>
Fore
102 1066 m 4,0,1
 102 921 102 921 226.5 827.5 c 132,-1,2
 351 734 351 734 592 689 c 4,3,4
 819 649 819 649 944.5 586 c 132,-1,5
 1070 523 1070 523 1070 414 c 4,6,7
 1070 302 1070 302 972.5 215 c 132,-1,8
 875 128 875 128 662 127 c 4,9,10
 407 124 407 124 299 237 c 132,-1,11
 191 350 191 350 191 501 c 13,12,-1
 46 501 l 21,13,14
 46 287 46 287 192 142 c 132,-1,15
 338 -3 338 -3 671 -9 c 4,16,17
 896 -14 896 -14 1055 108 c 132,-1,18
 1214 230 1214 230 1212 429 c 4,19,20
 1212 565 1212 565 1061 675 c 132,-1,21
 910 785 910 785 617 835 c 4,22,23
 442 864 442 864 343 924.5 c 132,-1,24
 244 985 244 985 244 1078 c 4,25,26
 244 1187 244 1187 334 1262.5 c 132,-1,27
 424 1338 424 1338 625 1338 c 4,28,29
 787 1337 787 1337 895 1255.5 c 132,-1,30
 1003 1174 1003 1174 1020 1018 c 13,31,-1
 1168 1018 l 4,32,33
 1156 1236 1156 1236 1006.5 1350 c 132,-1,34
 857 1464 857 1464 617 1471 c 4,35,36
 424 1474 424 1474 263 1370.5 c 132,-1,37
 102 1267 102 1267 102 1066 c 4,0,1
EndSplineSet
EndChar
StartChar: T
Encoding: 84 84 56
Width: 1137
VWidth: 2045
Flags: W
HStem: 0 21G<500 634> 1317 133<18 500 634 1119>
VStem: 500 134<0 1317>
Fore
500 0 m 1,0,-1
 500 1317 l 1,1,-1
 18 1317 l 1,2,-1
 18 1450 l 1,3,-1
 1119 1450 l 5,4,-1
 1119 1317 l 5,5,-1
 634 1317 l 1,6,-1
 634 0 l 1,7,-1
 500 0 l 1,0,-1
EndSplineSet
EndChar
StartChar: U
Encoding: 85 85 57
Width: 1477
VWidth: 2045
Flags: W
HStem: -9 127<477.3 1051.9> 1430 20G<162 287 1186 1313>
VStem: 162 125<269 1450> 1186 127<367 1450>
Fore
1186 1450 m 1,0,-1
 1313 1450 l 1,1,-1
 1313 566 l 2,2,3
 1313 272 1313 272 1162.5 130.5 c 128,-1,4
 1012 -11 1012 -11 741 -9 c 0,5,6
 424 -9 424 -9 293 146 c 128,-1,7
 162 301 162 301 162 566 c 2,8,-1
 162 1450 l 1,9,-1
 287 1450 l 1,10,-1
 287 568 l 2,11,12
 287 338 287 338 412 225 c 128,-1,13
 537 112 537 112 736 118 c 0,14,15
 979 123 979 123 1082.5 245 c 128,-1,16
 1186 367 1186 367 1186 568 c 2,17,-1
 1186 1450 l 1,0,-1
EndSplineSet
EndChar
StartChar: V
Encoding: 86 86 58
Width: 1248
VWidth: 2045
Flags: W
HStem: 0 21G<561 683> 1430 20G<9 165 1098 1241>
Fore
561 0 m 1,0,-1
 9 1450 l 1,1,-1
 165 1450 l 1,2,-1
 622 218 l 1,3,-1
 1098 1450 l 1,4,-1
 1241 1450 l 1,5,-1
 683 0 l 1,6,-1
 561 0 l 1,0,-1
EndSplineSet
EndChar
StartChar: W
Encoding: 87 87 59
Width: 1818
VWidth: 2045
Flags: W
HStem: 0 21G<436 573 1262 1400> 1430 20G<24 171 857 996 1650 1796>
Fore
436 0 m 1,0,-1
 24 1450 l 1,1,-1
 171 1450 l 1,2,-1
 512 224 l 1,3,-1
 857 1450 l 1,4,-1
 996 1450 l 1,5,-1
 1339 224 l 1,6,-1
 1650 1450 l 1,7,-1
 1796 1450 l 1,8,-1
 1400 0 l 1,9,-1
 1262 0 l 1,10,-1
 921 1229 l 1,11,-1
 573 0 l 1,12,-1
 436 0 l 1,0,-1
EndSplineSet
EndChar
StartChar: X
Encoding: 88 88 60
Width: 1248
VWidth: 2045
Flags: W
HStem: 0 21G<9 186 1069 1244> 1430 20G<76 253 1028 1204>
Fore
9 0 m 1,0,-1
 540 740 l 1,1,-1
 76 1450 l 1,2,-1
 253 1450 l 1,3,-1
 627 856 l 1,4,-1
 1028 1450 l 1,5,-1
 1204 1450 l 1,6,-1
 713 740 l 1,7,-1
 1244 0 l 1,8,-1
 1069 0 l 1,9,-1
 627 634 l 1,10,-1
 186 0 l 1,11,-1
 9 0 l 1,0,-1
EndSplineSet
EndChar
StartChar: Y
Encoding: 89 89 61
Width: 1248
VWidth: 2045
Flags: W
HStem: 0 21G<540 688> 1430 20G<6 183 1066 1241>
VStem: 540 148<0 621>
Fore
540 0 m 1,0,-1
 540 621 l 1,1,-1
 6 1450 l 1,2,-1
 183 1450 l 1,3,-1
 625 757 l 1,4,-1
 1066 1450 l 1,5,-1
 1241 1450 l 1,6,-1
 688 621 l 1,7,-1
 688 0 l 1,8,-1
 540 0 l 1,0,-1
EndSplineSet
EndChar
StartChar: Z
Encoding: 90 90 62
Width: 1248
VWidth: 2045
Flags: W
HStem: 0 142<233 1198> 1308 142<46 1035>
Fore
41 0 m 1,0,-1
 41 150 l 1,1,-1
 1035 1308 l 1,2,-1
 46 1308 l 1,3,-1
 46 1450 l 1,4,-1
 1212 1450 l 1,5,-1
 1212 1308 l 1,6,-1
 233 142 l 1,7,-1
 1198 142 l 1,8,-1
 1198 0 l 1,9,-1
 41 0 l 1,0,-1
EndSplineSet
EndChar
StartChar: bracketleft
Encoding: 91 91 63
Width: 681
VWidth: 2045
Flags: W
HStem: -408 112<266 535> 1353 112<266 535>
VStem: 139 127<-296 1353>
Fore
139 -408 m 1,0,-1
 139 1465 l 1,1,-1
 535 1465 l 1,2,-1
 535 1353 l 1,3,-1
 266 1353 l 1,4,-1
 266 -296 l 1,5,-1
 535 -296 l 1,6,-1
 535 -408 l 1,7,-1
 139 -408 l 1,0,-1
EndSplineSet
EndChar
StartChar: backslash
Encoding: 92 92 64
Width: 568
VWidth: 2045
Flags: W
VStem: 0 531<-24 1489>
Fore
424 -24 m 1,0,-1
 0 1489 l 1,1,-1
 107 1489 l 1,2,-1
 531 -24 l 1,3,-1
 424 -24 l 1,0,-1
EndSplineSet
EndChar
StartChar: bracketright
Encoding: 93 93 65
Width: 681
VWidth: 2045
Flags: W
HStem: -408 112<104 374> 1353 112<104 374>
VStem: 374 127<-296 1353>
Fore
501 -408 m 5,0,-1
 501 1465 l 5,1,-1
 104 1465 l 5,2,-1
 104 1353 l 5,3,-1
 374 1353 l 5,4,-1
 374 -296 l 5,5,-1
 104 -296 l 5,6,-1
 104 -408 l 5,7,-1
 501 -408 l 5,0,-1
EndSplineSet
EndChar
StartChar: asciicircum
Encoding: 94 94 66
Width: 1350
VWidth: 2045
Flags: W
HStem: 689 801<375 588>
VStem: 238 851<689 689>
Fore
375 689 m 5,0,-1
 238 689 l 5,1,-1
 588 1490 l 5,2,-1
 735 1490 l 5,3,-1
 1089 689 l 5,4,-1
 945 689 l 5,5,-1
 662 1362 l 5,6,-1
 375 689 l 5,0,-1
EndSplineSet
EndChar
StartChar: underscore
Encoding: 95 95 67
Width: 1022
VWidth: 2045
Flags: W
HStem: -408 94<-30 1055>
Fore
-30 -408 m 1,0,-1
 -30 -314 l 1,1,-1
 1055 -314 l 5,2,-1
 1055 -408 l 5,3,-1
 -30 -408 l 1,0,-1
EndSplineSet
EndChar
StartChar: grave
Encoding: 96 96 68
Width: 681
VWidth: 2045
Flags: W
HStem: 1193 281<134 473>
VStem: 134 339<1193 1474>
Fore
473 1193 m 5,0,-1
 366 1193 l 5,1,-1
 134 1474 l 5,2,-1
 337 1474 l 5,3,-1
 473 1193 l 5,0,-1
EndSplineSet
EndChar
StartChar: a
Encoding: 97 97 69
Width: 1137
VWidth: 2045
Flags: W
HStem: -24 103<336.4 605> 505.914 102.086<308.798 762.927> 982 102<406.35 758.65>
VStem: 75 138<143.2 403.2> 866 128<287.6 565 629.8 823.057>
Fore
75 284 m 128,-1,1
 75 139 75 139 173 57.5 c 128,-1,2
 271 -24 271 -24 436 -24 c 0,3,4
 566 -24 566 -24 683 19.5 c 128,-1,5
 800 63 800 63 881 130 c 1,6,7
 889 54 889 54 916 0 c 1,8,-1
 1052 0 l 1,9,10
 1015 63 1015 63 1004.5 126.5 c 128,-1,11
 994 190 994 190 994 444 c 2,12,-1
 994 686 l 2,13,14
 994 810 994 810 981 868.5 c 128,-1,15
 968 927 968 927 928.5 975 c 128,-1,16
 889 1023 889 1023 803.5 1053.5 c 128,-1,17
 718 1084 718 1084 582.5 1084 c 128,-1,18
 447 1084 447 1084 342.5 1046.5 c 128,-1,19
 238 1009 238 1009 184 942 c 128,-1,20
 130 875 130 875 105 758 c 1,21,-1
 224 740 l 1,22,23
 253 861 253 861 333 921.5 c 128,-1,24
 413 982 413 982 555 982 c 0,25,26
 736 982 736 982 801 915.5 c 128,-1,27
 866 849 866 849 866 778 c 128,-1,28
 866 707 866 707 866 674 c 1,29,30
 871 640 871 640 549 608 c 16,31,32
 300 581 300 581 187.5 505 c 128,-1,0
 75 429 75 429 75 284 c 128,-1,1
553 503 m 24,33,34
 698 515 698 515 864 565 c 1,35,-1
 866 467 l 2,36,37
 866 329 866 329 825 252 c 128,-1,38
 784 175 784 175 688 127 c 128,-1,39
 592 79 592 79 482 79 c 0,40,41
 370 79 370 79 291 127 c 128,-1,42
 212 175 212 175 213 281 c 0,43,44
 213 375 213 375 289.5 430.5 c 128,-1,45
 366 486 366 486 553 503 c 24,33,34
EndSplineSet
EndChar
StartChar: b
Encoding: 98 98 70
Width: 1248
VWidth: 2045
Flags: W
HStem: -12 121<509.7 748.9> 955 130<509.7 748.9> 1444 20G<171 297>
VStem: 171 126<918 1464> 171 119<-2 163 382.5 680.2> 967 125<382.5 680.2>
Fore
290 532 m 260,0,1
 290 417 290 417 329.5 312 c 132,-1,2
 369 207 369 207 453 158 c 132,-1,3
 537 109 537 109 628 109 c 260,4,5
 721 109 721 109 804 162.5 c 132,-1,6
 887 216 887 216 927 316.5 c 132,-1,7
 967 417 967 417 967 532 c 260,8,9
 967 646 967 646 924 754 c 132,-1,10
 881 862 881 862 801 908.5 c 132,-1,11
 721 955 721 955 628 955 c 260,12,13
 537 955 537 955 453 902.5 c 132,-1,14
 369 850 369 850 329.5 748 c 132,-1,15
 290 646 290 646 290 532 c 260,0,1
284 -2 m 5,16,-1
 171 -2 l 5,17,-1
 171 1464 l 5,18,-1
 297 1464 l 5,19,-1
 297 918 l 5,20,21
 415 1081 415 1081 642 1085 c 4,22,23
 854 1085 854 1085 973 929 c 132,-1,24
 1092 773 1092 773 1092 545 c 4,25,26
 1092 284 1092 284 965.5 139 c 132,-1,27
 839 -6 839 -6 633 -12 c 4,28,29
 494 -15 494 -15 402.5 47.5 c 132,-1,30
 311 110 311 110 284 163 c 5,31,-1
 284 -2 l 5,16,-1
EndSplineSet
EndChar
StartChar: c
Encoding: 99 99 71
Width: 1137
VWidth: 2045
Flags: W
HStem: -9 131<366.7 778.8> 953 131<369.2 745.4>
VStem: 95 131<426.964 812.8> 896 122<205.081 411.665>
Fore
226 532 m 4,0,1
 226 326 226 326 320.5 223.5 c 132,-1,2
 415 121 415 121 576 122 c 4,3,4
 732 124 732 124 808 187.5 c 132,-1,5
 884 251 884 251 896 402 c 5,6,-1
 1018 402 l 5,7,8
 1009 184 1009 184 877.5 85 c 132,-1,9
 746 -14 746 -14 578 -9 c 4,10,11
 381 -6 381 -6 251.5 124 c 132,-1,12
 122 254 122 254 108.5 379 c 132,-1,13
 95 504 95 504 95 527 c 4,14,15
 95 810 95 810 233.5 948 c 132,-1,16
 372 1086 372 1086 579 1084 c 4,17,18
 707 1084 707 1084 819.5 1034.5 c 132,-1,19
 932 985 932 985 978 873 c 132,-1,20
 1024 761 1024 761 1017 695 c 5,21,-1
 896 695 l 5,22,23
 883 801 883 801 810.5 878 c 132,-1,24
 738 955 738 955 585 953 c 4,25,26
 419 952 419 952 323.5 850 c 132,-1,27
 228 748 228 748 226 532 c 4,0,1
EndSplineSet
EndChar
StartChar: d
Encoding: 100 100 72
Width: 1248
VWidth: 2045
Flags: W
HStem: -9 119<496.4 736.9> 956 128<496.4 736.9> 1445 20G<948 1073>
VStem: 156 121<383.5 682.5> 954 119<0 165 383.5 682.5 920 1465>
Fore
954 533 m 260,0,1
 954 418 954 418 916 313 c 132,-1,2
 878 208 878 208 793.5 159 c 132,-1,3
 709 110 709 110 616 110 c 260,4,5
 524 110 524 110 442 164 c 132,-1,6
 360 218 360 218 318.5 318 c 132,-1,7
 277 418 277 418 277 533 c 260,8,9
 277 648 277 648 321.5 756 c 132,-1,10
 366 864 366 864 445 910 c 132,-1,11
 524 956 524 956 616 956 c 260,12,13
 709 956 709 956 793.5 904 c 132,-1,14
 878 852 878 852 916 750 c 132,-1,15
 954 648 954 648 954 533 c 260,0,1
960 0 m 5,16,-1
 1073 0 l 5,17,-1
 1073 1465 l 5,18,-1
 948 1465 l 5,19,-1
 948 920 l 5,20,21
 832 1084 832 1084 604 1084 c 4,22,23
 392 1086 392 1086 273 930.5 c 132,-1,24
 154 775 154 775 156 547 c 4,25,26
 156 284 156 284 281 139.5 c 132,-1,27
 406 -5 406 -5 613 -9 c 4,28,29
 750 -14 750 -14 841.5 49 c 132,-1,30
 933 112 933 112 960 165 c 5,31,-1
 960 0 l 5,16,-1
EndSplineSet
EndChar
StartChar: e
Encoding: 101 101 73
Width: 1137
VWidth: 2045
Flags: W
HStem: -9 124<328.734 674.916> 500 119<216 915> 952 134<383.2 797.9>
VStem: 75 138<299.8 500 619 825.7>
Fore
915 332 m 0,0,-1
 1046 332 l 1,1,2
 1011 163 1011 163 900.5 87.5 c 128,-1,3
 790 12 790 12 695.5 1.5 c 128,-1,4
 601 -9 601 -9 579 -9 c 0,5,6
 297 0 297 0 185 149.5 c 128,-1,7
 73 299 73 299 75 523 c 0,8,9
 76 796 76 796 215 940 c 128,-1,10
 354 1084 354 1084 570 1086 c 0,11,12
 820 1086 820 1086 940.5 915.5 c 128,-1,13
 1061 745 1061 745 1052 520 c 0,14,-1
 1052 500 l 1,15,-1
 213 500 l 1,16,17
 213 346 213 346 291 230.5 c 128,-1,18
 369 115 369 115 582 115 c 0,19,20
 713 115 713 115 794 173 c 128,-1,21
 875 231 875 231 915 332 c 0,0,-1
216 619 m 1,22,-1
 915 619 l 1,23,24
 903 775 903 775 824.5 863.5 c 128,-1,25
 746 952 746 952 573 952 c 0,26,27
 427 952 427 952 323.5 865 c 128,-1,28
 220 778 220 778 216 619 c 1,22,-1
EndSplineSet
EndChar
StartChar: f
Encoding: 102 102 74
Width: 568
VWidth: 2045
Flags: W
HStem: 0 21G<177 303> 822 103<18 177 303 535> 1381 134<441.189 579.3>
VStem: 177 126<0 822 925 1329>
Fore
177 0 m 1,0,-1
 177 822 l 1,1,-1
 18 822 l 1,2,-1
 18 925 l 1,3,-1
 177 925 l 1,4,-1
 177 1175 l 2,5,6
 177 1390 177 1390 322 1474 c 0,7,8
 393 1513 393 1513 486 1515 c 0,9,10
 563 1515 563 1515 640 1488 c 1,11,-1
 640 1353 l 1,12,13
 561 1381 561 1381 500 1381 c 0,14,15
 473 1381 473 1381 441 1371 c 0,16,17
 303 1329 303 1329 303 1160 c 2,18,-1
 303 925 l 1,19,-1
 535 925 l 1,20,-1
 535 822 l 1,21,-1
 303 822 l 1,22,-1
 303 0 l 1,23,-1
 177 0 l 1,0,-1
EndSplineSet
EndChar
StartChar: g
Encoding: 103 103 75
Width: 1248
VWidth: 2045
Flags: W
HStem: -435 130<427.2 750.6> 0 134<493.1 734.9> 959 127<493.1 734.9>
VStem: 149 127<401.4 692.6> 186 122<-141.432 -74> 954 132<-181 199> 973 113<912 1062>
Fore
276 547 m 260,0,1
 276 659 276 659 318 758.5 c 132,-1,2
 360 858 360 858 440.5 908.5 c 132,-1,3
 521 959 521 959 614 959 c 260,4,5
 707 959 707 959 788 907.5 c 132,-1,6
 869 856 869 856 907 757.5 c 132,-1,7
 945 659 945 659 945 547 c 260,8,9
 945 417 945 417 906 325 c 132,-1,10
 867 233 867 233 787 183.5 c 132,-1,11
 707 134 707 134 614 134 c 260,12,13
 521 134 521 134 438 183.5 c 132,-1,14
 355 233 355 233 315.5 334 c 132,-1,15
 276 435 276 435 276 547 c 260,0,1
605 -435 m 4,16,17
 717 -437 717 -437 833.5 -401.5 c 132,-1,18
 950 -366 950 -366 1017.5 -248 c 132,-1,19
 1085 -130 1085 -130 1086 145 c 6,20,-1
 1086 1062 l 5,21,-1
 973 1062 l 5,22,-1
 973 912 l 5,23,24
 860 1088 860 1088 610 1086 c 4,25,26
 392 1084 392 1084 270.5 928.5 c 132,-1,27
 149 773 149 773 149 538 c 4,28,29
 149 310 149 310 272.5 152 c 132,-1,30
 396 -6 396 -6 608 0 c 4,31,32
 843 8 843 8 954 199 c 5,33,-1
 954 157 l 6,34,35
 954 -103 954 -103 872 -204 c 132,-1,36
 790 -305 790 -305 604 -305 c 4,37,38
 468 -307 468 -307 394 -252.5 c 132,-1,39
 320 -198 320 -198 308 -74 c 13,40,-1
 186 -74 l 5,41,42
 183 -214 183 -214 285 -323 c 132,-1,43
 387 -432 387 -432 605 -435 c 4,16,17
EndSplineSet
EndChar
StartChar: h
Encoding: 104 104 76
Width: 1137
VWidth: 2045
Flags: W
HStem: 0 21G<134 262 872 1000> 933 160<488.5 777> 1445 20G<134 262>
VStem: 134 128<0 698 909 1465> 872 128<0 828.8>
Fore
134 0 m 1,0,-1
 134 1465 l 1,1,-1
 262 1465 l 1,2,-1
 262 909 l 1,3,4
 325 1009 325 1009 419.5 1051.5 c 128,-1,5
 514 1094 514 1094 599 1093 c 0,6,7
 811 1093 811 1093 905.5 969.5 c 128,-1,8
 1000 846 1000 846 1000 674 c 2,9,-1
 1000 0 l 1,10,-1
 872 0 l 1,11,-1
 872 639 l 2,12,13
 872 785 872 785 803.5 859 c 128,-1,14
 735 933 735 933 595 933 c 0,15,16
 424 935 424 935 343 816.5 c 128,-1,17
 262 698 262 698 262 607 c 2,18,-1
 262 0 l 1,19,-1
 134 0 l 1,0,-1
EndSplineSet
EndChar
StartChar: i
Encoding: 105 105 77
Width: 454
VWidth: 2045
Flags: W
HStem: 0 21G<159 286> 1258 207<159 286>
VStem: 159 127<0 1060 1258 1465>
Fore
159 1258 m 1,0,-1
 159 1465 l 1,1,-1
 286 1465 l 1,2,-1
 286 1258 l 1,3,-1
 159 1258 l 1,0,-1
159 0 m 1,4,-1
 159 1060 l 1,5,-1
 286 1060 l 1,6,-1
 286 0 l 1,7,-1
 159 0 l 1,4,-1
EndSplineSet
EndChar
StartChar: j
Encoding: 106 106 78
Width: 454
VWidth: 2045
Flags: W
HStem: -429 124<-57.3391 128.4> 1257 208<188 315>
VStem: 188 127<-174.9 1060 1257 1465>
Fore
188 1257 m 1,0,-1
 188 1465 l 1,1,-1
 315 1465 l 1,2,-1
 315 1257 l 1,3,-1
 188 1257 l 1,0,-1
-95 -411 m 1,4,-1
 -95 -296 l 1,5,6
 -40 -305 -40 -305 -6 -305 c 0,7,8
 119 -305 119 -305 146 -242 c 0,9,10
 188 -147 188 -147 188 -54 c 2,11,-1
 188 1060 l 1,12,-1
 315 1060 l 1,13,-1
 315 -57 l 2,14,15
 315 -338 315 -338 160 -405 c 0,16,17
 108 -429 108 -429 40 -429 c 0,18,19
 -21 -429 -21 -429 -95 -411 c 1,4,-1
EndSplineSet
EndChar
StartChar: k
Encoding: 107 107 79
Width: 1022
VWidth: 2045
Flags: W
HStem: 0 21G<136 263 869 1015> 1445 20G<136 263>
VStem: 136 127<0 378 533 1465>
Fore
136 0 m 1,0,-1
 136 1465 l 1,1,-1
 263 1465 l 1,2,-1
 263 533 l 1,3,-1
 822 1060 l 1,4,-1
 974 1060 l 1,5,-1
 553 654 l 1,6,-1
 1015 0 l 1,7,-1
 869 0 l 1,8,-1
 468 574 l 1,9,-1
 263 378 l 1,10,-1
 263 0 l 1,11,-1
 136 0 l 1,0,-1
EndSplineSet
EndChar
StartChar: l
Encoding: 108 108 80
Width: 454
VWidth: 2045
Flags: W
HStem: 0 21G<162 289> 1445 20G<162 289>
VStem: 162 127<0 1465>
Fore
162 0 m 5,0,-1
 162 1465 l 5,1,-1
 289 1465 l 5,2,-1
 289 0 l 5,3,-1
 162 0 l 5,0,-1
EndSplineSet
EndChar
StartChar: m
Encoding: 109 109 81
Width: 1702
VWidth: 2045
Flags: W
HStem: 0 21G<134 262 788 915 1447 1573> 967 118<449.3 730.7 1074 1375.6>
VStem: 134 128<0 704> 134 108<849 1062> 788 127<0 839.6> 1447 126<0 891.6>
Fore
1447 668 m 2,0,-1
 1447 0 l 1,1,-1
 1573 0 l 1,2,-1
 1573 728 l 2,3,4
 1573 911 1573 911 1486.5 999.5 c 128,-1,5
 1400 1088 1400 1088 1244 1085 c 0,6,7
 1113 1085 1113 1085 1032 1023.5 c 128,-1,8
 951 962 951 962 903 876 c 1,9,10
 872 973 872 973 799 1028.5 c 128,-1,11
 726 1084 726 1084 617 1085 c 0,12,13
 488 1085 488 1085 405.5 1027.5 c 128,-1,14
 323 970 323 970 242 849 c 1,15,-1
 242 1062 l 1,16,-1
 134 1062 l 1,17,-1
 134 0 l 1,18,-1
 262 0 l 1,19,-1
 262 550 l 2,20,21
 262 704 262 704 290 764 c 0,22,23
 335 856 335 856 405.5 911.5 c 128,-1,24
 476 967 476 967 576 967 c 0,25,26
 695 967 695 967 741.5 899 c 128,-1,27
 788 831 788 831 788 689 c 2,28,-1
 788 0 l 1,29,-1
 915 0 l 1,30,-1
 915 616 l 2,31,32
 915 788 915 788 1009.5 877.5 c 128,-1,33
 1104 967 1104 967 1204 967 c 0,34,35
 1336 967 1336 967 1391.5 903.5 c 128,-1,36
 1447 840 1447 840 1447 668 c 2,0,-1
EndSplineSet
EndChar
StartChar: n
Encoding: 110 110 82
Width: 1137
VWidth: 2045
Flags: W
HStem: 0 21G<134 262 872 1000> 949 145<431.3 769.2>
VStem: 134 128<0 701 894 1063> 872 128<0 843.7>
Fore
134 0 m 1,0,-1
 134 1063 l 1,1,-1
 262 1063 l 1,2,-1
 262 894 l 1,3,4
 314 994 314 994 392 1044.5 c 128,-1,5
 470 1095 470 1095 599 1094 c 0,6,7
 828 1094 828 1094 914 961 c 128,-1,8
 1000 828 1000 828 1000 674 c 2,9,-1
 1000 0 l 1,10,-1
 872 0 l 1,11,-1
 872 624 l 2,12,13
 872 793 872 793 800.5 871 c 128,-1,14
 729 949 729 949 595 949 c 0,15,16
 418 949 418 949 340 825 c 128,-1,17
 262 701 262 701 262 532 c 2,18,-1
 262 0 l 1,19,-1
 134 0 l 1,0,-1
EndSplineSet
EndChar
StartChar: o
Encoding: 111 111 83
Width: 1137
VWidth: 2045
Flags: W
HStem: -12 121<433 691.7> 961 124<433 691.7>
VStem: 67 130<385.5 683.2> 928 133<385.5 683.2>
Fore
197 535 m 256,0,1
 197 420 197 420 237 314 c 128,-1,2
 277 208 277 208 370 158.5 c 128,-1,3
 463 109 463 109 563 109 c 256,4,5
 662 109 662 109 749.5 152 c 128,-1,6
 837 195 837 195 882.5 307.5 c 128,-1,7
 928 420 928 420 928 535 c 256,8,9
 928 649 928 649 885 756.5 c 128,-1,10
 842 864 842 864 752 912.5 c 128,-1,11
 662 961 662 961 563 961 c 256,12,13
 463 961 463 961 371 917 c 128,-1,14
 279 873 279 873 238 761 c 128,-1,15
 197 649 197 649 197 535 c 256,0,1
67 532 m 0,16,17
 69 801 69 801 205.5 942.5 c 128,-1,18
 342 1084 342 1084 566 1085 c 0,19,20
 799 1085 799 1085 928.5 936.5 c 128,-1,21
 1058 788 1058 788 1061 547 c 0,22,23
 1066 272 1066 272 937 130 c 128,-1,24
 808 -12 808 -12 566 -12 c 0,25,26
 305 -11 305 -11 186 144 c 128,-1,27
 67 299 67 299 67 532 c 0,16,17
EndSplineSet
EndChar
StartChar: p
Encoding: 112 112 84
Width: 1248
VWidth: 2045
Flags: W
HStem: -9 128<499.4 737.3> 965 119<499.4 737.3>
VStem: 162 112<911 1075> 162 119<-390 156 392.5 691.5> 957 123<392.5 691.5>
Fore
281 542 m 260,0,1
 281 657 281 657 319.5 762 c 132,-1,2
 358 867 358 867 442.5 916 c 132,-1,3
 527 965 527 965 619 965 c 260,4,5
 710 965 710 965 793.5 911.5 c 132,-1,6
 877 858 877 858 917 757.5 c 132,-1,7
 957 657 957 657 957 542 c 260,8,9
 957 427 957 427 914 319 c 132,-1,10
 871 211 871 211 790.5 165 c 132,-1,11
 710 119 710 119 619 119 c 260,12,13
 527 119 527 119 442.5 171.5 c 132,-1,14
 358 224 358 224 319.5 325.5 c 132,-1,15
 281 427 281 427 281 542 c 260,0,1
274 1075 m 5,16,-1
 162 1075 l 5,17,-1
 162 -390 l 5,18,-1
 287 -390 l 5,19,-1
 287 156 l 5,20,21
 404 -9 404 -9 631 -9 c 4,22,23
 845 -11 845 -11 963.5 145 c 132,-1,24
 1082 301 1082 301 1080 529 c 4,25,26
 1080 791 1080 791 954.5 935.5 c 132,-1,27
 829 1080 829 1080 622 1084 c 4,28,29
 485 1089 485 1089 393.5 1026.5 c 132,-1,30
 302 964 302 964 274 911 c 5,31,-1
 274 1075 l 5,16,-1
EndSplineSet
EndChar
StartChar: q
Encoding: 113 113 85
Width: 1248
VWidth: 2045
Flags: W
HStem: -9 128<506.7 744.6> 965 119<506.7 744.6>
VStem: 163 123<392.5 691.5> 957 126<-390 156> 964 119<392.5 691.5 911 1075>
Fore
964 542 m 260,0,1
 964 657 964 657 925 762 c 132,-1,2
 886 867 886 867 801.5 916 c 132,-1,3
 717 965 717 965 625 965 c 260,4,5
 534 965 534 965 450.5 911.5 c 132,-1,6
 367 858 367 858 327 757.5 c 132,-1,7
 287 657 287 657 286 542 c 260,8,9
 286 427 286 427 330 319 c 132,-1,10
 374 211 374 211 454 165 c 132,-1,11
 534 119 534 119 625 119 c 260,12,13
 717 119 717 119 801.5 171.5 c 132,-1,14
 886 224 886 224 925 325.5 c 132,-1,15
 964 427 964 427 964 542 c 260,0,1
970 1075 m 5,16,-1
 1083 1075 l 5,17,-1
 1083 -390 l 5,18,-1
 957 -390 l 5,19,-1
 957 156 l 5,20,21
 840 -9 840 -9 613 -9 c 4,22,23
 399 -11 399 -11 280.5 145 c 132,-1,24
 162 301 162 301 163 529 c 4,25,26
 163 791 163 791 289 935.5 c 132,-1,27
 415 1080 415 1080 622 1084 c 4,28,29
 759 1089 759 1089 850.5 1026.5 c 132,-1,30
 942 964 942 964 970 911 c 5,31,-1
 970 1075 l 5,16,-1
EndSplineSet
EndChar
StartChar: r
Encoding: 114 114 86
Width: 681
VWidth: 2045
Flags: W
HStem: 0 21G<133 260> 952 124<311 580.4>
VStem: 133 116<900 1062> 133 127<0 1062>
Fore
260 556 m 2,0,-1
 260 0 l 1,1,-1
 133 0 l 1,2,-1
 133 1062 l 1,3,-1
 249 1062 l 1,4,-1
 249 900 l 1,5,6
 362 1075 362 1075 532 1076 c 16,7,8
 630 1078 630 1078 709 1027 c 1,9,-1
 659 906 l 1,10,11
 566 952 566 952 518 952 c 0,12,13
 260 952 260 952 260 556 c 2,0,-1
EndSplineSet
EndChar
StartChar: s
Encoding: 115 115 87
Width: 1022
VWidth: 2045
Flags: W
HStem: -12 124<325.2 698.3> 492 129<310.3 692.6> 961 124<308.7 684.4>
VStem: 64 124<211.1 358> 93 134<710.8 888.9> 781 123<764 862.8> 813 131<201 412.9>
Fore
781 764 m 257,0,-1
 904 764 l 257,1,2
 904 868 904 868 817 973 c 128,-1,3
 730 1078 730 1078 483 1085 c 256,4,5
 325 1088 325 1088 210 1004.5 c 128,-1,6
 95 921 95 921 93 779 c 256,7,8
 91 640 91 640 193.5 569 c 128,-1,9
 296 498 296 498 521 492 c 256,10,11
 653 491 653 491 733 439.5 c 128,-1,12
 813 388 813 388 813 305 c 256,13,14
 813 225 813 225 734.5 171.5 c 128,-1,15
 656 118 656 118 515 112 c 256,16,17
 369 107 369 107 280.5 176 c 128,-1,18
 192 245 192 245 188 358 c 257,19,-1
 64 358 l 257,20,21
 64 201 64 201 175.5 99 c 128,-1,22
 287 -3 287 -3 517 -12 c 256,23,24
 686 -17 686 -17 815 77.5 c 128,-1,25
 944 172 944 172 944 325 c 256,26,27
 946 477 946 477 826 545 c 128,-1,28
 706 613 706 613 517 621 c 256,29,30
 358 627 358 627 292.5 680 c 128,-1,31
 227 733 227 733 227 807 c 256,32,33
 227 870 227 870 290.5 915.5 c 128,-1,34
 354 961 354 961 505 961 c 256,35,36
 643 961 643 961 712 900.5 c 128,-1,37
 781 840 781 840 781 764 c 257,0,-1
EndSplineSet
EndChar
StartChar: t
Encoding: 116 116 88
Width: 568
VWidth: 2045
Flags: W
HStem: -12 112<359.015 517.57> 959 101<18 168 293 497>
VStem: 168 125<149.8 959 1060 1432>
Fore
537 112 m 1,0,-1
 553 3 l 1,1,2
 482 -12 482 -12 412 -12 c 0,3,4
 314 -12 314 -12 259 22.5 c 128,-1,5
 204 57 204 57 186 122 c 128,-1,6
 168 187 168 187 168 311 c 2,7,-1
 168 959 l 1,8,-1
 18 959 l 1,9,-1
 18 1060 l 1,10,-1
 168 1060 l 1,11,-1
 168 1432 l 1,12,-1
 293 1432 l 1,13,-1
 293 1060 l 1,14,-1
 497 1060 l 1,15,-1
 497 959 l 1,16,-1
 293 959 l 1,17,-1
 293 301 l 2,18,19
 293 192 293 192 302 162.5 c 128,-1,20
 311 133 311 133 347 116.5 c 128,-1,21
 383 100 383 100 448 100 c 0,22,23
 488 103 488 103 537 112 c 1,0,-1
EndSplineSet
EndChar
StartChar: u
Encoding: 117 117 89
Width: 1137
VWidth: 2045
Flags: W
HStem: -9 142<371.5 712.1> 1064 20G<104 230 842 969>
VStem: 104 126<234.5 1084> 842 127<0 121 265.9 1084>
Fore
104 423 m 2,0,-1
 104 1084 l 1,1,-1
 230 1084 l 1,2,-1
 230 423 l 2,3,4
 230 278 230 278 319.5 205.5 c 128,-1,5
 409 133 409 133 534 133 c 0,6,7
 671 133 671 133 756.5 217 c 128,-1,8
 842 301 842 301 842 418 c 2,9,-1
 842 1084 l 1,10,-1
 969 1084 l 1,11,-1
 969 0 l 1,12,-1
 842 0 l 1,13,-1
 842 121 l 1,14,15
 782 56 782 56 731.5 23.5 c 128,-1,16
 681 -9 681 -9 537 -9 c 0,17,18
 294 -9 294 -9 199 120 c 128,-1,19
 104 249 104 249 104 423 c 2,0,-1
EndSplineSet
EndChar
StartChar: v
Encoding: 118 118 90
Width: 1022
VWidth: 2045
Flags: W
HStem: 0 21G<451 576>
VStem: 26 973<1060 1060>
Fore
451 0 m 1,0,-1
 26 1060 l 1,1,-1
 162 1060 l 1,2,-1
 518 163 l 1,3,-1
 863 1060 l 1,4,-1
 999 1060 l 1,5,-1
 576 0 l 1,6,-1
 451 0 l 1,0,-1
EndSplineSet
EndChar
StartChar: w
Encoding: 119 119 91
Width: 1477
VWidth: 2045
Flags: W
HStem: 0 21G<331 473 974 1116>
Fore
717 870 m 17,0,-1
 473 0 l 1,1,-1
 331 0 l 1,2,-1
 6 1060 l 1,3,-1
 139 1060 l 1,4,-1
 401 163 l 1,5,-1
 646 1060 l 1,6,-1
 778 1060 l 1,7,-1
 1046 163 l 1,8,-1
 1287 1060 l 1,9,-1
 1409 1060 l 1,10,-1
 1116 0 l 1,11,-1
 974 0 l 9,12,-1
 717 870 l 17,0,-1
EndSplineSet
EndChar
StartChar: x
Encoding: 120 120 92
Width: 1022
VWidth: 2045
Flags: W
HStem: 0 21G<15 165 857 1007>
VStem: 15 992<0 0>
Fore
15 0 m 1,0,-1
 433 553 l 1,1,-1
 44 1060 l 1,2,-1
 201 1060 l 1,3,-1
 499 649 l 1,4,-1
 834 1060 l 1,5,-1
 980 1060 l 1,6,-1
 567 562 l 1,7,-1
 1007 0 l 1,8,-1
 857 0 l 1,9,-1
 505 465 l 1,10,-1
 165 0 l 1,11,-1
 15 0 l 1,0,-1
EndSplineSet
EndChar
StartChar: y
Encoding: 121 121 93
Width: 1022
VWidth: 2045
Flags: W
VStem: 34 971<1060 1060>
Fore
127 -408 m 0,0,-1
 113 -293 l 1,1,2
 165 -307 165 -307 213 -308 c 0,3,4
 287 -308 287 -308 364.5 -258 c 128,-1,5
 442 -208 442 -208 444 -60 c 0,6,7
 444 -27 444 -27 412 57 c 2,8,-1
 34 1060 l 1,9,-1
 174 1060 l 1,10,-1
 532 95 l 1,11,-1
 878 1060 l 1,12,-1
 1005 1060 l 1,13,-1
 592 -95 l 2,14,15
 531 -272 531 -272 437 -346 c 128,-1,16
 343 -420 343 -420 220 -423 c 0,17,18
 177 -426 177 -426 127 -408 c 0,0,-1
EndSplineSet
EndChar
StartChar: z
Encoding: 122 122 94
Width: 1022
VWidth: 2045
Flags: W
HStem: 0 118<186 979> 953 107<61 791>
Fore
40 0 m 1,0,-1
 40 118 l 1,1,-1
 791 953 l 1,2,-1
 61 953 l 1,3,-1
 61 1060 l 1,4,-1
 947 1060 l 1,5,-1
 947 953 l 1,6,-1
 186 118 l 1,7,-1
 979 118 l 1,8,-1
 979 0 l 1,9,-1
 40 0 l 1,0,-1
EndSplineSet
EndChar
StartChar: braceleft
Encoding: 123 123 95
Width: 681
VWidth: 2045
Flags: W
HStem: -430 119<452.758 634> 449 163<58 152.9> 1371 119<448.106 634>
VStem: 259.924 118.076<-210.333 117.937> 264 114<-206.125 297.6 773.4 1281.45>
Fore
58 612 m 1,0,1
 131 613 131 613 183 654 c 0,2,3
 232 693 232 693 247 761 c 0,4,5
 262 825 262 825 264 997 c 0,6,7
 265 1180 265 1180 270 1217 c 0,8,9
 277 1299 277 1299 303 1353 c 0,10,11
 326 1399 326 1399 363 1433 c 0,12,13
 399 1465 399 1465 456 1480 c 0,14,15
 495 1491 495 1491 579 1490 c 2,16,-1
 634 1490 l 1,17,-1
 634 1371 l 1,18,-1
 552 1371 l 2,19,20
 467 1371 467 1371 416 1319 c 0,21,22
 378 1279 378 1279 378 1128 c 0,23,24
 378 864 378 864 369 798 c 0,25,26
 351 693 351 693 306 633 c 0,27,28
 262 574 262 574 171 530 c 1,29,30
 282 483 282 483 329 390 c 0,31,32
 378 296 378 296 378 80 c 0,33,34
 378 -124 378 -124 384 -151 c 0,35,36
 399 -255 399 -255 425 -276 c 0,37,38
 467 -311 467 -311 552 -311 c 2,39,-1
 634 -311 l 1,40,-1
 634 -430 l 1,41,-1
 579 -430 l 2,42,43
 485 -430 485 -430 438 -414 c 0,44,45
 375 -393 375 -393 332 -340 c 0,46,47
 290 -290 290 -290 277 -210 c 0,48,49
 265 -139 265 -139 264 48 c 0,50,51
 262 240 262 240 247 298 c 0,52,53
 229 367 229 367 183 408 c 0,54,55
 134 447 134 447 58 449 c 1,56,-1
 58 612 l 1,0,1
EndSplineSet
EndChar
StartChar: bar
Encoding: 124 124 96
Width: 454
VWidth: 2045
Flags: W
VStem: 172 104<-430 1489>
Fore
172 -430 m 5,0,-1
 172 1489 l 5,1,-1
 276 1489 l 5,2,-1
 276 -430 l 5,3,-1
 172 -430 l 5,0,-1
EndSplineSet
EndChar
StartChar: braceright
Encoding: 125 125 97
Width: 681
VWidth: 2045
Flags: W
HStem: -430 119<49 232.963> 449 163<529.2 628> 1371 119<49 236.625>
VStem: 305 116<-195.1 297.6 773.4 1298.87>
Fore
628 612 m 1,0,1
 552 614 552 614 503 654 c 0,2,3
 454 693 454 693 438 761 c 0,4,5
 424 825 424 825 421 997 c 0,6,7
 418 1180 418 1180 415 1217 c 0,8,9
 407 1299 407 1299 381 1353 c 0,10,11
 358 1399 358 1399 320 1433 c 0,12,13
 287 1465 287 1465 229 1480 c 0,14,15
 189 1491 189 1491 105 1490 c 2,16,-1
 49 1490 l 1,17,-1
 49 1371 l 1,18,-1
 134 1371 l 2,19,20
 218 1371 218 1371 268 1319 c 0,21,22
 305 1279 305 1279 305 1128 c 0,23,24
 305 864 305 864 317 798 c 0,25,26
 332 693 332 693 378 633 c 0,27,28
 422 574 422 574 514 530 c 1,29,30
 402 483 402 483 354 390 c 0,31,32
 305 296 305 296 305 80 c 0,33,34
 305 -124 305 -124 302 -151 c 0,35,36
 284 -255 284 -255 259 -276 c 0,37,38
 218 -311 218 -311 134 -311 c 2,39,-1
 49 -311 l 1,40,-1
 49 -430 l 1,41,-1
 105 -430 l 2,42,43
 201 -430 201 -430 247 -414 c 0,44,45
 308 -393 308 -393 354 -340 c 0,46,47
 395 -290 395 -290 407 -210 c 0,48,49
 418 -139 418 -139 421 48 c 0,50,51
 424 240 424 240 438 298 c 0,52,53
 454 367 454 367 503 408 c 0,54,55
 550 447 550 447 628 449 c 1,56,-1
 628 612 l 1,0,1
EndSplineSet
EndChar
StartChar: asciitilde
Encoding: 126 126 98
Width: 1350
VWidth: 2045
Flags: W
HStem: 559 136<861.27 1015.3> 692 136<346.5 532.4>
VStem: 171 1021<556 831>
Fore
171 556 m 5,0,-1
 171 710 l 5,1,2
 277 828 277 828 448 828 c 4,3,4
 509 828 509 828 573 811 c 4,5,6
 625 798 625 798 762 742 c 4,7,8
 832 713 832 713 866 704 c 4,9,10
 899 695 899 695 936 695 c 4,11,12
 997 695 997 695 1069 734 c 4,13,14
 1139 773 1139 773 1192 831 c 5,15,-1
 1192 674 l 5,16,17
 1129 615 1129 615 1063 586 c 4,18,19
 999 559 999 559 916 559 c 4,20,21
 854 559 854 559 802 572 c 4,22,23
 753 585 753 585 630 640 c 4,24,25
 509 692 509 692 431 692 c 4,26,27
 366 692 366 692 311 666 c 4,28,29
 255 637 255 637 171 556 c 5,0,-1
EndSplineSet
EndChar
StartChar: exclamdown
Encoding: 161 161 100
Width: 705
VWidth: 2045
Flags: W
HStem: 0 21G<250 421> 1058 20G<277 390> 1278 211<238 442>
VStem: 238 204<1278 1489> 250 171<0 213.653> 277 113<864.347 1078>
Fore
442 1278 m 1,0,-1
 238 1278 l 1,1,-1
 238 1489 l 1,2,-1
 442 1489 l 1,3,-1
 442 1278 l 1,0,-1
421 0 m 1,4,-1
 250 0 l 1,5,-1
 277 1078 l 1,6,-1
 390 1078 l 1,7,-1
 421 0 l 1,4,-1
EndSplineSet
EndChar
StartChar: cent
Encoding: 162 162 101
Width: 1178
VWidth: 2045
Flags: W
HStem: 1454 20G<564 655>
VStem: 113 140<312.9 799.1> 564 91<-361 0 109 1009 1115 1474>
Fore
655 103 m 17,0,1
 853 133 853 133 964 243 c 1,2,-1
 974 243 l 1,3,-1
 974 83 l 1,4,5
 912 54 912 54 839 30 c 0,6,7
 762 5 762 5 655 0 c 1,8,-1
 655 -361 l 1,9,-1
 564 -361 l 1,10,-1
 564 3 l 1,11,12
 342 29 342 29 227 172 c 0,13,14
 113 314 113 314 113 556 c 0,15,16
 113 794 113 794 232 942 c 0,17,18
 349 1091 349 1091 564 1115 c 1,19,-1
 564 1474 l 1,20,-1
 655 1474 l 1,21,-1
 655 1115 l 1,22,23
 763 1112 763 1112 837 1091 c 0,24,25
 918 1066 918 1066 974 1036 c 1,26,-1
 974 875 l 1,27,-1
 964 875 l 1,28,29
 919 933 919 933 820 976 c 0,30,31
 744 1009 744 1009 655 1015 c 1,32,-1
 655 103 l 17,0,1
564 109 m 1,33,-1
 564 1009 l 1,34,35
 409 988 409 988 332 865 c 0,36,37
 253 743 253 743 253 556 c 128,-1,38
 253 369 253 369 328 257 c 0,39,40
 401 145 401 145 564 109 c 1,33,-1
EndSplineSet
EndChar
StartChar: sterling
Encoding: 163 163 102
Width: 1115
VWidth: 2045
Flags: W
HStem: 0 171<261 1031> 613 138<130 290 482 846> 1350 166<567.4 814.219>
VStem: 290 192<432 613 751 1198>
Fore
1031 0 m 1,0,-1
 88 0 l 1,1,-1
 88 207 l 1,2,3
 198 240 198 240 245 335 c 0,4,5
 290 429 290 429 290 613 c 1,6,-1
 130 613 l 1,7,-1
 130 751 l 1,8,-1
 290 751 l 1,9,-1
 290 1071 l 2,10,11
 290 1272 290 1272 406 1394 c 0,12,13
 521 1516 521 1516 707 1516 c 0,14,15
 805 1516 805 1516 872 1501 c 0,16,17
 921 1491 921 1491 1000 1470 c 1,18,-1
 1000 1263 l 1,19,-1
 991 1263 l 1,20,21
 928 1305 928 1305 861 1328 c 0,22,23
 790 1350 790 1350 726 1350 c 0,24,25
 604 1350 604 1350 543 1273 c 0,26,27
 482 1198 482 1198 482 1051 c 2,28,-1
 482 751 l 1,29,-1
 846 751 l 1,30,-1
 846 613 l 1,31,-1
 482 613 l 1,32,-1
 482 553 l 2,33,34
 482 432 482 432 424 340 c 0,35,36
 367 245 367 245 261 181 c 1,37,-1
 261 171 l 1,38,-1
 1031 171 l 1,39,-1
 1031 0 l 1,0,-1
EndSplineSet
EndChar
StartChar: currency
Encoding: 164 164 103
Width: 1115
VWidth: 2045
Flags: W
HStem: 326 138<483.523 644.955> 858 139<492.359 635.755>
VStem: 226 141<583.433 739.081> 750 145<582.953 744.635>
Fore
1055 272 m 1,0,-1
 950 166 l 1,1,-1
 736 378 l 1,2,3
 695 353 695 353 653 338 c 0,4,5
 613 326 613 326 560 326 c 0,6,7
 512 326 512 326 467 341 c 0,8,9
 424 356 424 356 384 379 c 1,10,-1
 171 163 l 1,11,-1
 64 272 l 1,12,-1
 277 486 l 1,13,14
 255 521 255 521 238 571 c 0,15,16
 226 625 226 625 226 662 c 0,17,18
 226 701 226 701 238 749 c 0,19,20
 253 794 253 794 277 834 c 1,21,-1
 64 1051 l 1,22,-1
 171 1157 l 1,23,-1
 386 942 l 1,24,25
 427 970 427 970 470 982 c 0,26,27
 515 995 515 995 560 997 c 0,28,29
 613 997 613 997 657 979 c 0,30,31
 701 965 701 965 735 946 c 1,32,-1
 947 1157 l 1,33,-1
 1055 1051 l 1,34,-1
 842 837 l 1,35,36
 869 793 869 793 882 753 c 128,-1,37
 895 713 895 713 895 662 c 0,38,39
 895 616 895 616 881 569 c 0,40,41
 866 526 866 526 842 486 c 1,42,-1
 1055 272 l 1,0,-1
750 662 m 0,43,44
 750 740 750 740 695 801 c 0,45,46
 637 858 637 858 560 858 c 0,47,48
 482 858 482 858 425 801 c 0,49,50
 367 743 367 743 367 662 c 0,51,52
 367 583 367 583 424 523 c 0,53,54
 482 464 482 464 560 464 c 0,55,56
 637 464 637 464 692 523 c 0,57,58
 750 578 750 578 750 662 c 0,43,44
EndSplineSet
EndChar
StartChar: yen
Encoding: 165 165 104
Width: 1115
VWidth: 2045
Flags: W
HStem: 0 21G<463 653> 440 137<125 463 653 991>
VStem: 467 183<0 440 577 657>
Fore
1058 1489 m 1,0,-1
 650 677 l 1,1,-1
 650 577 l 1,2,-1
 991 577 l 1,3,-1
 991 440 l 1,4,-1
 653 440 l 1,5,-1
 653 0 l 1,6,-1
 463 0 l 1,7,-1
 463 440 l 1,8,-1
 125 440 l 1,9,-1
 125 577 l 1,10,-1
 467 577 l 1,11,-1
 467 657 l 1,12,-1
 55 1489 l 1,13,-1
 265 1489 l 1,14,-1
 560 849 l 1,15,-1
 857 1489 l 1,16,-1
 1058 1489 l 1,0,-1
EndSplineSet
EndChar
StartChar: brokenbar
Encoding: 166 166 105
Width: 780
VWidth: 2045
Flags: W
VStem: 308 168<-393 405 758 1556>
Fore
476 758 m 1,0,-1
 308 758 l 1,1,-1
 308 1556 l 1,2,-1
 476 1556 l 1,3,-1
 476 758 l 1,0,-1
476 -393 m 1,4,-1
 308 -393 l 1,5,-1
 308 405 l 1,6,-1
 476 405 l 1,7,-1
 476 -393 l 1,4,-1
EndSplineSet
EndChar
StartChar: section
Encoding: 167 167 106
Width: 1115
VWidth: 2045
Flags: W
HStem: -385 165<393.485 646.3> 1353 165<460.1 727.199>
VStem: 119 189<474 637.679> 148 192<1102.2 1289.4> 774 194<-103.9 36.0443> 810 188<480.6 631.182>
Fore
759 402 m 0,0,1
 784 438 784 438 796 468 c 0,2,3
 810 498 810 498 810 556 c 0,4,5
 810 604 810 604 796 640 c 0,6,7
 779 677 779 677 755.5 698.5 c 128,-1,8
 732 720 732 720 698 737 c 0,9,10
 671 752 671 752 625 766 c 0,11,12
 579 779 579 779 549 788 c 2,13,-1
 450 819 l 1,14,15
 430 807 430 807 409 788 c 0,16,17
 384 769 384 769 360 737 c 0,18,19
 342 713 342 713 323 668 c 0,20,21
 308 622 308 622 308 578 c 0,22,23
 308 498 308 498 345 450 c 0,24,25
 381 402 381 402 491 369 c 2,26,-1
 570 346 l 1,27,-1
 666 314 l 1,28,29
 683 326 683 326 710 347 c 0,30,31
 735 369 735 369 759 402 c 0,0,1
183 -133 m 1,32,33
 189 -136 189 -136 245 -162 c 0,34,35
 273 -174 273 -174 320 -190 c 0,36,37
 369 -205 369 -205 409 -211 c 0,38,39
 442 -221 442 -221 509 -220 c 0,40,41
 619 -220 619 -220 698 -174 c 0,42,43
 774 -124 774 -124 774 -36 c 0,44,45
 774 18 774 18 756 51 c 0,46,47
 736 86 736 86 698 112 c 0,48,49
 656 136 656 136 593 154 c 2,50,-1
 460 192 l 2,51,52
 370 218 370 218 314 243 c 0,53,54
 256 267 256 267 207 311 c 0,55,56
 165 350 165 350 140 408 c 0,57,58
 119 461 119 461 119 532 c 0,59,60
 119 627 119 627 168 711 c 0,61,62
 218 798 218 798 317 858 c 1,63,-1
 317 864 l 1,64,65
 229 914 229 914 188 985 c 0,66,67
 148 1056 148 1056 148 1146 c 0,68,69
 148 1314 148 1314 276 1417 c 0,70,71
 402 1519 402 1519 628 1518 c 0,72,73
 713 1518 713 1518 784 1504 c 0,74,75
 866 1489 866 1489 945 1462 c 1,76,-1
 945 1267 l 1,77,-1
 936 1267 l 1,78,79
 845 1313 845 1313 767 1334 c 0,80,81
 692 1353 692 1353 607 1353 c 0,82,83
 494 1353 494 1353 418 1310 c 0,84,85
 340 1263 340 1263 340 1175 c 0,86,87
 340 1119 340 1119 360 1081 c 0,88,89
 381 1045 381 1045 419 1024 c 0,90,91
 457 1001 457 1001 518 980 c 0,92,93
 576 964 576 964 656 942 c 0,94,95
 837 894 837 894 919 813 c 0,96,97
 997 734 997 734 998 601 c 0,98,99
 998 492 998 492 942 411 c 0,100,101
 887 329 887 329 799 278 c 1,102,-1
 799 269 l 1,103,104
 886 224 886 224 927 154 c 0,105,106
 968 83 968 83 968 -9 c 0,107,108
 968 -82 968 -82 936 -154 c 0,109,110
 903 -228 903 -228 848 -275 c 0,111,112
 784 -329 784 -329 698 -356 c 0,113,114
 610 -385 610 -385 489 -385 c 0,115,116
 412 -385 412 -385 332 -372 c 0,117,118
 259 -359 259 -359 171 -326 c 1,119,-1
 171 -133 l 1,120,-1
 183 -133 l 1,32,33
EndSplineSet
EndChar
StartChar: dieresis
Encoding: 168 168 107
Width: 1115
VWidth: 2045
Flags: W
HStem: 1303 195<253 454 665 866>
VStem: 253 201<1303 1498> 665 201<1303 1498>
Fore
866 1303 m 1,0,-1
 665 1303 l 1,1,-1
 665 1498 l 1,2,-1
 866 1498 l 1,3,-1
 866 1303 l 1,0,-1
454 1303 m 1,4,-1
 253 1303 l 1,5,-1
 253 1498 l 1,6,-1
 454 1498 l 1,7,-1
 454 1303 l 1,4,-1
EndSplineSet
EndChar
StartChar: copyright
Encoding: 169 169 108
Width: 1898
VWidth: 2045
Flags: W
HStem: -210 110<550.6 1351.4> 180 146<818.6 1092.5> 995 147<823.8 1079.9> 1408 111<546.7 1355.3>
VStem: 85 118<246.5 1064.2> 531 184<449.4 886.2> 1698 116<246.5 1064.2>
Fore
1814 656 m 0,0,1
 1814 295 1814 295 1561 44 c 0,2,3
 1310 -210 1310 -210 950 -210 c 0,4,5
 592 -210 592 -210 340 44 c 0,6,7
 85 295 85 295 85 656 c 0,8,9
 85 1012 85 1012 340 1266 c 0,10,11
 592 1519 592 1519 950 1519 c 128,-1,12
 1308 1519 1308 1519 1561 1266 c 0,13,14
 1814 1012 1814 1012 1814 656 c 0,0,1
1698 656 m 0,15,16
 1698 970 1698 970 1480 1187 c 0,17,18
 1262 1408 1262 1408 951 1408 c 128,-1,19
 640 1408 640 1408 421 1187 c 0,20,21
 203 970 203 970 203 656 c 0,22,23
 203 341 203 341 421 121 c 0,24,25
 643 -100 643 -100 951 -100 c 128,-1,26
 1259 -100 1259 -100 1480 121 c 0,27,28
 1698 341 1698 341 1698 656 c 0,15,16
1273 255 m 1,29,30
 1214 230 1214 230 1139 202 c 0,31,32
 1067 180 1067 180 982 180 c 0,33,34
 771 180 771 180 651 304 c 0,35,36
 531 426 531 426 531 660 c 0,37,38
 531 888 531 888 656 1015 c 0,39,40
 779 1142 779 1142 982 1142 c 0,41,42
 1064 1142 1064 1142 1139.5 1121 c 128,-1,43
 1215 1100 1215 1100 1273 1069 c 1,44,-1
 1273 888 l 1,45,-1
 1256 888 l 1,46,47
 1214 926 1214 926 1137 961 c 0,48,49
 1058 995 1058 995 985 995 c 0,50,51
 861 995 861 995 790 914 c 0,52,53
 715 834 715 834 715 660 c 0,54,55
 715 498 715 498 785 411 c 0,56,57
 857 326 857 326 985 326 c 0,58,59
 1069 326 1069 326 1143 364 c 0,60,61
 1220 399 1220 399 1256 433 c 1,62,-1
 1273 433 l 1,63,-1
 1273 255 l 1,29,30
EndSplineSet
EndChar
StartChar: ordfeminine
Encoding: 170 170 109
Width: 1007
VWidth: 2045
Flags: W
HStem: 541 154<348.2 514.687> 1029.92 133.077<392.671 707.527> 1365 154<378 594.533>
VStem: 113 172<750.2 937.4> 707 166<565 657 802 1045 1184 1258.64>
Fore
873 565 m 1,0,-1
 707 565 l 1,1,-1
 707 657 l 1,2,-1
 656 618 l 2,3,4
 620 592 620 592 593 580 c 0,5,6
 552 562 552 562 514 553 c 0,7,8
 477 541 477 541 402 541 c 0,9,10
 281 541 281 541 197 624 c 0,11,12
 113 708 113 708 113 840 c 0,13,14
 113 942 113 942 157 1007 c 0,15,16
 201 1075 201 1075 281 1112 c 0,17,18
 354 1148 354 1148 470 1163 c 0,19,20
 582 1178 582 1178 707 1184 c 1,21,-1
 707 1202 l 2,22,23
 707 1252 707 1252 692 1287 c 0,24,25
 674 1319 674 1319 643 1337 c 0,26,27
 613 1353 613 1353 570 1359 c 0,28,29
 524 1365 524 1365 482 1365 c 0,30,31
 402 1365 402 1365 323 1341 c 0,32,33
 249 1320 249 1320 204 1303 c 1,34,-1
 189 1303 l 1,35,-1
 189 1474 l 1,36,37
 220 1483 220 1483 320 1501 c 0,38,39
 407 1519 407 1519 482 1519 c 0,40,41
 675 1519 675 1519 773 1441 c 0,42,43
 872 1365 872 1365 873 1193 c 2,44,-1
 873 565 l 1,0,-1
707 802 m 1,45,-1
 707 1045 l 1,46,-1
 556 1033 l 2,47,48
 476 1027 476 1027 419 1009 c 0,49,50
 361 994 361 994 323 955 c 0,51,52
 287 917 287 917 285 849 c 0,53,54
 285 773 285 773 329 734 c 0,55,56
 374 695 374 695 460 695 c 0,57,58
 535 695 535 695 598 728 c 0,59,60
 662 764 662 764 707 802 c 1,45,-1
EndSplineSet
EndChar
StartChar: guillemotleft
Encoding: 171 171 110
Width: 1170
VWidth: 2045
Flags: W
HStem: 162 980<613 613>
VStem: 104 939<190 607>
Fore
1043 190 m 1,0,-1
 555 610 l 1,1,-1
 555 695 l 1,2,-1
 1043 1112 l 1,3,-1
 1043 924 l 1,4,-1
 726 652 l 1,5,-1
 1043 379 l 1,6,-1
 1043 190 l 1,0,-1
613 162 m 1,7,-1
 104 607 l 1,8,-1
 104 698 l 1,9,-1
 613 1142 l 1,10,-1
 613 946 l 1,11,-1
 282 652 l 1,12,-1
 613 358 l 1,13,-1
 613 162 l 1,7,-1
EndSplineSet
EndChar
StartChar: logicalnot
Encoding: 172 172 111
Width: 1486
VWidth: 2045
Flags: W
HStem: 601 160<157 1151>
VStem: 1151 171<57 601>
Fore
1322 57 m 1,0,-1
 1151 57 l 1,1,-1
 1151 601 l 1,2,-1
 157 601 l 1,3,-1
 157 761 l 1,4,-1
 1322 761 l 1,5,-1
 1322 57 l 1,0,-1
EndSplineSet
EndChar
StartChar: registered
Encoding: 174 174 113
Width: 1898
VWidth: 2045
Flags: W
HStem: -210 110<550.6 1351.4> 569 126<814 936> 1004 126<814 1031.36> 1408 111<546.7 1355.3>
VStem: 85 118<246.5 1064.2> 649 165<214 569 695 1004> 1119 183<793.732 929.399> 1698 116<246.5 1064.2>
Fore
1814 656 m 0,0,1
 1814 295 1814 295 1561 44 c 0,2,3
 1310 -210 1310 -210 950 -210 c 0,4,5
 592 -210 592 -210 340 44 c 0,6,7
 85 295 85 295 85 656 c 0,8,9
 85 1012 85 1012 340 1266 c 0,10,11
 592 1519 592 1519 950 1519 c 128,-1,12
 1308 1519 1308 1519 1561 1266 c 0,13,14
 1814 1012 1814 1012 1814 656 c 0,0,1
1698 656 m 0,15,16
 1698 970 1698 970 1480 1187 c 0,17,18
 1262 1408 1262 1408 951 1408 c 128,-1,19
 640 1408 640 1408 421 1187 c 0,20,21
 203 970 203 970 203 656 c 0,22,23
 203 341 203 341 421 121 c 0,24,25
 643 -100 643 -100 951 -100 c 128,-1,26
 1259 -100 1259 -100 1480 121 c 0,27,28
 1698 341 1698 341 1698 656 c 0,15,16
1447 214 m 1,29,-1
 1220 214 l 1,30,-1
 936 569 l 1,31,-1
 814 569 l 1,32,-1
 814 214 l 1,33,-1
 649 214 l 1,34,-1
 649 1130 l 1,35,-1
 927 1130 l 2,36,37
 1024 1130 1024 1130 1076 1122 c 0,38,39
 1131 1115 1131 1115 1186 1084 c 0,40,41
 1247 1048 1247 1048 1275 1001 c 0,42,43
 1300 955 1300 955 1302 879 c 0,44,45
 1302 776 1302 776 1244 714 c 0,46,47
 1192 651 1192 651 1101 615 c 1,48,-1
 1447 214 l 1,29,-1
1119 867 m 0,49,50
 1119 905 1119 905 1107 932 c 0,51,52
 1095 958 1095 958 1064 977 c 0,53,54
 1040 994 1040 994 1009 1000 c 0,55,56
 976 1004 976 1004 930 1004 c 2,57,-1
 814 1004 l 1,58,-1
 814 695 l 1,59,-1
 912 695 l 2,60,61
 960 695 960 695 1002 705 c 0,62,63
 1043 714 1043 714 1070 737 c 0,64,65
 1098 761 1098 761 1107 791 c 0,66,67
 1119 822 1119 822 1119 867 c 0,49,50
EndSplineSet
EndChar
StartChar: macron
Encoding: 175 175 114
Width: 1115
VWidth: 2045
Flags: W
HStem: 1658 130<-15 1133>
Fore
1133 1658 m 1,0,-1
 -15 1658 l 1,1,-1
 -15 1788 l 1,2,-1
 1133 1788 l 1,3,-1
 1133 1658 l 1,0,-1
EndSplineSet
EndChar
StartChar: degree
Encoding: 176 176 115
Width: 961
VWidth: 2045
Flags: W
HStem: 755 151<361.1 604.2> 1362 151<357.2 604.2>
VStem: 101 157<1006.6 1260.1> 704 159<1010.5 1260.1>
Fore
863 1134 m 0,0,1
 863 976 863 976 753 865.5 c 128,-1,2
 643 755 643 755 482 755 c 0,3,4
 323 755 323 755 212 864 c 128,-1,5
 101 973 101 973 101 1134 c 0,6,7
 101 1294 101 1294 210 1405 c 0,8,9
 320 1513 320 1513 481.5 1513 c 128,-1,10
 643 1513 643 1513 753 1405 c 0,11,12
 863 1294 863 1294 863 1134 c 0,0,1
704 1134 m 0,13,14
 704 1231 704 1231 640 1296.5 c 128,-1,15
 576 1362 576 1362 482 1362 c 0,16,17
 386 1362 386 1362 322 1296.5 c 128,-1,18
 258 1231 258 1231 258 1134 c 0,19,20
 258 1036 258 1036 323 973 c 0,21,22
 389 906 389 906 482 906 c 0,23,24
 576 906 576 906 640 973 c 0,25,26
 704 1039 704 1039 704 1134 c 0,13,14
EndSplineSet
EndChar
StartChar: plusminus
Encoding: 177 177 116
Width: 1486
VWidth: 2045
Flags: W
HStem: 159 158<162 662 828 1326> 739 158<162 662 828 1326>
VStem: 662 166<317 739 897 1402>
Fore
1326 159 m 1,0,-1
 162 159 l 1,1,-1
 162 317 l 1,2,-1
 662 317 l 1,3,-1
 662 739 l 1,4,-1
 162 739 l 1,5,-1
 162 897 l 1,6,-1
 662 897 l 1,7,-1
 662 1402 l 1,8,-1
 828 1402 l 1,9,-1
 828 897 l 1,10,-1
 1326 897 l 1,11,-1
 1326 739 l 1,12,-1
 828 739 l 1,13,-1
 828 317 l 1,14,-1
 1326 317 l 1,15,-1
 1326 159 l 1,0,-1
EndSplineSet
EndChar
StartChar: uni00B2
Encoding: 178 178 117
Width: 1007
VWidth: 2045
Flags: W
HStem: 565 145<372 866> 1371 148<369.368 553.2>
VStem: 619 183<1128.5 1314.4>
Fore
866 565 m 1,0,-1
 184 565 l 1,1,-1
 184 717 l 1,2,-1
 332 831 l 2,3,4
 402 885 402 885 447 929 c 0,5,6
 552 1030 552 1030 585 1088 c 0,7,8
 619 1145 619 1145 619 1226 c 0,9,10
 619 1294 619 1294 576 1334 c 0,11,12
 531 1371 531 1371 457 1371 c 0,13,14
 387 1371 387 1371 317 1341 c 128,-1,15
 247 1311 247 1311 206 1278 c 1,16,-1
 191 1278 l 1,17,-1
 191 1458 l 1,18,19
 256 1486 256 1486 329 1501 c 0,20,21
 409 1519 409 1519 480 1519 c 0,22,23
 637 1519 637 1519 720 1439 c 0,24,25
 803 1362 803 1362 802 1239 c 0,26,27
 802 1154 802 1154 762 1075 c 0,28,29
 726 998 726 998 616 900 c 0,30,31
 573 861 573 861 495 802 c 2,32,-1
 372 710 l 1,33,-1
 866 710 l 1,34,-1
 866 565 l 1,0,-1
EndSplineSet
EndChar
StartChar: uni00B3
Encoding: 179 179 118
Width: 1007
VWidth: 2045
Flags: W
HStem: 541 139<368.6 580.5> 967 139<334 546> 1381 139<385.9 586.1>
VStem: 640 174<1166.6 1326> 665 171<735.7 918.45>
Fore
836 828 m 0,0,1
 836 757 836 757 806 701 c 0,2,3
 776 643 776 643 729 610 c 0,4,5
 677 575 677 575 613 559 c 0,6,7
 555 541 555 541 473.5 541 c 128,-1,8
 392 541 392 541 320 556 c 0,9,10
 245 572 245 572 183 600 c 1,11,-1
 183 775 l 1,12,-1
 201 775 l 1,13,14
 238 740 238 740 314 710 c 0,15,16
 392 680 392 680 470 680 c 0,17,18
 555 680 555 680 610 717 c 128,-1,19
 665 754 665 754 665 825.5 c 128,-1,20
 665 897 665 897 622 933 c 0,21,22
 576 967 576 967 473 967 c 2,23,-1
 334 967 l 1,24,-1
 334 1106 l 1,25,-1
 459 1106 l 2,26,27
 546 1106 546 1106 593 1145 c 0,28,29
 640 1183 640 1183 640 1248 c 0,30,31
 640 1308 640 1308 599 1344 c 0,32,33
 560 1381 560 1381 473 1381 c 0,34,35
 406 1381 406 1381 329 1349 c 0,36,37
 255 1319 255 1319 216 1282 c 1,38,-1
 198 1282 l 1,39,-1
 198 1458 l 1,40,41
 270 1486 270 1486 338 1501 c 0,42,43
 415 1519 415 1519 491 1520 c 0,44,45
 643 1520 643 1520 729 1448 c 0,46,47
 814 1378 814 1378 814 1281 c 0,48,49
 814 1193 814 1193 765 1137 c 0,50,51
 713 1078 713 1078 640 1054 c 1,52,-1
 640 1047 l 1,53,54
 723 1030 723 1030 778 976 c 0,55,56
 836 923 836 923 836 828 c 0,0,1
EndSplineSet
EndChar
StartChar: acute
Encoding: 180 180 119
Width: 1115
VWidth: 2045
Flags: W
HStem: 1302 373<598 869>
VStem: 448 421<1302 1675>
Fore
869 1675 m 1,0,-1
 598 1302 l 1,1,-1
 448 1302 l 1,2,-1
 628 1675 l 1,3,-1
 869 1675 l 1,0,-1
EndSplineSet
EndChar
StartChar: mu
Encoding: 181 181 120
Width: 1160
VWidth: 2045
Flags: W
HStem: -18 181<465.5 693>
VStem: 136 188<-411 115 275 1116> 839 186<275 1116> 854 171<0 116>
Fore
1025 0 m 1,0,-1
 854 0 l 1,1,-1
 854 116 l 1,2,-1
 848 116 l 1,3,4
 787 51 787 51 727 18 c 0,5,6
 668 -18 668 -18 576 -18 c 0,7,8
 485 -18 485 -18 433 18 c 0,9,10
 380 53 380 53 324 115 c 1,11,-1
 324 -411 l 1,12,-1
 136 -411 l 1,13,-1
 136 1116 l 1,14,-1
 324 1116 l 1,15,-1
 324 275 l 1,16,17
 367 225 367 225 428 193 c 0,18,19
 491 163 491 163 576 163 c 0,20,21
 666 163 666 163 729 193 c 0,22,23
 790 224 790 224 839 275 c 1,24,-1
 839 1116 l 1,25,-1
 1025 1116 l 1,26,-1
 1025 0 l 1,0,-1
EndSplineSet
EndChar
StartChar: paragraph
Encoding: 182 182 121
Width: 1115
VWidth: 2045
Flags: W
HStem: 1359 130<654 842>
VStem: 515 139<-362 592> 842 138<-362 1359>
Fore
980 -362 m 1,0,-1
 842 -362 l 1,1,-1
 842 1359 l 1,2,-1
 654 1359 l 1,3,-1
 654 -362 l 1,4,-1
 515 -362 l 1,5,-1
 515 592 l 1,6,7
 308 598 308 598 183 722 c 128,-1,8
 58 846 58 846 58 1050 c 0,9,10
 58 1257 58 1257 186 1371 c 0,11,12
 317 1489 317 1489 560 1489 c 2,13,-1
 980 1489 l 1,14,-1
 980 -362 l 1,0,-1
EndSplineSet
EndChar
StartChar: periodcentered
Encoding: 183 183 122
Width: 722
VWidth: 2045
Flags: W
HStem: 831 285<242 482>
VStem: 242 240<831 1116>
Fore
482 831 m 1,0,-1
 242 831 l 1,1,-1
 242 1116 l 1,2,-1
 482 1116 l 1,3,-1
 482 831 l 1,0,-1
EndSplineSet
EndChar
StartChar: cedilla
Encoding: 184 184 123
Width: 1115
VWidth: 2045
Flags: W
HStem: -423 151<356.15 562.5>
VStem: 610 155<-102.602 15.1272> 613 158<-218.8 -8.19973>
Fore
765 20 m 1,0,1
 768 2 768 2 768 -26 c 0,2,3
 771 -53 771 -53 771 -89 c 0,4,5
 771 -252 771 -252 686 -337 c 0,6,7
 598 -423 598 -423 467 -423 c 0,8,9
 428 -423 428 -423 378.5 -417 c 128,-1,10
 329 -411 329 -411 290 -399 c 1,11,-1
 290 -239 l 1,12,-1
 299 -239 l 1,13,14
 323 -251 323 -251 360 -263 c 0,15,16
 401 -272 401 -272 439 -272 c 0,17,18
 534 -272 534 -272 573 -234 c 0,19,20
 613 -193 613 -193 613 -107 c 0,21,22
 613 -79 613 -79 613 -50 c 0,23,24
 610 -17 610 -17 610 20 c 1,25,-1
 765 20 l 1,0,1
EndSplineSet
EndChar
StartChar: uni0E01
Encoding: 3585 3585 124
Width: 1248
VWidth: 2045
Flags: W
HStem: 0 21G<250 363 985 1098> 764 112<239 250 363 476> 1142 112<468.8 737.9>
VStem: 250 113<0 764> 985 113<0 897.9>
Fore
363 0 m 17,0,-1
 250 0 l 9,1,-1
 250 764 l 9,2,-1
 110 764 l 1,3,4
 110 897 110 897 176 1009 c 128,-1,5
 242 1121 242 1121 356 1187.5 c 128,-1,6
 470 1254 470 1254 604 1254 c 256,7,8
 738 1254 738 1254 851.5 1187.5 c 128,-1,9
 965 1121 965 1121 1031.5 1009 c 128,-1,10
 1098 897 1098 897 1098 764 c 2,11,-1
 1098 0 l 1,12,-1
 985 0 l 1,13,-1
 985 764 l 2,14,15
 985 867 985 867 934 953 c 128,-1,16
 883 1039 883 1039 795 1090.5 c 128,-1,17
 707 1142 707 1142 604 1142 c 256,18,19
 500 1142 500 1142 411.5 1090.5 c 128,-1,20
 323 1039 323 1039 288 977 c 128,-1,21
 253 915 253 915 239 876 c 9,22,-1
 476 876 l 1,23,-1
 476 764 l 1,24,-1
 363 764 l 17,25,-1
 363 0 l 17,0,-1
EndSplineSet
EndChar
StartChar: uni0E02
Encoding: 3586 3586 125
Width: 1173
VWidth: 2045
Flags: W
HStem: 0 112<348 460 573 912> 749 112<253.5 344.5> 1142 112<347.371 518.6>
VStem: 102 111<900.65 990.35> 383 114<900.65 990.35> 462 111<112 651.4> 610 114<812.1 1051.3> 912 113<112 1254>
Fore
351 1133 m 1,0,1
 401 1121 401 1121 439 1081 c 0,2,3
 497 1024 497 1024 497 944 c 128,-1,4
 497 864 497 864 439 806.5 c 128,-1,5
 381 749 381 749 299.5 749 c 128,-1,6
 218 749 218 749 160 806.5 c 128,-1,7
 102 864 102 864 102 944 c 0,8,9
 102 1072 102 1072 193 1163 c 128,-1,10
 284 1254 284 1254 412.5 1254 c 128,-1,11
 541 1254 541 1254 632.5 1163 c 128,-1,12
 724 1072 724 1072 724 942 c 0,13,14
 724 816 724 816 648.5 716 c 128,-1,15
 573 616 573 616 573 498 c 2,16,-1
 573 112 l 17,17,-1
 912 112 l 25,18,-1
 912 1254 l 1,19,-1
 1025 1254 l 1,20,-1
 1025 0 l 9,21,-1
 348 0 l 1,22,-1
 348 112 l 1,23,-1
 460 112 l 25,24,-1
 462 498 l 2,25,26
 463 649 463 649 536.5 746 c 152,-1,27
 610 843 610 843 610 946 c 0,28,29
 610 1027 610 1027 552 1084.5 c 128,-1,30
 494 1142 494 1142 412 1142 c 0,31,32
 381 1142 381 1142 351 1133 c 1,0,1
213 945.5 m 128,-1,34
 213 911 213 911 238.5 886 c 128,-1,35
 264 861 264 861 299 861 c 128,-1,36
 334 861 334 861 358.5 886 c 128,-1,37
 383 911 383 911 383 945.5 c 128,-1,38
 383 980 383 980 358.5 1005 c 128,-1,39
 334 1030 334 1030 299 1030 c 128,-1,40
 264 1030 264 1030 238.5 1005 c 128,-1,33
 213 980 213 980 213 945.5 c 128,-1,34
EndSplineSet
EndChar
StartChar: uni0E03
Encoding: 3587 3587 126
Width: 1248
VWidth: 2045
Flags: W
HStem: 0 112<421 534 647 985> 633 113<279.5 370.5> 914 110<279.5 370.5>
VStem: 85 154<783.5 922.5> 409 112.5<783.5 874.5> 534 113<112 651.4> 690.576 113.424<824.8 1043.2> 985 113<112 1254>
Fore
804 947 m 140,-1,1
 803 825 803 825 724.5 720.5 c 132,-1,2
 646 616 646 616 647 498 c 6,3,-1
 647 112 l 1,4,-1
 985 112 l 1,5,-1
 985 1254 l 25,6,-1
 1098 1254 l 17,7,-1
 1098 0 l 1,8,-1
 421 0 l 1,9,-1
 421 112 l 1,10,-1
 534 112 l 1,11,-1
 534 498 l 6,12,13
 534 649 534 649 611.5 749.5 c 156,-1,14
 689 850 689 850 690.5 934 c 148,-1,15
 692 1018 692 1018 664 1067 c 132,-1,16
 636 1116 636 1116 613 1124 c 5,17,-1
 476 1039 l 5,18,-1
 326 1130 l 21,19,20
 300 1124 300 1124 256 1081 c 132,-1,21
 212 1038 212 1038 198 976 c 5,22,23
 271 1024 271 1024 325 1024 c 4,24,25
 406 1024 406 1024 463.5 966.5 c 132,-1,26
 521 909 521 909 521.5 828.5 c 132,-1,27
 522 748 522 748 464 690.5 c 132,-1,28
 406 633 406 633 325 633 c 4,29,30
 224 633 224 633 154.5 706 c 132,-1,31
 85 779 85 779 85 922.5 c 132,-1,32
 85 1066 85 1066 169 1149 c 132,-1,33
 253 1232 253 1232 340 1254 c 5,34,-1
 476 1171 l 5,35,-1
 610 1254 l 5,36,37
 665 1234 665 1234 735 1151.5 c 132,-1,0
 805 1069 805 1069 804 947 c 140,-1,1
239 829 m 132,-1,39
 239 794 239 794 264.5 770 c 132,-1,40
 290 746 290 746 325 746 c 132,-1,41
 360 746 360 746 384.5 770 c 132,-1,42
 409 794 409 794 409 829 c 132,-1,43
 409 864 409 864 384.5 889 c 132,-1,44
 360 914 360 914 325 914 c 132,-1,45
 290 914 290 914 264.5 889 c 132,-1,38
 239 864 239 864 239 829 c 132,-1,39
EndSplineSet
EndChar
StartChar: uni0E04
Encoding: 3588 3588 127
Width: 1301
VWidth: 2045
Flags: W
HStem: 0 21G<171 284 1018 1131> 547 115<602.5 693.5> 828 111<602.5 693.5> 1142 112<522.3 779.7>
VStem: 171 113<290 906> 733 112<699.65 789.35> 1018 113<0 906>
Fore
1018 776 m 6,0,1
 1018 876 1018 876 969.5 960 c 132,-1,2
 921 1044 921 1044 835.5 1093 c 132,-1,3
 750 1142 750 1142 651 1142 c 132,-1,4
 552 1142 552 1142 466.5 1093 c 132,-1,5
 381 1044 381 1044 332.5 960 c 132,-1,6
 284 876 284 876 284 776 c 6,7,-1
 284 290 l 21,8,-1
 463 816 l 22,9,10
 476 849 476 849 509 882 c 4,11,12
 567 939 567 939 648 939 c 132,-1,13
 729 939 729 939 787 882 c 132,-1,14
 845 825 845 825 845 743.5 c 132,-1,15
 845 662 845 662 787 604.5 c 132,-1,16
 729 547 729 547 648 547 c 132,-1,17
 567 547 567 547 509 604 c 4,18,19
 503 610 503 610 499 615 c 13,20,-1
 284 0 l 13,21,-1
 171 0 l 21,22,-1
 171 776 l 6,23,24
 171 906 171 906 235 1015.5 c 132,-1,25
 299 1125 299 1125 410 1189.5 c 132,-1,26
 521 1254 521 1254 651 1254 c 132,-1,27
 781 1254 781 1254 892 1189.5 c 132,-1,28
 1003 1125 1003 1125 1067 1015.5 c 132,-1,29
 1131 906 1131 906 1131 776 c 6,30,-1
 1131 0 l 5,31,-1
 1018 0 l 5,32,-1
 1018 776 l 6,0,1
564 744.5 m 132,-1,34
 564 710 564 710 588.5 686 c 132,-1,35
 613 662 613 662 648 662 c 132,-1,36
 683 662 683 662 708 686 c 132,-1,37
 733 710 733 710 733 744.5 c 132,-1,38
 733 779 733 779 708 803.5 c 132,-1,39
 683 828 683 828 648 828 c 132,-1,40
 613 828 613 828 588.5 803.5 c 132,-1,33
 564 779 564 779 564 744.5 c 132,-1,34
EndSplineSet
EndChar
StartChar: uni0E05
Encoding: 3589 3589 128
Width: 1301
VWidth: 2045
Flags: W
HStem: 0 21G<175 288 1018 1131> 526 111<606.5 697.5> 807 108<606.5 697.5>
VStem: 175 113<290 1024> 736 113<676.5 767.5> 1018 113<0 1051.8>
Fore
288 290 m 21,0,-1
 467 791 l 22,1,2
 478 826 478 826 512 858 c 4,3,4
 570 915 570 915 651.5 915 c 132,-1,5
 733 915 733 915 791 858 c 132,-1,6
 849 801 849 801 849 720.5 c 132,-1,7
 849 640 849 640 791 583 c 132,-1,8
 733 526 733 526 651.5 526 c 132,-1,9
 570 526 570 526 512 583 c 4,10,11
 507 588 507 588 501 592 c 13,12,-1
 288 0 l 5,13,-1
 175 0 l 13,14,-1
 175 927 l 6,15,16
 175 1069 175 1069 272 1166 c 4,17,18
 338 1231 338 1231 419 1254 c 13,19,-1
 653 1103 l 5,20,-1
 885 1254 l 21,21,22
 967 1231 967 1231 1031 1166 c 4,23,24
 1131 1069 1131 1069 1131 927 c 6,25,-1
 1131 0 l 5,26,-1
 1018 0 l 5,27,-1
 1018 927 l 6,28,29
 1018 1023 1018 1023 952 1088 c 4,30,31
 925 1115 925 1115 896 1130 c 13,32,-1
 653 973 l 5,33,-1
 409 1130 l 21,34,35
 379 1115 379 1115 352 1088 c 4,36,37
 287 1024 287 1024 288 927 c 6,38,-1
 288 290 l 21,0,-1
568 722 m 132,-1,40
 568 687 568 687 592.5 662 c 132,-1,41
 617 637 617 637 652 637 c 132,-1,42
 687 637 687 637 711.5 662 c 132,-1,43
 736 687 736 687 736 722 c 132,-1,44
 736 757 736 757 711.5 782 c 132,-1,45
 687 807 687 807 652 807 c 132,-1,46
 617 807 617 807 592.5 782 c 132,-1,39
 568 757 568 757 568 722 c 132,-1,40
EndSplineSet
EndChar
StartChar: uni0E06
Encoding: 3590 3590 129
Width: 1519
VWidth: 2045
Flags: W
HStem: 0 113<451.5 542.5> 281 110<451.5 542.5> 633 113<327.35 419.65> 914 110<327.35 419.65>
VStem: 134 154<783.5 922.5> 300 112<152.5 243.5> 457 113<783.5 874.5> 582 113<152.5 218 373 651.4> 739.5 113.5<824.8 1043.2> 1235 113<112 1254>
Fore
288 829 m 132,-1,1
 288 794 288 794 313 770 c 132,-1,2
 338 746 338 746 373.5 746 c 132,-1,3
 409 746 409 746 433 770 c 132,-1,4
 457 794 457 794 457 829 c 132,-1,5
 457 864 457 864 433 889 c 132,-1,6
 409 914 409 914 373.5 914 c 132,-1,7
 338 914 338 914 313 889 c 132,-1,0
 288 864 288 864 288 829 c 132,-1,1
582 498 m 6,8,9
 582 649 582 649 660 749.5 c 156,-1,10
 738 850 738 850 739.5 934 c 148,-1,11
 741 1018 741 1018 713 1067 c 132,-1,12
 685 1116 685 1116 662 1124 c 5,13,-1
 524 1039 l 5,14,-1
 375 1130 l 21,15,16
 349 1124 349 1124 305 1081 c 132,-1,17
 261 1038 261 1038 247 976 c 5,18,19
 320 1024 320 1024 374 1024 c 4,20,21
 454 1024 454 1024 512 966.5 c 132,-1,22
 570 909 570 909 570 828.5 c 132,-1,23
 570 748 570 748 512 690.5 c 132,-1,24
 454 633 454 633 374 633 c 4,25,26
 273 633 273 633 203.5 706 c 132,-1,27
 134 779 134 779 134 922.5 c 132,-1,28
 134 1066 134 1066 218 1149 c 132,-1,29
 302 1232 302 1232 389 1254 c 5,30,-1
 524 1171 l 5,31,-1
 659 1254 l 5,32,33
 713 1234 713 1234 783.5 1151.5 c 132,-1,34
 854 1069 854 1069 853 947 c 140,-1,35
 852 825 852 825 773.5 720.5 c 132,-1,36
 695 616 695 616 695 498 c 6,37,-1
 695 329 l 29,38,-1
 1235 112 l 13,39,-1
 1235 1254 l 5,40,-1
 1348 1254 l 5,41,-1
 1348 0 l 5,42,-1
 1235 0 l 5,43,-1
 695 218 l 21,44,45
 695 205 695 205 695 196 c 4,46,47
 695 115 695 115 637 57.5 c 132,-1,48
 579 0 579 0 497.5 0 c 132,-1,49
 416 0 416 0 358 57.5 c 132,-1,50
 300 115 300 115 300 195.5 c 132,-1,51
 300 276 300 276 358 333.5 c 132,-1,52
 416 391 416 391 497 391 c 4,53,54
 543 391 543 391 582 373 c 13,55,-1
 582 498 l 6,8,9
412 198 m 132,-1,57
 412 163 412 163 437 138 c 132,-1,58
 462 113 462 113 497 113 c 132,-1,59
 532 113 532 113 557 138 c 132,-1,60
 582 163 582 163 582 198 c 132,-1,61
 582 233 582 233 557 257 c 132,-1,62
 532 281 532 281 497 281 c 132,-1,63
 462 281 462 281 437 257 c 132,-1,56
 412 233 412 233 412 198 c 132,-1,57
EndSplineSet
EndChar
StartChar: uni0E07
Encoding: 3591 3591 130
Width: 977
VWidth: 2045
Flags: W
HStem: 0 21G<690 803> 861 112<561.5 652.5> 1142 112<561.5 652.5>
VStem: 408 113<1012.65 1102.35> 690 113<160 879 1012.65 1102.35>
Fore
690 879 m 4,0,-1
 690 160 l 13,1,-1
 166 704 l 5,2,-1
 84 625 l 5,3,-1
 690 0 l 21,4,-1
 803 0 l 5,5,-1
 803 1057 l 6,6,7
 803 1139 803 1139 745 1196.5 c 132,-1,8
 687 1254 687 1254 605.5 1254 c 132,-1,9
 524 1254 524 1254 466 1196.5 c 132,-1,10
 408 1139 408 1139 408 1057.5 c 132,-1,11
 408 976 408 976 466 918.5 c 132,-1,12
 524 861 524 861 605 861 c 4,13,14
 651 861 651 861 690 879 c 4,0,-1
521 1057.5 m 132,-1,16
 521 1092 521 1092 546.5 1117 c 132,-1,17
 572 1142 572 1142 607 1142 c 132,-1,18
 642 1142 642 1142 666 1117 c 132,-1,19
 690 1092 690 1092 690 1057.5 c 132,-1,20
 690 1023 690 1023 666 998 c 132,-1,21
 642 973 642 973 607 973 c 132,-1,22
 572 973 572 973 546.5 998 c 132,-1,15
 521 1023 521 1023 521 1057.5 c 132,-1,16
EndSplineSet
EndChar
StartChar: uni0E08
Encoding: 3592 3592 131
Width: 1202
VWidth: 2045
Flags: W
HStem: 0 21G<801 914> 523 111.49<523.35 615.65> 801 111.5<523.35 615.65> 1142 112<432.8 703.2>
VStem: 74 113<764 897.9> 373 111<672.65 762.35> 949 113<668.725 897.9>
Fore
74 764 m 21,0,1
 74 894 74 894 140.5 1007.5 c 132,-1,2
 207 1121 207 1121 320.5 1187.5 c 156,-1,3
 434 1254 434 1254 568 1254 c 260,4,5
 702 1254 702 1254 815.5 1187.5 c 132,-1,6
 929 1121 929 1121 995.5 1007.5 c 132,-1,7
 1062 894 1062 894 1062 764 c 20,8,9
 1062 713 1062 713 1051 665 c 14,10,-1
 914 0 l 5,11,-1
 801 0 l 5,12,-1
 688 562 l 21,13,14
 637 523 637 523 570 523 c 4,15,16
 489 523 489 523 431 580 c 132,-1,17
 373 637 373 637 373 717.5 c 132,-1,18
 373 798 373 798 431 855 c 132,-1,19
 489 912 489 912 569.5 912.5 c 132,-1,20
 650 913 650 913 708 855 c 4,21,22
 751 813 751 813 763 755 c 6,23,-1
 859 281 l 29,24,-1
 943 686 l 6,25,26
 949 714 949 714 949 764 c 12,27,28
 949 867 949 867 898 953 c 132,-1,29
 847 1039 847 1039 759.5 1090.5 c 132,-1,30
 672 1142 672 1142 568 1142 c 260,31,32
 464 1142 464 1142 376.5 1090.5 c 156,-1,33
 289 1039 289 1039 238 953 c 132,-1,34
 187 867 187 867 187 764 c 13,35,-1
 74 764 l 21,0,1
484 717.5 m 132,-1,37
 484 683 484 683 509 658.5 c 132,-1,38
 534 634 534 634 569.5 634.5 c 132,-1,39
 605 635 605 635 629 659 c 132,-1,40
 653 683 653 683 653 717.5 c 132,-1,41
 653 752 653 752 629 776.5 c 132,-1,42
 605 801 605 801 569.5 801 c 132,-1,43
 534 801 534 801 509 776.5 c 132,-1,36
 484 752 484 752 484 717.5 c 132,-1,37
EndSplineSet
EndChar
StartChar: uni0E09
Encoding: 3593 3593 132
Width: 1293
VWidth: 2045
Flags: W
HStem: 0 113<998.5 1089.5> 396 112<327.35 419.65> 674 112<327.35 419.65> 1142 112<471.1 741.5>
VStem: 175 113<545.65 635.35> 457 113<127 414 545.65 635.35> 988 113<384 897.9> 1128 115<152.5 243.5>
Fore
130 896 m 17,0,1
 146 956 146 956 178 1010 c 0,2,3
 244 1121 244 1121 357.5 1187.5 c 128,-1,4
 471 1254 471 1254 605 1254 c 280,5,6
 741 1254 741 1254 854.5 1187.5 c 128,-1,7
 968 1121 968 1121 1034.5 1007.5 c 128,-1,8
 1101 894 1101 894 1101 764 c 2,9,-1
 1101 384 l 17,10,11
 1148 370 1148 370 1195.5 323 c 128,-1,12
 1243 276 1243 276 1243 195.5 c 128,-1,13
 1243 115 1243 115 1185 57.5 c 128,-1,14
 1127 0 1127 0 1045.5 0 c 128,-1,15
 964 0 964 0 906 57 c 0,16,17
 851 112 851 112 848 184 c 0,18,-1
 570 0 l 1,19,-1
 457 0 l 1,20,-1
 457 414 l 17,21,22
 419 396 419 396 372 396 c 0,23,24
 291 396 291 396 233 453.5 c 128,-1,25
 175 511 175 511 175 591 c 128,-1,26
 175 671 175 671 233 728 c 128,-1,27
 291 785 291 785 372 786 c 0,28,29
 456 786 456 786 512 728 c 0,30,31
 570 669 570 669 570 591 c 2,32,-1
 570 127 l 0,33,-1
 951 375 l 2,34,35
 967 384 967 384 988 384 c 9,36,-1
 988 764 l 2,37,38
 988 867 988 867 937 953 c 128,-1,39
 886 1039 886 1039 798 1090.5 c 128,-1,40
 710 1142 710 1142 605 1142 c 280,41,42
 502 1142 502 1142 414 1090.5 c 128,-1,43
 326 1039 326 1039 276 955 c 0,44,45
 250 911 250 911 238 864 c 9,46,-1
 130 896 l 17,0,1
288 590.5 m 128,-1,48
 288 556 288 556 313 532 c 128,-1,49
 338 508 338 508 373.5 508 c 128,-1,50
 409 508 409 508 433 532 c 128,-1,51
 457 556 457 556 457 590.5 c 128,-1,52
 457 625 457 625 433 649.5 c 128,-1,53
 409 674 409 674 373.5 674 c 128,-1,54
 338 674 338 674 313 649.5 c 128,-1,47
 288 625 288 625 288 590.5 c 128,-1,48
960 198 m 128,-1,56
 960 163 960 163 984.5 138 c 128,-1,57
 1009 113 1009 113 1044 113 c 128,-1,58
 1079 113 1079 113 1103.5 138 c 128,-1,59
 1128 163 1128 163 1128 198 c 128,-1,60
 1128 233 1128 233 1103.5 257 c 128,-1,61
 1079 281 1079 281 1044 281 c 128,-1,62
 1009 281 1009 281 984.5 257 c 128,-1,55
 960 233 960 233 960 198 c 128,-1,56
EndSplineSet
EndChar
StartChar: uni0E0A
Encoding: 3594 3594 133
Width: 1192
VWidth: 2045
Flags: W
HStem: 0 112<348 460 573 912> 749 112<253.5 344.5> 1142 112<347.371 518.6>
VStem: 102 111<900.65 990.35> 383 114<900.65 990.35> 460 113<112 668> 610 114<839.55 1051.45> 912 113<112 895.5> 1025 112<1340.3 1447>
Fore
933 1018 m 5,0,1
 947 1006 947 1006 959 994 c 4,2,3
 1024 929 1024 929 1025 837 c 6,4,-1
 1025 0 l 1,5,-1
 348 0 l 1,6,-1
 348 112 l 1,7,-1
 460 112 l 1,8,-1
 462 589 l 2,9,10
 462 713 462 713 552 805 c 0,11,12
 610 864 610 864 610 945.5 c 128,-1,13
 610 1027 610 1027 552 1084.5 c 128,-1,14
 494 1142 494 1142 412 1142 c 0,15,16
 381 1142 381 1142 351 1133 c 1,17,18
 401 1121 401 1121 439 1081 c 0,19,20
 497 1024 497 1024 497 944 c 128,-1,21
 497 864 497 864 439 806.5 c 128,-1,22
 381 749 381 749 299.5 749 c 128,-1,23
 218 749 218 749 160 806.5 c 128,-1,24
 102 864 102 864 102 944 c 0,25,26
 102 1072 102 1072 193 1163 c 128,-1,27
 284 1254 284 1254 412.5 1254 c 128,-1,28
 541 1254 541 1254 632.5 1163 c 128,-1,29
 724 1072 724 1072 724 946 c 0,30,31
 724 816 724 816 633 725 c 0,32,33
 573 668 573 668 573 589 c 2,34,-1
 573 112 l 1,35,-1
 912 112 l 1,36,-1
 912 837 l 6,37,38
 912 882 912 882 880 915 c 4,39,40
 846 949 846 949 799 949 c 5,41,-1
 799 1060 l 5,42,43
 903 1121 903 1121 963.5 1223.5 c 132,-1,44
 1024 1326 1024 1326 1025 1447 c 13,45,-1
 1137 1447 l 21,46,47
 1137 1371 1137 1371 1117.5 1298.5 c 132,-1,48
 1098 1226 1098 1226 1061 1165 c 132,-1,49
 1024 1104 1024 1104 973 1053 c 4,50,51
 953 1033 953 1033 933 1018 c 5,0,1
213 945.5 m 128,-1,53
 213 911 213 911 238.5 886 c 128,-1,54
 264 861 264 861 299 861 c 128,-1,55
 334 861 334 861 358.5 886 c 128,-1,56
 383 911 383 911 383 945.5 c 128,-1,57
 383 980 383 980 358.5 1005 c 128,-1,58
 334 1030 334 1030 299 1030 c 128,-1,59
 264 1030 264 1030 238.5 1005 c 128,-1,52
 213 980 213 980 213 945.5 c 128,-1,53
EndSplineSet
EndChar
StartChar: uni0E0B
Encoding: 3595 3595 134
Width: 1192
VWidth: 2045
Flags: W
HStem: 0 112<363 476 589 927> 633 113<221.5 312.5> 914 110<221.5 312.5>
VStem: 29 154<783.5 927> 351 114<783.5 874.5> 476 113<112 643> 646 110<821.8 1066.2> 927 113<112 895.5> 1040 113<1340.3 1447>
Fore
1040 837 m 2,0,-1
 1040 0 l 1,1,-1
 363 0 l 1,2,-1
 363 112 l 1,3,-1
 476 112 l 1,4,-1
 476 548 l 2,5,6
 476 686 476 686 576 782 c 0,7,8
 646 850 646 850 646 944 c 128,-1,9
 646 1038 646 1038 579 1104 c 0,10,11
 567 1115 567 1115 555 1124 c 1,12,-1
 418 1039 l 1,13,-1
 268 1130 l 17,14,15
 235 1115 235 1115 207 1086 c 0,16,17
 162 1042 162 1042 148 985 c 1,18,19
 200 1024 200 1024 268 1024 c 0,20,21
 349 1024 349 1024 407 966.5 c 128,-1,22
 465 909 465 909 465 828.5 c 128,-1,23
 465 748 465 748 407 690.5 c 128,-1,24
 349 633 349 633 267.5 633 c 128,-1,25
 186 633 186 633 128 690 c 0,26,27
 29 788 29 788 29 927 c 128,-1,28
 29 1066 29 1066 128 1165 c 0,29,30
 195 1232 195 1232 284 1254 c 1,31,-1
 418 1171 l 1,32,-1
 552 1254 l 1,33,34
 610 1229 610 1229 656 1183 c 0,35,36
 756 1084 756 1084 756 945.5 c 128,-1,37
 756 807 756 807 656 707 c 0,38,39
 588 643 588 643 589 548 c 2,40,-1
 589 112 l 1,41,-1
 927 112 l 1,42,-1
 927 837 l 2,43,44
 927 882 927 882 895 915 c 0,45,46
 861 949 861 949 814 949 c 1,47,-1
 814 1060 l 1,48,49
 918 1121 918 1121 979 1223.5 c 128,-1,50
 1040 1326 1040 1326 1040 1447 c 9,51,-1
 1153 1447 l 17,52,53
 1153 1371 1153 1371 1133 1298.5 c 128,-1,54
 1113 1226 1113 1226 1076.5 1165 c 128,-1,55
 1040 1104 1040 1104 988 1053 c 0,56,57
 968 1033 968 1033 948 1018 c 1,58,59
 962 1006 962 1006 974 994 c 0,60,61
 1040 927 1040 927 1040 837 c 2,0,-1
183 829 m 128,-1,63
 183 794 183 794 207.5 770 c 128,-1,64
 232 746 232 746 267 746 c 128,-1,65
 302 746 302 746 326.5 770 c 128,-1,66
 351 794 351 794 351 829 c 128,-1,67
 351 864 351 864 326.5 889 c 128,-1,68
 302 914 302 914 267 914 c 128,-1,69
 232 914 232 914 207.5 889 c 128,-1,62
 183 864 183 864 183 829 c 128,-1,63
EndSplineSet
EndChar
StartChar: uni0E0C
Encoding: 3596 3596 135
Width: 1863
VWidth: 2045
Flags: W
HStem: 0 112<402.5 493.5 913.5 1004.5> 279 112<402.5 493.5 913.5 992.911> 764 112<239 250 363 476> 1142 112<468.8 737.9>
VStem: 250 113<149.5 240.5 373 764> 534 112.5<149.5 240.5> 761 113<149.5 240.5> 985 113<390 897.9> 1564 113<124 1254>
Fore
1564 0 m 5,0,-1
 1677 0 l 13,1,-1
 1677 1254 l 13,2,-1
 1564 1254 l 21,3,-1
 1564 124 l 29,4,-1
 1098 349 l 9,5,-1
 1098 764 l 2,6,7
 1098 897 1098 897 1031.5 1009 c 128,-1,8
 965 1121 965 1121 851.5 1187.5 c 128,-1,9
 738 1254 738 1254 604 1254 c 256,10,11
 470 1254 470 1254 356 1187.5 c 128,-1,12
 242 1121 242 1121 176 1009 c 128,-1,13
 110 897 110 897 110 764 c 1,14,-1
 250 764 l 17,15,-1
 250 196 l 18,16,17
 250 115 250 115 308 57.5 c 128,-1,18
 366 0 366 0 448.5 0 c 128,-1,19
 531 0 531 0 588.5 57.5 c 128,-1,20
 646 115 646 115 646.5 195.5 c 128,-1,21
 647 276 647 276 589 333.5 c 128,-1,22
 531 391 531 391 448 391 c 0,23,24
 402 391 402 391 363 373 c 9,25,-1
 363 764 l 9,26,-1
 476 764 l 1,27,-1
 476 876 l 1,28,-1
 239 876 l 17,29,30
 253 915 253 915 288 977 c 128,-1,31
 323 1039 323 1039 411.5 1090.5 c 128,-1,32
 500 1142 500 1142 604 1142 c 256,33,34
 707 1142 707 1142 795 1090.5 c 128,-1,35
 883 1039 883 1039 934 953 c 128,-1,36
 985 867 985 867 985 764 c 2,37,-1
 985 390 l 17,38,39
 973 391 973 391 957 391 c 0,40,41
 877 391 877 391 819 333.5 c 128,-1,42
 761 276 761 276 761 195.5 c 128,-1,43
 761 115 761 115 819 57.5 c 128,-1,44
 877 0 877 0 958.5 0 c 128,-1,45
 1040 0 1040 0 1098 56 c 128,-1,46
 1156 112 1156 112 1156 199 c 9,47,-1
 1564 0 l 5,0,-1
874 195 m 128,-1,49
 874 230 874 230 899 254.5 c 128,-1,50
 924 279 924 279 959 279 c 128,-1,51
 994 279 994 279 1018.5 254.5 c 128,-1,52
 1043 230 1043 230 1043 195 c 128,-1,53
 1043 160 1043 160 1018.5 136 c 128,-1,54
 994 112 994 112 959 112 c 128,-1,55
 924 112 924 112 899 136 c 128,-1,48
 874 160 874 160 874 195 c 128,-1,49
363 195 m 128,-1,57
 363 230 363 230 388 254.5 c 128,-1,58
 413 279 413 279 448 279 c 128,-1,59
 483 279 483 279 508.5 254.5 c 128,-1,60
 534 230 534 230 534 195 c 128,-1,61
 534 160 534 160 508.5 136 c 128,-1,62
 483 112 483 112 448 112 c 128,-1,63
 413 112 413 112 388 136 c 128,-1,56
 363 160 363 160 363 195 c 128,-1,57
EndSplineSet
EndChar
StartChar: uni0E0D
Encoding: 3597 3597 136
Width: 1864
VWidth: 2045
Flags: W
HStem: -548 149<1060.5 1226> -231 112<1060.5 1151.5> 0 112<403.5 494.5 1098 1565> 279 112<403.5 494.5> 764 112<240 251 364 476> 1142 112<470.1 739.2>
VStem: 251 113<149.5 240.5 373 764> 534 113<149.5 240.5> 909 113<-360.35 -270.65> 985 113<112 897.9> 1191 115<-360.35 -270.65> 1565 113<-258.3 -101 112 1254>
Fore
1678 -101 m 17,0,1
 1678 -222 1678 -222 1617 -324.5 c 128,-1,2
 1556 -427 1556 -427 1452 -487.5 c 128,-1,3
 1348 -548 1348 -548 1226 -548 c 0,4,5
 1074 -548 1074 -548 991.5 -482.5 c 128,-1,6
 909 -417 909 -417 909 -325.5 c 128,-1,7
 909 -234 909 -234 967 -176.5 c 128,-1,8
 1025 -119 1025 -119 1106.5 -119 c 128,-1,9
 1188 -119 1188 -119 1247 -179 c 128,-1,10
 1306 -239 1306 -239 1306 -323 c 0,11,12
 1308 -394 1308 -394 1232 -450 c 1,13,14
 1363 -440 1363 -440 1464 -340 c 128,-1,15
 1565 -240 1565 -240 1565 -101 c 9,16,-1
 1678 -101 l 17,0,1
1022 -315.5 m 128,-1,18
 1022 -350 1022 -350 1046.5 -374.5 c 128,-1,19
 1071 -399 1071 -399 1106 -399 c 128,-1,20
 1141 -399 1141 -399 1166 -374.5 c 128,-1,21
 1191 -350 1191 -350 1191 -315.5 c 128,-1,22
 1191 -281 1191 -281 1166 -256 c 128,-1,23
 1141 -231 1141 -231 1106 -231 c 128,-1,24
 1071 -231 1071 -231 1046.5 -256 c 128,-1,17
 1022 -281 1022 -281 1022 -315.5 c 128,-1,18
1678 0 m 17,25,-1
 985 0 l 1,26,-1
 985 764 l 2,27,28
 985 867 985 867 934 953 c 128,-1,29
 883 1039 883 1039 795.5 1090.5 c 128,-1,30
 708 1142 708 1142 604 1142 c 256,31,32
 501 1142 501 1142 412.5 1090.5 c 128,-1,33
 324 1039 324 1039 289 977 c 128,-1,34
 254 915 254 915 240 876 c 1,35,-1
 476 876 l 1,36,-1
 476 764 l 1,37,-1
 364 764 l 1,38,-1
 364 373 l 1,39,40
 404 391 404 391 449 391 c 0,41,42
 531 391 531 391 589 333.5 c 128,-1,43
 647 276 647 276 647 195.5 c 128,-1,44
 647 115 647 115 589 57.5 c 128,-1,45
 531 0 531 0 448.5 0 c 128,-1,46
 366 0 366 0 308.5 57.5 c 128,-1,47
 251 115 251 115 251 196 c 2,48,-1
 251 764 l 1,49,-1
 110 764 l 1,50,51
 110 897 110 897 176.5 1009 c 128,-1,52
 243 1121 243 1121 356.5 1187.5 c 128,-1,53
 470 1254 470 1254 604 1254 c 256,54,55
 738 1254 738 1254 852 1187.5 c 128,-1,56
 966 1121 966 1121 1032 1009 c 128,-1,57
 1098 897 1098 897 1098 764 c 2,58,-1
 1098 112 l 1,59,-1
 1565 112 l 1,60,-1
 1565 1254 l 1,61,-1
 1678 1254 l 1,62,-1
 1678 0 l 17,25,-1
364 195 m 128,-1,64
 364 160 364 160 389 136 c 128,-1,65
 414 112 414 112 449 112 c 128,-1,66
 484 112 484 112 509 136 c 128,-1,67
 534 160 534 160 534 195 c 128,-1,68
 534 230 534 230 509 254.5 c 128,-1,69
 484 279 484 279 449 279 c 128,-1,70
 414 279 414 279 389 254.5 c 128,-1,63
 364 230 364 230 364 195 c 128,-1,64
EndSplineSet
Substitution2: "Single Substitution lookup 9" uni0E0D.descless
Substitution2: "Single Substitution lookup 8" uni0E0D.descless
EndChar
StartChar: uni0E0E
Encoding: 3598 3598 137
Width: 1373
VWidth: 2045
Flags: W
HStem: -541 112<603.35 695.65> -261 111<603.35 695.65> 0 112<248.5 339.5> 279 112<248.5 339.5> 764 112<338 378 491 604> 1142 112<567.8 836.9>
VStem: 96 113<149.5 240.5> 378 113<149.5 240.5 373 764> 451 113<-391.5 -300.5> 1084 113<-379 867>
AnchorPoint: "BelowBase" 1143.71 -625.338 basechar 0
Fore
790 -483 m 6,0,1
 730 -541 730 -541 649 -541 c 4,2,3
 567 -541 567 -541 509 -483.5 c 132,-1,4
 451 -426 451 -426 451 -345 c 132,-1,5
 451 -264 451 -264 509 -207 c 132,-1,6
 567 -150 567 -150 649.5 -150 c 132,-1,7
 732 -150 732 -150 790 -207 c 6,8,-1
 849 -266 l 13,9,-1
 928 -187 l 5,10,-1
 1009 -266 l 5,11,-1
 930 -344 l 29,12,-1
 1024 -438 l 13,13,-1
 1084 -379 l 13,14,-1
 1084 764 l 2,15,16
 1084 867 1084 867 1033 953 c 128,-1,17
 982 1039 982 1039 894 1090.5 c 128,-1,18
 806 1142 806 1142 703 1142 c 256,19,20
 599 1142 599 1142 510.5 1090.5 c 128,-1,21
 422 1039 422 1039 386.5 977 c 128,-1,22
 351 915 351 915 338 876 c 9,23,-1
 604 876 l 1,24,-1
 604 764 l 1,25,-1
 491 764 l 17,26,-1
 491 196 l 2,27,28
 491 115 491 115 433 57.5 c 128,-1,29
 375 0 375 0 293.5 0 c 128,-1,30
 212 0 212 0 154 57.5 c 128,-1,31
 96 115 96 115 96 195.5 c 128,-1,32
 96 276 96 276 154 333.5 c 128,-1,33
 212 391 212 391 293 391 c 0,34,35
 340 391 340 391 378 373 c 9,36,-1
 378 764 l 9,37,-1
 209 764 l 1,38,39
 209 897 209 897 275.5 1009 c 128,-1,40
 342 1121 342 1121 455.5 1187.5 c 128,-1,41
 569 1254 569 1254 703 1254 c 256,42,43
 837 1254 837 1254 950.5 1187.5 c 128,-1,44
 1064 1121 1064 1121 1130.5 1009 c 128,-1,45
 1197 897 1197 897 1197 764 c 2,46,-1
 1197 -426 l 21,47,-1
 1024 -597 l 21,48,-1
 849 -424 l 21,49,-1
 790 -483 l 6,0,1
564 -346 m 132,-1,51
 564 -381 564 -381 589 -405 c 132,-1,52
 614 -429 614 -429 649.5 -429 c 132,-1,53
 685 -429 685 -429 710 -405 c 132,-1,54
 735 -381 735 -381 735 -346 c 132,-1,55
 735 -311 735 -311 710 -286 c 132,-1,56
 685 -261 685 -261 649.5 -261 c 132,-1,57
 614 -261 614 -261 589 -286 c 132,-1,50
 564 -311 564 -311 564 -346 c 132,-1,51
209 195 m 128,-1,59
 209 160 209 160 234 136 c 128,-1,60
 259 112 259 112 294 112 c 128,-1,61
 329 112 329 112 353.5 136 c 128,-1,62
 378 160 378 160 378 195 c 128,-1,63
 378 230 378 230 353.5 254.5 c 128,-1,64
 329 279 329 279 294 279 c 128,-1,65
 259 279 259 279 234 254.5 c 128,-1,58
 209 230 209 230 209 195 c 128,-1,59
491 196 m 2,66,-1
EndSplineSet
EndChar
StartChar: uni0E0F
Encoding: 3599 3599 138
Width: 1373
VWidth: 2045
Flags: W
HStem: -571 112<361.5 452.5> -292 112<361.5 452.5> 0 112<248.5 339.5> 279 112<248.5 339.5> 764 112<338 378 491 604> 1142 112<567.8 836.9>
VStem: 96 113<149.5 240.5> 209 113<-421.5 -330.5> 378 113<149.5 240.5 373 764> 1084 113<-387 867>
AnchorPoint: "BelowBase" 1104.81 -660.698 basechar 0
Fore
607 -455 m 4,0,-1
686 -375 m 29,1,-1
 758 -447 l 5,2,-1
 890 -314 l 29,3,-1
 1024 -447 l 13,4,-1
 1084 -387 l 13,5,-1
 1084 764 l 2,6,7
 1084 867 1084 867 1033 953 c 128,-1,8
 982 1039 982 1039 894 1090.5 c 128,-1,9
 806 1142 806 1142 703 1142 c 256,10,11
 599 1142 599 1142 510.5 1090.5 c 128,-1,12
 422 1039 422 1039 386.5 977 c 128,-1,13
 351 915 351 915 338 876 c 9,14,-1
 604 876 l 1,15,-1
 604 764 l 1,16,-1
 491 764 l 17,17,-1
 491 196 l 2,18,19
 491 115 491 115 433 57.5 c 128,-1,20
 375 0 375 0 293.5 0 c 128,-1,21
 212 0 212 0 154 57.5 c 128,-1,22
 96 115 96 115 96 195.5 c 128,-1,23
 96 276 96 276 154 333.5 c 128,-1,24
 212 391 212 391 293 391 c 0,25,26
 340 391 340 391 378 373 c 9,27,-1
 378 764 l 9,28,-1
 209 764 l 1,29,30
 209 897 209 897 275.5 1009 c 128,-1,31
 342 1121 342 1121 455.5 1187.5 c 128,-1,32
 569 1254 569 1254 703 1254 c 256,33,34
 837 1254 837 1254 950.5 1187.5 c 128,-1,35
 1064 1121 1064 1121 1130.5 1009 c 128,-1,36
 1197 897 1197 897 1197 764 c 2,37,-1
 1197 -432 l 21,38,-1
 1024 -604 l 21,39,-1
 890 -473 l 29,40,-1
 758 -604 l 5,41,-1
 607 -455 l 21,42,-1
 546 -514 l 6,43,44
 488 -571 488 -571 406 -571 c 4,45,46
 325 -571 325 -571 267 -513.5 c 132,-1,47
 209 -456 209 -456 209 -375.5 c 132,-1,48
 209 -295 209 -295 267 -237.5 c 132,-1,49
 325 -180 325 -180 406.5 -180 c 132,-1,50
 488 -180 488 -180 546 -237 c 6,51,-1
 607 -296 l 13,52,-1
 686 -218 l 5,53,-1
 765 -296 l 5,54,-1
 686 -375 l 29,1,-1
322 -376 m 132,-1,56
 322 -411 322 -411 347 -435 c 132,-1,57
 372 -459 372 -459 407 -459 c 132,-1,58
 442 -459 442 -459 466.5 -435 c 132,-1,59
 491 -411 491 -411 491 -376 c 132,-1,60
 491 -341 491 -341 466.5 -316.5 c 132,-1,61
 442 -292 442 -292 407 -292 c 132,-1,62
 372 -292 372 -292 347 -316.5 c 132,-1,55
 322 -341 322 -341 322 -376 c 132,-1,56
209 195 m 128,-1,64
 209 160 209 160 234 136 c 128,-1,65
 259 112 259 112 294 112 c 128,-1,66
 329 112 329 112 353.5 136 c 128,-1,67
 378 160 378 160 378 195 c 128,-1,68
 378 230 378 230 353.5 254.5 c 128,-1,69
 329 279 329 279 294 279 c 128,-1,70
 259 279 259 279 234 254.5 c 128,-1,63
 209 230 209 230 209 195 c 128,-1,64
491 196 m 2,71,-1
EndSplineSet
EndChar
StartChar: uni0E10
Encoding: 3600 3600 139
Width: 1192
VWidth: 2045
Flags: W
HStem: -733 112<192.5 283.5> -467 112<786.5 877.5> -453 112<192.5 283.5> -187 111.504<786.5 877.5> 0 21G<707 813> 296 112<443.5 534.5> 574 112<443.5 534.5> 764 112<247 771> 1142 112<477.1 743.6>
VStem: 43 109<-581.5 -490.5> 293 113<445.5 536.5> 634 113<-315.35 -225.65> 837.667 112.333<624.827 715.7> 918 113<-548 -449 -315.35 -225.65>
Fore
918 -270.5 m 152,-1,1
 918 -236 918 -236 892.5 -211.5 c 128,-1,2
 867 -187 867 -187 832 -187 c 128,-1,3
 797 -187 797 -187 772 -211.5 c 128,-1,4
 747 -236 747 -236 747 -270.5 c 128,-1,5
 747 -305 747 -305 772 -330 c 128,-1,6
 797 -355 797 -355 832 -355 c 128,-1,7
 867 -355 867 -355 892 -331 c 24,8,0
 918 -305 918 -305 918 -270.5 c 152,-1,1
438 -616 m 0,9,-1
152 -536 m 128,-1,11
 152 -571 152 -571 177.5 -596 c 128,-1,12
 203 -621 203 -621 238 -621 c 128,-1,13
 273 -621 273 -621 298 -596 c 128,-1,14
 323 -571 323 -571 323 -536 c 128,-1,15
 323 -501 323 -501 298 -477 c 128,-1,16
 273 -453 273 -453 238 -453 c 128,-1,17
 203 -453 203 -453 177.5 -477 c 128,-1,10
 152 -501 152 -501 152 -536 c 128,-1,11
1031 -272 m 2,18,-1
 1031 -595 l 1,19,-1
 857 -766 l 17,20,-1
 723 -634 l 25,21,-1
 592 -766 l 1,22,-1
 439 -616 l 17,23,-1
 378 -675 l 2,24,25
 320 -733 320 -733 239 -733 c 0,26,27
 159 -733 159 -733 101 -675.5 c 128,-1,28
 43 -618 43 -618 43 -537 c 128,-1,29
 43 -456 43 -456 101 -398.5 c 128,-1,30
 159 -341 159 -341 239.5 -341 c 128,-1,31
 320 -341 320 -341 378 -399 c 2,32,-1
 439 -459 l 9,33,-1
 518 -379 l 1,34,-1
 598 -459 l 1,35,-1
 518 -538 l 25,36,-1
 592 -607 l 1,37,-1
 724 -476 l 25,38,-1
 857 -607 l 9,39,-1
 918 -548 l 1,40,-1
 918 -449 l 17,41,42
 878 -467 878 -467 832 -467 c 0,43,44
 750 -467 750 -467 692 -409.5 c 128,-1,45
 634 -352 634 -352 634 -271 c 128,-1,46
 634 -190 634 -190 692 -133 c 128,-1,47
 750 -76 750 -76 832.5 -75.5 c 128,-1,48
 915 -75 915 -75 973 -132.5 c 128,-1,49
 1031 -190 1031 -190 1031 -272 c 2,18,-1
944 949 m 17,50,51
 889 1044 889 1044 801 1093 c 128,-1,52
 713 1142 713 1142 611 1142 c 256,53,54
 508 1142 508 1142 420 1090.5 c 152,-1,55
 332 1039 332 1039 281 953 c 0,56,57
 259 915 259 915 247 876 c 0,58,-1
 724 876 l 2,59,60
 817 876 817 876 883.5 811 c 128,-1,61
 950 746 950 746 950 652 c 16,62,63
 950 625 950 625 945 606 c 10,64,-1
 813 0 l 1,65,-1
 707 0 l 1,66,-1
 617 338 l 17,67,68
 576 296 576 296 491 296 c 0,69,70
 410 295 410 295 351.5 353 c 128,-1,71
 293 411 293 411 293 491 c 128,-1,72
 293 571 293 571 351 628.5 c 128,-1,73
 409 686 409 686 491 686 c 128,-1,74
 573 686 573 686 631 628 c 0,75,76
 668 592 668 592 685 529 c 2,77,-1
 758 266 l 17,78,-1
 835 631 l 18,79,80
 839 634 839 634 837 652 c 8,81,82
 835 701 835 701 803 732.5 c 128,-1,83
 771 764 771 764 724 764 c 2,84,-1
 117 764 l 1,85,86
 117 894 117 894 183.5 1007.5 c 128,-1,87
 250 1121 250 1121 363 1187.5 c 152,-1,88
 476 1254 476 1254 611 1254 c 256,89,90
 746 1254 746 1254 859.5 1187.5 c 128,-1,91
 973 1121 973 1121 1040 1006 c 9,92,-1
 944 949 l 17,50,51
406 491 m 128,-1,94
 406 456 406 456 430 432 c 128,-1,95
 454 408 454 408 489 408 c 128,-1,96
 524 408 524 408 549.5 432 c 128,-1,97
 575 456 575 456 575 491 c 128,-1,98
 575 526 575 526 549.5 550 c 128,-1,99
 524 574 524 574 489 574 c 128,-1,100
 454 574 454 574 430 550 c 128,-1,93
 406 526 406 526 406 491 c 128,-1,94
EndSplineSet
Substitution2: "Single Substitution lookup 9" uni0E10.descless
Substitution2: "Single Substitution lookup 8" uni0E10.descless
EndChar
StartChar: uni0E11
Encoding: 3601 3601 140
Width: 1573
VWidth: 2045
Flags: W
HStem: 0 21G<534 647 1287 1400> 633 113<279.5 370.5> 914 110<279.5 370.5> 1142 112<1113.05 1233.95>
VStem: 85 154<783.5 922.5> 409 112.504<783.5 874.5> 534 113<308 651.4> 690.5 113.5<824.8 1043.2> 1287 113<0 1075>
Fore
239 829 m 128,-1,1
 239 794 239 794 264.5 770 c 128,-1,2
 290 746 290 746 325 746 c 128,-1,3
 360 746 360 746 384.5 770 c 128,-1,4
 409 794 409 794 409 829 c 128,-1,5
 409 864 409 864 384.5 889 c 128,-1,6
 360 914 360 914 325 914 c 128,-1,7
 290 914 290 914 264.5 889 c 128,-1,0
 239 864 239 864 239 829 c 128,-1,1
534 498 m 2,8,9
 534 649 534 649 611.5 749.5 c 152,-1,10
 689 850 689 850 690.5 934 c 144,-1,11
 692 1018 692 1018 664 1067 c 128,-1,12
 636 1116 636 1116 613 1124 c 1,13,-1
 476 1039 l 1,14,-1
 326 1130 l 17,15,16
 300 1124 300 1124 256 1081 c 128,-1,17
 212 1038 212 1038 198 976 c 1,18,19
 271 1024 271 1024 325 1024 c 0,20,21
 406 1024 406 1024 463.5 966.5 c 128,-1,22
 521 909 521 909 521.5 828.5 c 128,-1,23
 522 748 522 748 464 690.5 c 128,-1,24
 406 633 406 633 325 633 c 0,25,26
 224 633 224 633 154.5 706 c 128,-1,27
 85 779 85 779 85 922.5 c 128,-1,28
 85 1066 85 1066 169 1149 c 128,-1,29
 253 1232 253 1232 340 1254 c 1,30,-1
 476 1171 l 1,31,-1
 610 1254 l 1,32,33
 665 1234 665 1234 735 1151.5 c 128,-1,34
 805 1069 805 1069 804 947 c 136,-1,35
 803 825 803 825 726 722 c 0,36,37
 646 616 646 616 647 498 c 2,38,-1
 647 308 l 17,39,-1
 964 1115 l 2,40,41
 979 1154 979 1154 1014 1187 c 0,42,43
 1079 1254 1079 1254 1173 1254 c 152,-1,44
 1267 1254 1267 1254 1333.5 1188 c 128,-1,45
 1400 1122 1400 1122 1400 1030 c 2,46,-1
 1400 0 l 1,47,-1
 1287 0 l 1,48,-1
 1287 1027 l 18,49,50
 1287 1075 1287 1075 1253 1109 c 0,51,52
 1220 1142 1220 1142 1173.5 1142 c 152,-1,53
 1127 1142 1127 1142 1093 1109 c 0,54,55
 1076 1091 1076 1091 1067 1069 c 2,56,-1
 647 0 l 1,57,-1
 534 0 l 1,58,-1
 534 498 l 2,8,9
EndSplineSet
EndChar
StartChar: uni0E12
Encoding: 3602 3602 141
Width: 1916
VWidth: 2045
Flags: W
HStem: 0 112<949.35 1041.65> 279 112<949.35 1030.23> 820 112<596.5 687.5>
VStem: 149 113<160 1053.1> 445 113<690.65 780.35> 727 113<690.65 780.35> 799 113<149.5 240.5> 1023 113<390 1051.2> 1618 112<124 1254>
Fore
558 735.5 m 128,-1,1
 558 701 558 701 582.5 676.5 c 128,-1,2
 607 652 607 652 642 652 c 128,-1,3
 677 652 677 652 702 676.5 c 128,-1,4
 727 701 727 701 727 735.5 c 128,-1,5
 727 770 727 770 702 795 c 128,-1,6
 677 820 677 820 642 820 c 128,-1,7
 607 820 607 820 582.5 795 c 128,-1,0
 558 770 558 770 558 735.5 c 128,-1,1
1136 929 m 2,8,-1
 1136 349 l 17,9,-1
 1618 124 l 29,10,-1
 1618 1254 l 13,11,-1
 1730 1254 l 21,12,-1
 1730 0 l 21,13,-1
 1618 0 l 5,14,-1
 1194 199 l 17,15,16
 1194 112 1194 112 1136 56 c 128,-1,17
 1078 0 1078 0 996.5 0 c 128,-1,18
 915 0 915 0 857 57.5 c 128,-1,19
 799 115 799 115 799 195.5 c 128,-1,20
 799 276 799 276 857 333.5 c 128,-1,21
 915 391 915 391 997 391 c 0,22,23
 1009 391 1009 391 1023 390 c 9,24,-1
 1023 929 l 2,25,26
 1023 1023 1023 1023 957 1088 c 0,27,28
 930 1115 930 1115 901 1130 c 9,29,-1
 643 973 l 1,30,-1
 384 1130 l 17,31,32
 354 1115 354 1115 326 1088 c 0,33,34
 262 1024 262 1024 262 927 c 2,35,-1
 262 160 l 25,36,-1
 598 547 l 1,37,38
 540 559 540 559 503 598 c 0,39,40
 445 659 445 659 445 737 c 0,41,42
 445 817 445 817 503 874.5 c 128,-1,43
 561 932 561 932 642.5 932 c 128,-1,44
 724 932 724 932 782 874.5 c 128,-1,45
 840 817 840 817 840 737 c 0,46,47
 840 665 840 665 782 598 c 2,48,-1
 262 0 l 17,49,-1
 149 0 l 9,50,-1
 149 927 l 2,51,52
 149 1069 149 1069 247 1166 c 0,53,54
 313 1231 313 1231 393 1254 c 9,55,-1
 643 1103 l 1,56,-1
 890 1254 l 17,57,58
 973 1231 973 1231 1037 1166 c 0,59,60
 1136 1069 1136 1069 1136 929 c 2,8,-1
912 195 m 128,-1,62
 912 160 912 160 936 136 c 128,-1,63
 960 112 960 112 995.5 112 c 128,-1,64
 1031 112 1031 112 1056 136 c 128,-1,65
 1081 160 1081 160 1081 195 c 128,-1,66
 1081 230 1081 230 1056 254.5 c 128,-1,67
 1031 279 1031 279 995.5 279 c 128,-1,68
 960 279 960 279 936 254.5 c 128,-1,61
 912 230 912 230 912 195 c 128,-1,62
EndSplineSet
EndChar
StartChar: uni0E13
Encoding: 3603 3603 142
Width: 1898
VWidth: 2045
Flags: W
HStem: 0 112<402.5 493.5 1529.5 1620.5> 279 112<402.5 493.5> 764 112<239 250 363 476> 1142 112<468.8 737.9>
VStem: 250 113<149.5 240.5 373 764> 534 112.5<149.5 240.5> 985 113<131 897.9> 1518 113<382 1254> 1659 113<149.5 240.5>
Fore
1098 0 m 1,0,-1
 985 0 l 9,1,-1
 985 764 l 2,2,3
 985 867 985 867 934 953 c 128,-1,4
 883 1039 883 1039 795 1090.5 c 128,-1,5
 707 1142 707 1142 604 1142 c 256,6,7
 500 1142 500 1142 411.5 1090.5 c 128,-1,8
 323 1039 323 1039 288 977 c 128,-1,9
 253 915 253 915 239 876 c 9,10,-1
 476 876 l 1,11,-1
 476 764 l 1,12,-1
 363 764 l 17,13,-1
 363 373 l 17,14,15
 403 391 403 391 448 391 c 0,16,17
 531 391 531 391 588.5 333.5 c 128,-1,18
 646 276 646 276 646.5 195.5 c 128,-1,19
 647 115 647 115 589 57.5 c 128,-1,20
 531 0 531 0 448.5 0 c 128,-1,21
 366 0 366 0 308 57.5 c 128,-1,22
 250 115 250 115 250 196 c 10,23,-1
 250 764 l 9,24,-1
 110 764 l 1,25,26
 110 897 110 897 176 1009 c 128,-1,27
 242 1121 242 1121 356 1187.5 c 128,-1,28
 470 1254 470 1254 604 1254 c 256,29,30
 738 1254 738 1254 851.5 1187.5 c 128,-1,31
 965 1121 965 1121 1031.5 1009 c 128,-1,32
 1098 897 1098 897 1098 764 c 2,33,-1
 1098 131 l 25,34,-1
 1473 362 l 6,35,36
 1494 375 1494 375 1518 382 c 13,37,-1
 1518 1254 l 13,38,-1
 1631 1254 l 21,39,-1
 1631 382 l 21,40,41
 1677 369 1677 369 1714 332 c 4,42,43
 1772 276 1772 276 1772 195.5 c 132,-1,44
 1772 115 1772 115 1714 57.5 c 132,-1,45
 1656 0 1656 0 1574.5 0 c 132,-1,46
 1493 0 1493 0 1435 56 c 20,47,48
 1384 104 1384 104 1378 172 c 13,49,-1
 1098 0 l 1,0,-1
1659 195 m 132,-1,51
 1659 230 1659 230 1634.5 254.5 c 132,-1,52
 1610 279 1610 279 1575 279 c 132,-1,53
 1540 279 1540 279 1514.5 254.5 c 132,-1,54
 1489 230 1489 230 1489 195 c 132,-1,55
 1489 160 1489 160 1514.5 136 c 132,-1,56
 1540 112 1540 112 1575 112 c 132,-1,57
 1610 112 1610 112 1634.5 136 c 132,-1,50
 1659 160 1659 160 1659 195 c 132,-1,51
363 195 m 128,-1,59
 363 160 363 160 388 136 c 128,-1,60
 413 112 413 112 448 112 c 128,-1,61
 483 112 483 112 508.5 136 c 128,-1,62
 534 160 534 160 534 195 c 128,-1,63
 534 230 534 230 508.5 254.5 c 128,-1,64
 483 279 483 279 448 279 c 128,-1,65
 413 279 413 279 388 254.5 c 128,-1,58
 363 230 363 230 363 195 c 128,-1,59
EndSplineSet
EndChar
StartChar: uni0E14
Encoding: 3604 3604 143
Width: 1301
VWidth: 2045
Flags: W
HStem: 0 21G<165 278 1012 1125> 820 112<596.5 687.5> 1142 112<516.3 773.7>
VStem: 165 113<160 906> 445 113<690.65 780.35> 727 112<690.65 780.35> 1012 113<0 906>
Fore
165 776 m 6,0,1
 165 906 165 906 229 1015.5 c 132,-1,2
 293 1125 293 1125 404 1189.5 c 132,-1,3
 515 1254 515 1254 644.5 1254 c 132,-1,4
 774 1254 774 1254 885.5 1189.5 c 132,-1,5
 997 1125 997 1125 1061 1015.5 c 132,-1,6
 1125 906 1125 906 1125 776 c 6,7,-1
 1125 0 l 1,8,-1
 1012 0 l 1,9,-1
 1012 776 l 6,10,11
 1012 876 1012 876 963.5 960 c 132,-1,12
 915 1044 915 1044 829.5 1093 c 132,-1,13
 744 1142 744 1142 645 1142 c 132,-1,14
 546 1142 546 1142 460.5 1093 c 132,-1,15
 375 1044 375 1044 326 960 c 132,-1,16
 277 876 277 876 278 776 c 6,17,-1
 278 160 l 1,18,-1
 598 547 l 1,19,20
 540 559 540 559 503 598 c 0,21,22
 445 656 445 656 445 736.5 c 128,-1,23
 445 817 445 817 503 874.5 c 128,-1,24
 561 932 561 932 642 932 c 128,-1,25
 723 932 723 932 781 874.5 c 128,-1,26
 839 817 839 817 839 743 c 0,27,28
 839 668 839 668 781 598 c 2,29,-1
 278 0 l 1,30,-1
 165 0 l 1,31,-1
 165 776 l 6,0,1
558 735.5 m 128,-1,33
 558 701 558 701 582.5 676.5 c 128,-1,34
 607 652 607 652 642 652 c 128,-1,35
 677 652 677 652 702 676.5 c 128,-1,36
 727 701 727 701 727 735.5 c 128,-1,37
 727 770 727 770 702 795 c 128,-1,38
 677 820 677 820 642 820 c 128,-1,39
 607 820 607 820 582.5 795 c 128,-1,32
 558 770 558 770 558 735.5 c 128,-1,33
EndSplineSet
EndChar
StartChar: uni0E15
Encoding: 3605 3605 144
Width: 1301
VWidth: 2045
Flags: W
HStem: 0 21G<165 278 1008 1121> 820 112<596.5 687.5>
VStem: 165 113<160 1053.1> 445 113<690.65 780.35> 727 113<690.65 780.35> 1008 113<0 1051.8>
Fore
165 927 m 2,0,1
 165 1069 165 1069 262 1166 c 0,2,3
 328 1231 328 1231 409 1254 c 9,4,-1
 643 1103 l 1,5,-1
 875 1254 l 17,6,7
 957 1231 957 1231 1021 1166 c 0,8,9
 1121 1069 1121 1069 1121 927 c 2,10,-1
 1121 0 l 1,11,-1
 1008 0 l 1,12,-1
 1008 927 l 2,13,14
 1008 1023 1008 1023 942 1088 c 0,15,16
 915 1115 915 1115 886 1130 c 9,17,-1
 643 973 l 1,18,-1
 399 1130 l 17,19,20
 369 1115 369 1115 342 1088 c 0,21,22
 277 1024 277 1024 278 927 c 2,23,-1
 278 160 l 25,24,-1
 598 547 l 1,25,26
 540 559 540 559 503 598 c 0,27,28
 445 659 445 659 445 737 c 0,29,30
 445 817 445 817 503 874.5 c 128,-1,31
 561 932 561 932 642.5 932 c 128,-1,32
 724 932 724 932 782 874.5 c 128,-1,33
 840 817 840 817 840 737 c 0,34,35
 840 666 840 666 782 598 c 2,36,-1
 278 0 l 17,37,-1
 165 0 l 9,38,-1
 165 927 l 2,0,1
558 735.5 m 128,-1,40
 558 701 558 701 582.5 676.5 c 128,-1,41
 607 652 607 652 642 652 c 128,-1,42
 677 652 677 652 702 676.5 c 128,-1,43
 727 701 727 701 727 735.5 c 128,-1,44
 727 770 727 770 702 795 c 128,-1,45
 677 820 677 820 642 820 c 128,-1,46
 607 820 607 820 582.5 795 c 128,-1,39
 558 770 558 770 558 735.5 c 128,-1,40
EndSplineSet
EndChar
StartChar: uni0E16
Encoding: 3606 3606 145
Width: 1248
VWidth: 2045
Flags: W
HStem: 0 112<402.5 493.5> 279 112<402.5 493.5> 764 112<239 250 363 476> 1142 112<468.8 737.9>
VStem: 250 113<149.5 240.5 373 764> 534 112.5<149.5 240.5> 985 113<0 897.9>
Fore
534 195 m 132,-1,1
 534 230 534 230 508.5 254.5 c 132,-1,2
 483 279 483 279 448 279 c 132,-1,3
 413 279 413 279 388 254.5 c 132,-1,4
 363 230 363 230 363 195 c 132,-1,5
 363 160 363 160 388 136 c 132,-1,6
 413 112 413 112 448 112 c 132,-1,7
 483 112 483 112 508.5 136 c 132,-1,0
 534 160 534 160 534 195 c 132,-1,1
363 373 m 21,8,9
 403 391 403 391 448 391 c 4,10,11
 531 391 531 391 588.5 333.5 c 132,-1,12
 646 276 646 276 646.5 195.5 c 132,-1,13
 647 115 647 115 589 57.5 c 132,-1,14
 531 0 531 0 448.5 0 c 132,-1,15
 366 0 366 0 308 57.5 c 132,-1,16
 250 115 250 115 250 196 c 14,17,-1
 250 764 l 13,18,-1
 110 764 l 1,19,20
 110 897 110 897 176 1009 c 128,-1,21
 242 1121 242 1121 356 1187.5 c 128,-1,22
 470 1254 470 1254 604 1254 c 256,23,24
 738 1254 738 1254 851.5 1187.5 c 128,-1,25
 965 1121 965 1121 1031.5 1009 c 128,-1,26
 1098 897 1098 897 1098 764 c 2,27,-1
 1098 0 l 1,28,-1
 985 0 l 1,29,-1
 985 764 l 2,30,31
 985 867 985 867 934 953 c 128,-1,32
 883 1039 883 1039 795 1090.5 c 128,-1,33
 707 1142 707 1142 604 1142 c 256,34,35
 500 1142 500 1142 411.5 1090.5 c 128,-1,36
 323 1039 323 1039 288 977 c 128,-1,37
 253 915 253 915 239 876 c 9,38,-1
 476 876 l 5,39,-1
 476 764 l 5,40,-1
 363 764 l 21,41,-1
 363 373 l 21,8,9
EndSplineSet
EndChar
StartChar: uni0E17
Encoding: 3607 3607 146
Width: 1338
VWidth: 2045
Flags: W
HStem: 0 21G<343 456 1079 1192> 861 112<212.5 303.5> 1142 112<212.5 303.5 907.05 1027.95>
VStem: 61 113<1012.65 1102.35> 343 113<308 879 1012.65 1102.35> 1079 113<0 1089.4>
Fore
343 0 m 1,0,-1
 456 0 l 1,1,-1
 861 1069 l 6,2,3
 869 1091 869 1091 887 1109 c 4,4,5
 921 1142 921 1142 967.5 1142 c 156,-1,6
 1014 1142 1014 1142 1047 1109 c 4,7,8
 1079 1075 1079 1075 1079 1027 c 14,9,-1
 1079 0 l 5,10,-1
 1192 0 l 5,11,-1
 1192 1030 l 6,12,13
 1192 1122 1192 1122 1126.5 1188 c 132,-1,14
 1061 1254 1061 1254 967 1254 c 28,15,16
 875 1254 875 1254 808 1187 c 4,17,18
 771 1152 771 1152 758 1115 c 6,19,-1
 456 308 l 1,20,-1
 456 1057 l 2,21,22
 456 1139 456 1139 398 1196.5 c 128,-1,23
 340 1254 340 1254 258.5 1254 c 128,-1,24
 177 1254 177 1254 119 1196.5 c 128,-1,25
 61 1139 61 1139 61 1057.5 c 128,-1,26
 61 976 61 976 119 918.5 c 128,-1,27
 177 861 177 861 259 861 c 0,28,29
 305 861 305 861 343 879 c 0,30,-1
 343 0 l 1,0,-1
174 1057.5 m 128,-1,32
 174 1092 174 1092 198.5 1117 c 128,-1,33
 223 1142 223 1142 258 1142 c 128,-1,34
 293 1142 293 1142 318 1117 c 128,-1,35
 343 1092 343 1092 343 1057.5 c 128,-1,36
 343 1023 343 1023 318 998 c 128,-1,37
 293 973 293 973 258 973 c 128,-1,38
 223 973 223 973 198.5 998 c 128,-1,31
 174 1023 174 1023 174 1057.5 c 128,-1,32
EndSplineSet
EndChar
StartChar: uni0E18
Encoding: 3608 3608 147
Width: 1120
VWidth: 2045
Flags: W
HStem: 0 112<204 317 430 820> 764 112<232 317 430 755> 1142 112<460.8 731.2>
VStem: 317 113<112 764> 820 113<112 699>
Fore
430 764 m 17,0,-1
 430 112 l 17,1,-1
 820 112 l 25,2,-1
 820 652 l 14,3,4
 820 699 820 699 787.5 731.5 c 132,-1,5
 755 764 755 764 707 764 c 6,6,-1
 430 764 l 17,0,-1
927 953 m 17,7,8
 875 1039 875 1039 787.5 1090.5 c 128,-1,9
 700 1142 700 1142 596 1142 c 256,10,11
 492 1142 492 1142 404 1090.5 c 128,-1,12
 316 1039 316 1039 280 977 c 128,-1,13
 244 915 244 915 232 876 c 9,14,-1
 707 876 l 6,15,16
 802 876 802 876 867.5 810.5 c 132,-1,17
 933 745 933 745 933 652 c 22,18,-1
 933 0 l 9,19,-1
 204 0 l 1,20,-1
 204 112 l 1,21,-1
 317 112 l 25,22,-1
 317 764 l 25,23,-1
 102 764 l 1,24,25
 102 897 102 897 168.5 1009 c 128,-1,26
 235 1121 235 1121 348.5 1187.5 c 128,-1,27
 462 1254 462 1254 596 1254 c 256,28,29
 730 1254 730 1254 843.5 1187.5 c 128,-1,30
 957 1121 957 1121 1024 1009 c 9,31,-1
 927 953 l 17,7,8
EndSplineSet
EndChar
StartChar: uni0E19
Encoding: 3609 3609 148
Width: 1338
VWidth: 2045
Flags: W
HStem: 0 112<1020.5 1111.5> 861 112<221.5 312.5> 1142 112<221.5 312.5>
VStem: 69 113<1012.65 1102.35> 351 113<124 879 1012.65 1102.35> 1009 113<382 1254> 1150 112.5<149.5 240.5>
Fore
867 196 m 13,0,-1
 464 0 l 17,1,-1
 351 0 l 1,2,-1
 351 879 l 0,3,4
 311 861 311 861 265 861 c 0,5,6
 184 861 184 861 126.5 918.5 c 128,-1,7
 69 976 69 976 69 1057.5 c 128,-1,8
 69 1139 69 1139 126.5 1196.5 c 128,-1,9
 184 1254 184 1254 266 1254 c 128,-1,10
 348 1254 348 1254 405.5 1196.5 c 128,-1,11
 463 1139 463 1139 464 1057 c 2,12,-1
 464 124 l 9,13,-1
 964 362 l 6,14,15
 1000 379 1000 379 1009 382 c 13,16,-1
 1009 1254 l 13,17,-1
 1122 1254 l 21,18,-1
 1122 382 l 21,19,20
 1169 369 1169 369 1206 332 c 4,21,22
 1262 276 1262 276 1262.5 195.5 c 132,-1,23
 1263 115 1263 115 1204.5 57.5 c 132,-1,24
 1146 0 1146 0 1064.5 0 c 156,-1,25
 983 0 983 0 925 57.5 c 132,-1,26
 867 115 867 115 867 196 c 13,0,-1
1150 195 m 132,-1,28
 1150 230 1150 230 1125.5 254.5 c 132,-1,29
 1101 279 1101 279 1066 279 c 132,-1,30
 1031 279 1031 279 1005.5 254.5 c 132,-1,31
 980 230 980 230 980 195 c 132,-1,32
 980 160 980 160 1005.5 136 c 132,-1,33
 1031 112 1031 112 1066 112 c 132,-1,34
 1101 112 1101 112 1125.5 136 c 132,-1,27
 1150 160 1150 160 1150 195 c 132,-1,28
182 1057.5 m 128,-1,36
 182 1023 182 1023 207 998 c 128,-1,37
 232 973 232 973 267 973 c 128,-1,38
 302 973 302 973 326.5 998 c 128,-1,39
 351 1023 351 1023 351 1057.5 c 128,-1,40
 351 1092 351 1092 326.5 1117 c 128,-1,41
 302 1142 302 1142 267 1142 c 128,-1,42
 232 1142 232 1142 207 1117 c 128,-1,35
 182 1092 182 1092 182 1057.5 c 128,-1,36
EndSplineSet
EndChar
StartChar: uni0E1A
Encoding: 3610 3610 149
Width: 1391
VWidth: 2045
Flags: W
HStem: 0 112<277 390 503 1101> 861 112<260.35 352.65> 1142 112<260.35 352.65>
VStem: 108 113<1012.65 1102.35> 390 113<112 879 1012.65 1102.35> 1101 113<112 1254>
Fore
1214 1254 m 29,0,-1
 1214 0 l 13,1,-1
 277 0 l 1,2,-1
 277 112 l 1,3,-1
 390 112 l 17,4,-1
 390 879 l 0,5,6
 351 861 351 861 305 861 c 0,7,8
 224 861 224 861 166 918.5 c 128,-1,9
 108 976 108 976 108 1057.5 c 128,-1,10
 108 1139 108 1139 166 1196.5 c 128,-1,11
 224 1254 224 1254 305.5 1254 c 128,-1,12
 387 1254 387 1254 445 1196.5 c 128,-1,13
 503 1139 503 1139 503 1057 c 2,14,-1
 503 112 l 1,15,-1
 1101 112 l 29,16,-1
 1101 1254 l 29,17,-1
 1214 1254 l 29,0,-1
221 1057.5 m 128,-1,19
 221 1023 221 1023 246 998 c 128,-1,20
 271 973 271 973 306.5 973 c 128,-1,21
 342 973 342 973 366 998 c 128,-1,22
 390 1023 390 1023 390 1057.5 c 128,-1,23
 390 1092 390 1092 366 1117 c 128,-1,24
 342 1142 342 1142 306.5 1142 c 128,-1,25
 271 1142 271 1142 246 1117 c 128,-1,18
 221 1092 221 1092 221 1057.5 c 128,-1,19
EndSplineSet
EndChar
StartChar: uni0E1B
Encoding: 3611 3611 150
Width: 1391
VWidth: 2045
Flags: W
HStem: 0 112<277 390 503 1101> 861 112<260.35 352.65> 1142 112<260.35 352.65>
VStem: 108 113<1012.65 1102.35> 390 113<112 879 1012.65 1102.35> 1101 113<112 1832>
AnchorPoint: "AboveBase" 987.179 1369.61 basechar 0
Fore
1214 1832 m 29,0,-1
 1214 0 l 13,1,-1
 277 0 l 1,2,-1
 277 112 l 1,3,-1
 390 112 l 17,4,-1
 390 879 l 0,5,6
 351 861 351 861 305 861 c 0,7,8
 224 861 224 861 166 918.5 c 128,-1,9
 108 976 108 976 108 1057.5 c 128,-1,10
 108 1139 108 1139 166 1196.5 c 128,-1,11
 224 1254 224 1254 305.5 1254 c 128,-1,12
 387 1254 387 1254 445 1196.5 c 128,-1,13
 503 1139 503 1139 503 1057 c 2,14,-1
 503 112 l 1,15,-1
 1101 112 l 29,16,-1
 1101 1832 l 29,17,-1
 1214 1832 l 29,0,-1
221 1057.5 m 128,-1,19
 221 1023 221 1023 246 998 c 128,-1,20
 271 973 271 973 306.5 973 c 128,-1,21
 342 973 342 973 366 998 c 128,-1,22
 390 1023 390 1023 390 1057.5 c 128,-1,23
 390 1092 390 1092 366 1117 c 128,-1,24
 342 1142 342 1142 306.5 1142 c 128,-1,25
 271 1142 271 1142 246 1117 c 128,-1,18
 221 1092 221 1092 221 1057.5 c 128,-1,19
EndSplineSet
EndChar
StartChar: uni0E1C
Encoding: 3612 3612 151
Width: 1290
VWidth: 2045
Flags: W
HStem: 0 21G<162 274 1032 1145> 861 112<314.5 405.5> 1142 112<314.5 405.5>
VStem: 162 114<172 881 1012.65 1102.35> 445 113<1012.65 1102.35> 1032 113<172 1254>
Fore
1032 172 m 25,0,-1
 1032 1254 l 9,1,-1
 1145 1254 l 25,2,-1
 1145 0 l 9,3,-1
 1032 0 l 17,4,-1
 653 495 l 25,5,-1
 274 0 l 9,6,-1
 162 0 l 25,7,-1
 162 1054 l 18,8,9
 162 1137 162 1137 220.5 1195.5 c 128,-1,10
 279 1254 279 1254 360.5 1254 c 128,-1,11
 442 1254 442 1254 500 1196.5 c 128,-1,12
 558 1139 558 1139 558 1057.5 c 128,-1,13
 558 976 558 976 500 918.5 c 128,-1,14
 442 861 442 861 360 861 c 0,15,16
 314 861 314 861 274 881 c 1,17,-1
 274 172 l 25,18,-1
 653 665 l 1,19,-1
 1032 172 l 25,0,-1
445 1057.5 m 128,-1,21
 445 1092 445 1092 420 1117 c 128,-1,22
 395 1142 395 1142 360 1142 c 128,-1,23
 325 1142 325 1142 300.5 1117 c 128,-1,24
 276 1092 276 1092 276 1057.5 c 128,-1,25
 276 1023 276 1023 300.5 998 c 128,-1,26
 325 973 325 973 360 973 c 128,-1,27
 395 973 395 973 420 998 c 128,-1,20
 445 1023 445 1023 445 1057.5 c 128,-1,21
EndSplineSet
EndChar
StartChar: uni0E1D
Encoding: 3613 3613 152
Width: 1290
VWidth: 2045
Flags: W
HStem: 0 21G<162 274 1032 1145> 861 112<314.5 405.5> 1142 112<314.5 405.5>
VStem: 162 114<165 881 1012.65 1102.35> 445 113<1012.65 1102.35> 1032 113<163 1832>
AnchorPoint: "AboveBase" 930.13 1342.59 basechar 0
Fore
1032 163 m 25,0,-1
 1032 1832 l 9,1,-1
 1145 1832 l 25,2,-1
 1145 0 l 9,3,-1
 1032 0 l 17,4,-1
 653 497 l 25,5,-1
 274 0 l 9,6,-1
 162 0 l 25,7,-1
 162 1054 l 18,8,9
 162 1137 162 1137 220.5 1195.5 c 128,-1,10
 279 1254 279 1254 360.5 1254 c 128,-1,11
 442 1254 442 1254 500 1196.5 c 128,-1,12
 558 1139 558 1139 558 1057.5 c 128,-1,13
 558 976 558 976 500 918.5 c 128,-1,14
 442 861 442 861 360 861 c 0,15,16
 314 861 314 861 274 881 c 1,17,-1
 274 165 l 25,18,-1
 653 669 l 1,19,-1
 1032 163 l 25,0,-1
445 1057.5 m 128,-1,21
 445 1092 445 1092 420 1117 c 128,-1,22
 395 1142 395 1142 360 1142 c 128,-1,23
 325 1142 325 1142 300.5 1117 c 128,-1,24
 276 1092 276 1092 276 1057.5 c 128,-1,25
 276 1023 276 1023 300.5 998 c 128,-1,26
 325 973 325 973 360 973 c 128,-1,27
 395 973 395 973 420 998 c 128,-1,20
 445 1023 445 1023 445 1057.5 c 128,-1,21
EndSplineSet
EndChar
StartChar: uni0E1E
Encoding: 3614 3614 153
Width: 1470
VWidth: 2045
Flags: W
HStem: 0 21G<345 458 1177 1290> 861 112<212.5 303.5> 1142 112<212.5 303.5>
VStem: 61 111<1012.65 1102.35> 345 113<350 881 1012.65 1102.35> 1177 113<350 1254>
Fore
1177 350 m 25,0,-1
 1177 1254 l 9,1,-1
 1290 1254 l 25,2,-1
 1290 0 l 9,3,-1
 1177 0 l 17,4,-1
 817 1060 l 25,5,-1
 458 0 l 9,6,-1
 345 0 l 25,7,-1
 345 881 l 1,8,9
 305 861 305 861 259 861 c 0,10,11
 177 861 177 861 119 918.5 c 128,-1,12
 61 976 61 976 61 1057.5 c 128,-1,13
 61 1139 61 1139 119 1196.5 c 128,-1,14
 177 1254 177 1254 258.5 1254 c 128,-1,15
 340 1254 340 1254 398.5 1195.5 c 128,-1,16
 457 1137 457 1137 458 1054 c 2,17,-1
 458 350 l 25,18,-1
 764 1254 l 9,19,-1
 871 1254 l 17,20,-1
 1177 350 l 25,0,-1
172 1057.5 m 128,-1,22
 172 1023 172 1023 197.5 998 c 128,-1,23
 223 973 223 973 258 973 c 128,-1,24
 293 973 293 973 317.5 998 c 128,-1,25
 342 1023 342 1023 342 1057.5 c 128,-1,26
 342 1092 342 1092 317.5 1117 c 128,-1,27
 293 1142 293 1142 258 1142 c 128,-1,28
 223 1142 223 1142 197.5 1117 c 128,-1,21
 172 1092 172 1092 172 1057.5 c 128,-1,22
EndSplineSet
EndChar
StartChar: uni0E1F
Encoding: 3615 3615 154
Width: 1470
VWidth: 2045
Flags: W
HStem: 0 21G<345 458 1177 1290> 861 112<212.5 303.5> 1142 112<212.5 303.5>
VStem: 61 111<1012.65 1102.35> 345 113<350 881 1012.65 1102.35> 1177 113<350 1832>
AnchorPoint: "AboveBase" 1034.71 1400.47 basechar 0
Fore
1177 350 m 25,0,-1
 1177 1832 l 9,1,-1
 1290 1832 l 25,2,-1
 1290 0 l 9,3,-1
 1177 0 l 17,4,-1
 817 1060 l 25,5,-1
 458 0 l 9,6,-1
 345 0 l 25,7,-1
 345 881 l 1,8,9
 305 861 305 861 259 861 c 0,10,11
 177 861 177 861 119 918.5 c 128,-1,12
 61 976 61 976 61 1057.5 c 128,-1,13
 61 1139 61 1139 119 1196.5 c 128,-1,14
 177 1254 177 1254 258.5 1254 c 128,-1,15
 340 1254 340 1254 398.5 1195.5 c 128,-1,16
 457 1137 457 1137 458 1054 c 2,17,-1
 458 350 l 25,18,-1
 764 1254 l 9,19,-1
 871 1254 l 17,20,-1
 1177 350 l 25,0,-1
172 1057.5 m 128,-1,22
 172 1023 172 1023 197.5 998 c 128,-1,23
 223 973 223 973 258 973 c 128,-1,24
 293 973 293 973 317.5 998 c 128,-1,25
 342 1023 342 1023 342 1057.5 c 128,-1,26
 342 1092 342 1092 317.5 1117 c 128,-1,27
 293 1142 293 1142 258 1142 c 128,-1,28
 223 1142 223 1142 197.5 1117 c 128,-1,21
 172 1092 172 1092 172 1057.5 c 128,-1,22
EndSplineSet
EndChar
StartChar: uni0E20
Encoding: 3616 3616 155
Width: 1373
VWidth: 2045
Flags: W
HStem: 0 112<248.5 339.5> 279 112<248.5 339.5> 764 112<338 378 491 604> 1142 112<567.8 836.9>
VStem: 96 113<149.5 240.5> 378 113<149.5 240.5 373 764> 1084 113<0 897.9>
Fore
209 195 m 132,-1,1
 209 230 209 230 234 254.5 c 132,-1,2
 259 279 259 279 294 279 c 132,-1,3
 329 279 329 279 353.5 254.5 c 132,-1,4
 378 230 378 230 378 195 c 132,-1,5
 378 160 378 160 353.5 136 c 132,-1,6
 329 112 329 112 294 112 c 132,-1,7
 259 112 259 112 234 136 c 132,-1,0
 209 160 209 160 209 195 c 132,-1,1
491 764 m 29,8,-1
 604 764 l 5,9,-1
 604 876 l 5,10,-1
 338 876 l 21,11,12
 351 915 351 915 386.5 977 c 132,-1,13
 422 1039 422 1039 510.5 1090.5 c 132,-1,14
 599 1142 599 1142 703 1142 c 260,15,16
 806 1142 806 1142 894 1090.5 c 132,-1,17
 982 1039 982 1039 1033 953 c 132,-1,18
 1084 867 1084 867 1084 764 c 6,19,-1
 1084 0 l 5,20,-1
 1197 0 l 5,21,-1
 1197 764 l 6,22,23
 1197 897 1197 897 1130.5 1009 c 132,-1,24
 1064 1121 1064 1121 950.5 1187.5 c 132,-1,25
 837 1254 837 1254 703 1254 c 260,26,27
 569 1254 569 1254 455.5 1187.5 c 132,-1,28
 342 1121 342 1121 275.5 1009 c 132,-1,29
 209 897 209 897 209 764 c 5,30,-1
 378 764 l 29,31,-1
 378 373 l 5,32,33
 338 391 338 391 293 391 c 4,34,35
 212 391 212 391 154 333.5 c 132,-1,36
 96 276 96 276 96 195.5 c 132,-1,37
 96 115 96 115 154 57.5 c 132,-1,38
 212 0 212 0 293.5 0 c 132,-1,39
 375 0 375 0 433 57.5 c 132,-1,40
 491 115 491 115 491 196 c 6,41,-1
 491 764 l 29,8,-1
EndSplineSet
EndChar
StartChar: uni0E21
Encoding: 3617 3617 156
Width: 1355
VWidth: 2045
Flags: W
HStem: 0 113<283.5 374.5> 281 110<283.5 374.5> 862 113.5<283.5 374.5> 1143 110.5<283.5 374.5>
VStem: 133 111<152.5 243.5 1013.5 1104.5> 415 112<152.5 218 373 881 1013.5 1104.5> 1067 113<112 1253>
Fore
527 218 m 21,0,1
 527 205 527 205 527 196 c 4,2,3
 527 115 527 115 469.5 57.5 c 132,-1,4
 412 0 412 0 330.5 0 c 132,-1,5
 249 0 249 0 191 57.5 c 132,-1,6
 133 115 133 115 133 195.5 c 132,-1,7
 133 276 133 276 191 333.5 c 132,-1,8
 249 391 249 391 329 391 c 4,9,10
 375 391 375 391 415 373 c 13,11,-1
 415 881 l 5,12,13
 375 862 375 862 329 862 c 4,14,15
 249 862 249 862 191 919.5 c 132,-1,16
 133 977 133 977 133 1058 c 132,-1,17
 133 1139 133 1139 191 1196.5 c 132,-1,18
 249 1254 249 1254 330.5 1253.5 c 132,-1,19
 412 1253 412 1253 469.5 1196 c 132,-1,20
 527 1139 527 1139 527 1057 c 6,21,-1
 527 329 l 29,22,-1
 1067 112 l 13,23,-1
 1067 1253 l 5,24,-1
 1180 1253 l 5,25,-1
 1180 0 l 5,26,-1
 1067 0 l 5,27,-1
 527 218 l 21,0,1
244 1059 m 132,-1,29
 244 1024 244 1024 269 1000 c 132,-1,30
 294 976 294 976 329 975.5 c 132,-1,31
 364 975 364 975 389.5 999.5 c 132,-1,32
 415 1024 415 1024 415 1059 c 132,-1,33
 415 1094 415 1094 389.5 1118.5 c 132,-1,34
 364 1143 364 1143 329 1143 c 132,-1,35
 294 1143 294 1143 269 1118.5 c 132,-1,28
 244 1094 244 1094 244 1059 c 132,-1,29
244 198 m 132,-1,37
 244 163 244 163 269 138 c 132,-1,38
 294 113 294 113 329 113 c 132,-1,39
 364 113 364 113 389.5 138 c 132,-1,40
 415 163 415 163 415 198 c 132,-1,41
 415 233 415 233 389.5 257 c 132,-1,42
 364 281 364 281 329 281 c 132,-1,43
 294 281 294 281 269 257 c 132,-1,36
 244 233 244 233 244 198 c 132,-1,37
EndSplineSet
EndChar
StartChar: uni0E22
Encoding: 3618 3618 157
Width: 1248
VWidth: 2045
Flags: W
HStem: 0 112<345 954> 622 112<395.9 681> 861 112<318.5 409.5> 1142 112<318.5 409.5>
VStem: 112 169<971 1102.35> 232 113<112 569.5> 448 113<1012.65 1102.35> 954 113<112 1254>
Fore
232 0 m 9,0,-1
 232 511 l 2,1,2
 232 600 232 600 293 665 c 1,3,4
 224 692 224 692 167.5 768 c 128,-1,5
 111 844 111 844 112 971 c 136,-1,6
 113 1098 113 1098 181.5 1175 c 128,-1,7
 250 1252 250 1252 364 1254 c 0,8,9
 445 1254 445 1254 503 1196.5 c 128,-1,10
 561 1139 561 1139 561 1057.5 c 128,-1,11
 561 976 561 976 503 918.5 c 128,-1,12
 445 861 445 861 364 861 c 16,13,14
 290 861 290 861 238 900 c 1,15,16
 247 837 247 837 302 785.5 c 128,-1,17
 357 734 357 734 457 734 c 10,18,-1
 681 734 l 17,19,-1
 681 622 l 1,20,-1
 457 622 l 18,21,22
 410 622 410 622 377.5 589 c 128,-1,23
 345 556 345 556 345 511 c 10,24,-1
 345 112 l 25,25,-1
 954 112 l 29,26,-1
 954 1254 l 29,27,-1
 1067 1254 l 29,28,-1
 1067 0 l 13,29,-1
 232 0 l 9,0,-1
448 1057.5 m 128,-1,31
 448 1092 448 1092 423.5 1117 c 128,-1,32
 399 1142 399 1142 364 1142 c 128,-1,33
 329 1142 329 1142 305 1117 c 128,-1,34
 281 1092 281 1092 281 1057.5 c 128,-1,35
 281 1023 281 1023 305 998 c 128,-1,36
 329 973 329 973 364 973 c 128,-1,37
 399 973 399 973 423.5 998 c 128,-1,30
 448 1023 448 1023 448 1057.5 c 128,-1,31
EndSplineSet
EndChar
StartChar: uni0E23
Encoding: 3619 3619 158
Width: 1002
VWidth: 2045
Flags: W
HStem: 0 112<455.5 546.5> 279 112<455.5 546.5> 834 112<211 518> 1142 112<352.35 652.65>
VStem: 303 113<149.5 240.5> 585 113<149.5 240.5 373 780.5>
Fore
803 918 m 17,0,1
 782 992 782 992 722 1051 c 0,2,3
 631 1142 631 1142 503 1142 c 128,-1,4
 375 1142 375 1142 283 1051 c 0,5,6
 234 1003 234 1003 211 946 c 9,7,-1
 472 946 l 2,8,9
 567 944 567 944 632.5 879 c 128,-1,10
 698 814 698 814 698 722 c 26,11,-1
 698 196 l 2,12,13
 698 115 698 115 640 57.5 c 128,-1,14
 582 0 582 0 500.5 0 c 128,-1,15
 419 0 419 0 361 57.5 c 128,-1,16
 303 115 303 115 303 195.5 c 128,-1,17
 303 276 303 276 361 333.5 c 128,-1,18
 419 391 419 391 500 391 c 0,19,20
 545 391 545 391 585 373 c 1,21,-1
 585 722 l 26,22,23
 585 767 585 767 551 801 c 0,24,25
 518 834 518 834 472 834 c 2,26,-1
 79 834 l 1,27,28
 79 947 79 947 135.5 1043.5 c 128,-1,29
 192 1140 192 1140 289.5 1197 c 128,-1,30
 387 1254 387 1254 502.5 1254 c 128,-1,31
 618 1254 618 1254 716 1197 c 128,-1,32
 814 1140 814 1140 870 1044 c 0,33,34
 897 995 897 995 911 942 c 9,35,-1
 803 918 l 17,0,1
416 195 m 128,-1,37
 416 160 416 160 441 136 c 128,-1,38
 466 112 466 112 501 112 c 128,-1,39
 536 112 536 112 560.5 136 c 128,-1,40
 585 160 585 160 585 195 c 128,-1,41
 585 230 585 230 560.5 254.5 c 128,-1,42
 536 279 536 279 501 279 c 128,-1,43
 466 279 466 279 441 254.5 c 128,-1,36
 416 230 416 230 416 195 c 128,-1,37
EndSplineSet
EndChar
StartChar: uni0E24
Encoding: 3620 3620 159
Width: 1248
VWidth: 2045
Flags: W
HStem: 0 112<382.5 473.5> 279 112<382.5 473.5> 764 112<219 230 343 456> 1142 112<448.8 717.9>
VStem: 230 113<149.5 240.5 373 764> 514 112.5<149.5 240.5> 965 113<-548 897.9>
Fore
514 195 m 132,-1,1
 514 230 514 230 488.5 254.5 c 132,-1,2
 463 279 463 279 428 279 c 132,-1,3
 393 279 393 279 368 254.5 c 132,-1,4
 343 230 343 230 343 195 c 132,-1,5
 343 160 343 160 368 136 c 132,-1,6
 393 112 393 112 428 112 c 132,-1,7
 463 112 463 112 488.5 136 c 132,-1,0
 514 160 514 160 514 195 c 132,-1,1
343 373 m 21,8,9
 383 391 383 391 428 391 c 4,10,11
 511 391 511 391 568.5 333.5 c 132,-1,12
 626 276 626 276 626.5 195.5 c 132,-1,13
 627 115 627 115 569 57.5 c 132,-1,14
 511 0 511 0 428.5 0 c 132,-1,15
 346 0 346 0 288 57.5 c 132,-1,16
 230 115 230 115 230 196 c 14,17,-1
 230 764 l 13,18,-1
 90 764 l 5,19,20
 90 897 90 897 156 1009 c 132,-1,21
 222 1121 222 1121 336 1187.5 c 132,-1,22
 450 1254 450 1254 584 1254 c 260,23,24
 718 1254 718 1254 831.5 1187.5 c 132,-1,25
 945 1121 945 1121 1011.5 1009 c 132,-1,26
 1078 897 1078 897 1078 764 c 6,27,-1
 1078 -548 l 5,28,-1
 965 -548 l 5,29,-1
 965 764 l 6,30,31
 965 867 965 867 914 953 c 132,-1,32
 863 1039 863 1039 775 1090.5 c 132,-1,33
 687 1142 687 1142 584 1142 c 260,34,35
 480 1142 480 1142 391.5 1090.5 c 132,-1,36
 303 1039 303 1039 268 977 c 132,-1,37
 233 915 233 915 219 876 c 13,38,-1
 456 876 l 5,39,-1
 456 764 l 5,40,-1
 343 764 l 21,41,-1
 343 373 l 21,8,9
EndSplineSet
EndChar
StartChar: uni0E25
Encoding: 3621 3621 160
Width: 1263
VWidth: 2045
Flags: W
HStem: 0 112<407.35 499.65> 279 112<407.35 499.65> 752 112<499.1 727.9> 1142 112<458.8 727.9>
VStem: 100 113<764 897.9> 255 113<149.5 240.5 373 546.937> 539 113<149.5 240.5> 975 113<0 477 686 867>
Fore
539 195 m 132,-1,1
 539 230 539 230 514 254.5 c 132,-1,2
 489 279 489 279 453.5 279 c 132,-1,3
 418 279 418 279 393 254.5 c 132,-1,4
 368 230 368 230 368 195 c 132,-1,5
 368 160 368 160 393 136 c 132,-1,6
 418 112 418 112 453.5 112 c 132,-1,7
 489 112 489 112 514 136 c 132,-1,0
 539 160 539 160 539 195 c 132,-1,1
975 686 m 4,8,-1
 975 764 l 6,9,10
 975 867 975 867 924 953 c 132,-1,11
 873 1039 873 1039 785 1090.5 c 132,-1,12
 697 1142 697 1142 594 1142 c 260,13,14
 490 1142 490 1142 403 1090.5 c 156,-1,15
 316 1039 316 1039 264.5 953 c 132,-1,16
 213 867 213 867 213 764 c 13,17,-1
 100 764 l 21,18,19
 100 897 100 897 166 1009 c 156,-1,20
 232 1121 232 1121 346 1187.5 c 132,-1,21
 460 1254 460 1254 594 1254 c 260,22,23
 728 1254 728 1254 841.5 1187.5 c 132,-1,24
 955 1121 955 1121 1021.5 1009 c 132,-1,25
 1088 897 1088 897 1088 764 c 6,26,-1
 1088 0 l 5,27,-1
 975 0 l 5,28,-1
 975 372 l 6,29,30
 975 477 975 477 924 563 c 132,-1,31
 873 649 873 649 785 700.5 c 132,-1,32
 697 752 697 752 594 752 c 260,33,34
 514 752 514 752 455.5 696 c 156,-1,35
 397 640 397 640 382.5 566 c 132,-1,36
 368 492 368 492 368 375 c 6,37,-1
 368 373 l 21,38,39
 408 391 408 391 453 391 c 4,40,41
 536 391 536 391 594 333.5 c 132,-1,42
 652 276 652 276 652 195.5 c 132,-1,43
 652 115 652 115 594 57.5 c 132,-1,44
 536 0 536 0 453.5 0 c 132,-1,45
 371 0 371 0 313 57.5 c 132,-1,46
 255 115 255 115 255 196 c 14,47,-1
 255 375 l 6,48,49
 255 563 255 563 308.5 674 c 132,-1,50
 362 785 362 785 441.5 824.5 c 132,-1,51
 521 864 521 864 594 864 c 260,52,53
 728 864 728 864 824 808 c 132,-1,54
 920 752 920 752 975 686 c 4,8,-1
EndSplineSet
EndChar
StartChar: uni0E26
Encoding: 3622 3622 161
Width: 1373
VWidth: 2045
Flags: W
HStem: 0 112<248.5 339.5> 279 112<248.5 339.5> 764 112<338 378 491 604> 1142 112<567.8 836.9>
VStem: 96 113<149.5 240.5> 378 113<149.5 240.5 373 764> 1084 113<-548 897.9>
Fore
209 195 m 128,-1,1
 209 230 209 230 234 254.5 c 128,-1,2
 259 279 259 279 294 279 c 128,-1,3
 329 279 329 279 353.5 254.5 c 128,-1,4
 378 230 378 230 378 195 c 128,-1,5
 378 160 378 160 353.5 136 c 128,-1,6
 329 112 329 112 294 112 c 128,-1,7
 259 112 259 112 234 136 c 128,-1,0
 209 160 209 160 209 195 c 128,-1,1
491 764 m 25,8,-1
 604 764 l 1,9,-1
 604 876 l 1,10,-1
 338 876 l 17,11,12
 351 915 351 915 386.5 977 c 128,-1,13
 422 1039 422 1039 510.5 1090.5 c 128,-1,14
 599 1142 599 1142 703 1142 c 256,15,16
 806 1142 806 1142 894 1090.5 c 128,-1,17
 982 1039 982 1039 1033 953 c 128,-1,18
 1084 867 1084 867 1084 764 c 2,19,-1
 1084 -548 l 5,20,-1
 1197 -548 l 5,21,-1
 1197 764 l 2,22,23
 1197 897 1197 897 1130.5 1009 c 128,-1,24
 1064 1121 1064 1121 950.5 1187.5 c 128,-1,25
 837 1254 837 1254 703 1254 c 256,26,27
 569 1254 569 1254 455.5 1187.5 c 128,-1,28
 342 1121 342 1121 275.5 1009 c 128,-1,29
 209 897 209 897 209 764 c 1,30,-1
 378 764 l 25,31,-1
 378 373 l 1,32,33
 338 391 338 391 293 391 c 0,34,35
 212 391 212 391 154 333.5 c 128,-1,36
 96 276 96 276 96 195.5 c 128,-1,37
 96 115 96 115 154 57.5 c 128,-1,38
 212 0 212 0 293.5 0 c 128,-1,39
 375 0 375 0 433 57.5 c 128,-1,40
 491 115 491 115 491 196 c 2,41,-1
 491 764 l 25,8,-1
EndSplineSet
EndChar
StartChar: uni0E27
Encoding: 3623 3623 162
Width: 1122
VWidth: 2045
Flags: W
HStem: 0 112<706.5 797.5> 279 112<706.5 797.5> 1142 112<377.8 674.2>
VStem: 102 113<834 980.9> 555 113<149.5 240.5> 837 113<149.5 240.5 373 981.5>
Fore
668 195 m 128,-1,1
 668 160 668 160 692.5 136 c 128,-1,2
 717 112 717 112 752 112 c 128,-1,3
 787 112 787 112 812 136 c 128,-1,4
 837 160 837 160 837 195 c 128,-1,5
 837 230 837 230 812 254.5 c 128,-1,6
 787 279 787 279 752 279 c 128,-1,7
 717 279 717 279 692.5 254.5 c 128,-1,0
 668 230 668 230 668 195 c 128,-1,1
837 832 m 2,8,9
 837 961 837 961 746.5 1051.5 c 128,-1,10
 656 1142 656 1142 526 1142 c 128,-1,11
 396 1142 396 1142 305.5 1051.5 c 128,-1,12
 215 961 215 961 215 834 c 9,13,-1
 102 834 l 17,14,15
 102 947 102 947 159 1043.5 c 128,-1,16
 216 1140 216 1140 314 1197 c 128,-1,17
 412 1254 412 1254 526 1254 c 128,-1,18
 640 1254 640 1254 737.5 1197 c 128,-1,19
 835 1140 835 1140 892.5 1043.5 c 128,-1,20
 950 947 950 947 950 832 c 2,21,-1
 950 196 l 2,22,23
 950 115 950 115 892 57.5 c 128,-1,24
 834 0 834 0 752.5 0 c 128,-1,25
 671 0 671 0 613 57.5 c 128,-1,26
 555 115 555 115 555 195.5 c 128,-1,27
 555 276 555 276 613 333.5 c 128,-1,28
 671 391 671 391 753 391 c 0,29,30
 799 391 799 391 837 373 c 1,31,-1
 837 832 l 2,8,9
EndSplineSet
EndChar
StartChar: uni0E28
Encoding: 3624 3624 163
Width: 1301
VWidth: 2045
Flags: W
HStem: 0 21G<171 284 1018 1131> 547 115<602.5 693.5> 828 111<602.5 693.5> 1142 112<522.3 779.7>
VStem: 171 113<290 906> 733 112<699.65 789.35> 1018 113<0 895.6> 1043 113<1198.1 1332>
Fore
909 1036 m 1,0,1
 877 1069 877 1069 835 1092 c 0,2,3
 750 1142 750 1142 651 1142 c 128,-1,4
 552 1142 552 1142 466.5 1093 c 128,-1,5
 381 1044 381 1044 332.5 960 c 128,-1,6
 284 876 284 876 284 776 c 2,7,-1
 284 290 l 1,8,-1
 463 816 l 2,9,10
 476 849 476 849 509 882 c 0,11,12
 567 939 567 939 648 939 c 0,13,14
 799 939 799 939 909 1036 c 1,0,1
982 1121 m 1,15,16
 1043 1214 1043 1214 1043 1332 c 1,17,-1
 1156 1332 l 1,18,19
 1156 1229 1156 1229 1116 1136 c 0,20,21
 1092 1078 1092 1078 1057 1033 c 9,22,-1
 1067 1015 l 0,23,24
 1131 906 1131 906 1131 776 c 2,25,-1
 1131 0 l 1,26,-1
 1018 0 l 1,27,-1
 1018 776 l 2,28,29
 1018 868 1018 868 976 947 c 1,30,31
 919 900 919 900 846 868 c 0,32,33
 828 861 828 861 811 855 c 1,34,35
 845 807 845 807 845 743 c 0,36,37
 845 662 845 662 787 604.5 c 128,-1,38
 729 547 729 547 648 547 c 128,-1,39
 567 547 567 547 509 604 c 0,40,41
 503 610 503 610 499 615 c 1,42,-1
 284 0 l 1,43,-1
 171 0 l 1,44,-1
 171 776 l 2,45,46
 171 906 171 906 235 1015.5 c 128,-1,47
 299 1125 299 1125 410 1189.5 c 128,-1,48
 521 1254 521 1254 651 1254 c 128,-1,49
 781 1254 781 1254 892 1189 c 0,50,51
 942 1160 942 1160 982 1121 c 1,15,16
564 744.5 m 128,-1,53
 564 710 564 710 588.5 686 c 128,-1,54
 613 662 613 662 648 662 c 128,-1,55
 683 662 683 662 708 686 c 128,-1,56
 733 710 733 710 733 744.5 c 128,-1,57
 733 779 733 779 708 803.5 c 128,-1,58
 683 828 683 828 648 828 c 128,-1,59
 613 828 613 828 588.5 803.5 c 128,-1,52
 564 779 564 779 564 744.5 c 128,-1,53
EndSplineSet
EndChar
StartChar: uni0E29
Encoding: 3625 3625 164
Width: 1483
VWidth: 2045
Flags: W
HStem: 0 112<277 390 503 1122> 432 150<731.35 896> 749 112<731.35 823.65> 861 112<260.35 352.65> 1142 112<260.35 352.65>
VStem: 108 113<1012.65 1102.35> 390 113<112 879 1012.65 1102.35> 579 113<620.5 711.5> 863 113<620.5 711.5> 1122 113<112 492 879 1254>
Fore
1235 583 m 9,0,-1
 1235 0 l 9,1,-1
 277 0 l 5,2,-1
 277 112 l 5,3,-1
 390 112 l 21,4,-1
 390 879 l 4,5,6
 351 861 351 861 305 861 c 4,7,8
 224 861 224 861 166 918.5 c 132,-1,9
 108 976 108 976 108 1057.5 c 132,-1,10
 108 1139 108 1139 166 1196.5 c 132,-1,11
 224 1254 224 1254 305.5 1254 c 132,-1,12
 387 1254 387 1254 445 1196.5 c 132,-1,13
 503 1139 503 1139 503 1057 c 6,14,-1
 503 112 l 5,15,-1
 1122 112 l 17,16,-1
 1122 492 l 17,17,18
 1018 432 1018 432 896 432 c 0,19,20
 744 432 744 432 661.5 498.5 c 128,-1,21
 579 565 579 565 579 655.5 c 128,-1,22
 579 746 579 746 637 803.5 c 128,-1,23
 695 861 695 861 777.5 861 c 128,-1,24
 860 861 860 861 918 803.5 c 128,-1,25
 976 746 976 746 976 665 c 0,26,27
 976 598 976 598 933 547 c 1,28,29
 1038 556 1038 556 1122 630 c 9,30,-1
 1122 1254 l 9,31,-1
 1235 1254 l 17,32,-1
 1235 879 l 9,33,-1
 1348 879 l 17,34,35
 1348 755 1348 755 1288 656 c 0,36,37
 1265 616 1265 616 1235 583 c 9,0,-1
221 1057.5 m 132,-1,39
 221 1023 221 1023 246 998 c 132,-1,40
 271 973 271 973 306.5 973 c 132,-1,41
 342 973 342 973 366 998 c 132,-1,42
 390 1023 390 1023 390 1057.5 c 132,-1,43
 390 1092 390 1092 366 1117 c 132,-1,44
 342 1142 342 1142 306.5 1142 c 132,-1,45
 271 1142 271 1142 246 1117 c 132,-1,38
 221 1092 221 1092 221 1057.5 c 132,-1,39
692 666 m 128,-1,47
 692 631 692 631 717 606.5 c 128,-1,48
 742 582 742 582 777.5 582 c 128,-1,49
 813 582 813 582 838 606.5 c 128,-1,50
 863 631 863 631 863 666 c 128,-1,51
 863 701 863 701 838 725 c 128,-1,52
 813 749 813 749 777.5 749 c 128,-1,53
 742 749 742 749 717 725 c 128,-1,46
 692 701 692 701 692 666 c 128,-1,47
EndSplineSet
EndChar
StartChar: uni0E2A
Encoding: 3626 3626 165
Width: 1263
VWidth: 2045
Flags: W
HStem: 0 112<417.35 509.65> 279 112<417.35 509.65> 1142 112<468.8 737.9>
VStem: 110 113<764 897.9> 265 113<149.5 240.5 373 546.937> 549 113<149.5 240.5> 985 113<0 477 686 853.953> 1055 113<1203.65 1311>
Fore
549 195 m 128,-1,1
 549 230 549 230 524 254.5 c 128,-1,2
 499 279 499 279 463.5 279 c 128,-1,3
 428 279 428 279 403 254.5 c 128,-1,4
 378 230 378 230 378 195 c 128,-1,5
 378 160 378 160 403 136 c 128,-1,6
 428 112 428 112 463.5 112 c 128,-1,7
 499 112 499 112 524 136 c 128,-1,0
 549 160 549 160 549 195 c 128,-1,1
604 864 m 0,8,9
 726 864 726 864 829 923 c 0,10,11
 875 950 875 950 913 985 c 1,12,13
 866 1050 866 1050 796 1091 c 0,14,15
 707 1142 707 1142 604 1142 c 256,16,17
 500 1142 500 1142 413 1090.5 c 152,-1,18
 326 1039 326 1039 274.5 953 c 128,-1,19
 223 867 223 867 223 764 c 9,20,-1
 110 764 l 17,21,22
 110 897 110 897 176 1009 c 152,-1,23
 242 1121 242 1121 356 1187.5 c 128,-1,24
 470 1254 470 1254 604 1254 c 256,25,26
 738 1254 738 1254 851 1187 c 0,27,28
 930 1142 930 1142 986 1072 c 9,29,-1
 994 1086 l 0,30,31
 1055 1189 1055 1189 1055 1311 c 9,32,-1
 1168 1311 l 17,33,34
 1168 1234 1168 1234 1148 1162.5 c 128,-1,35
 1128 1091 1128 1091 1092 1029 c 0,36,37
 1073 998 1073 998 1052 970 c 1,38,39
 1098 875 1098 875 1098 764 c 2,40,-1
 1098 0 l 1,41,-1
 985 0 l 1,42,-1
 985 372 l 2,43,44
 985 477 985 477 934 563 c 128,-1,45
 883 649 883 649 795 700.5 c 128,-1,46
 707 752 707 752 604 752 c 256,47,48
 524 752 524 752 465.5 696 c 152,-1,49
 407 640 407 640 392.5 566 c 128,-1,50
 378 492 378 492 378 375 c 2,51,-1
 378 373 l 17,52,53
 418 391 418 391 463 391 c 0,54,55
 546 391 546 391 604 333.5 c 128,-1,56
 662 276 662 276 662 195.5 c 128,-1,57
 662 115 662 115 604 57.5 c 128,-1,58
 546 0 546 0 463.5 0 c 128,-1,59
 381 0 381 0 323 57.5 c 128,-1,60
 265 115 265 115 265 196 c 10,61,-1
 265 375 l 2,62,63
 265 563 265 563 318.5 674 c 128,-1,64
 372 785 372 785 451.5 824.5 c 128,-1,65
 531 864 531 864 604 864 c 0,8,9
967 882 m 1,66,67
 930 852 930 852 889 828 c 0,68,69
 866 814 866 814 842 804 c 9,70,-1
 851 798 l 0,71,72
 930 752 930 752 985 686 c 0,73,-1
 985 764 l 2,74,75
 985 825 985 825 967 882 c 1,66,67
EndSplineSet
EndChar
StartChar: uni0E2B
Encoding: 3627 3627 166
Width: 1338
VWidth: 2045
Flags: W
HStem: 0 21G<343 456 1079 1192> 831 142<949.35 1037.2> 861 112<212.5 303.5> 1142 112<212.5 303.5 949.35 1041.65>
VStem: 61 113<1012.65 1102.35> 343 113<218 879 1012.65 1102.35> 799 113<1012.65 1102.35> 1079 113<0 757 1012.65 1102.35>
Fore
1107 896 m 1,0,1
 1116 888 1116 888 1127 878 c 0,2,3
 1192 813 1192 813 1192 719 c 2,4,-1
 1192 0 l 1,5,-1
 1079 0 l 1,6,-1
 1079 717 l 18,7,8
 1079 757 1079 757 1050 794 c 128,-1,9
 1021 831 1021 831 967 831 c 24,10,11
 921 831 921 831 899 810 c 0,12,13
 877 787 877 787 861 758 c 2,14,-1
 456 0 l 1,15,-1
 343 0 l 1,16,-1
 343 879 l 0,17,18
 305 861 305 861 259 861 c 0,19,20
 177 861 177 861 119 918.5 c 128,-1,21
 61 976 61 976 61 1057.5 c 128,-1,22
 61 1139 61 1139 119 1196.5 c 128,-1,23
 177 1254 177 1254 258.5 1254 c 128,-1,24
 340 1254 340 1254 398 1196.5 c 128,-1,25
 456 1139 456 1139 456 1057 c 2,26,-1
 456 218 l 1,27,-1
 758 804 l 2,28,29
 784 853 784 853 808 878 c 0,30,31
 832 900 832 900 860 915 c 9,32,-1
 857 918 l 0,33,34
 799 976 799 976 799 1057.5 c 128,-1,35
 799 1139 799 1139 857 1196.5 c 128,-1,36
 915 1254 915 1254 995.5 1254 c 128,-1,37
 1076 1254 1076 1254 1134 1196.5 c 128,-1,38
 1192 1139 1192 1139 1192 1057.5 c 128,-1,39
 1192 976 1192 976 1134 918 c 0,40,41
 1122 906 1122 906 1107 896 c 1,0,1
912 1057.5 m 128,-1,43
 912 1023 912 1023 936 998 c 128,-1,44
 960 973 960 973 995.5 973 c 128,-1,45
 1031 973 1031 973 1055 998 c 128,-1,46
 1079 1023 1079 1023 1079 1057.5 c 128,-1,47
 1079 1092 1079 1092 1055 1117 c 128,-1,48
 1031 1142 1031 1142 995.5 1142 c 128,-1,49
 960 1142 960 1142 936 1117 c 128,-1,42
 912 1092 912 1092 912 1057.5 c 128,-1,43
174 1057.5 m 128,-1,51
 174 1023 174 1023 198.5 998 c 128,-1,52
 223 973 223 973 258 973 c 128,-1,53
 293 973 293 973 318 998 c 128,-1,54
 343 1023 343 1023 343 1057.5 c 128,-1,55
 343 1092 343 1092 318 1117 c 128,-1,56
 293 1142 293 1142 258 1142 c 128,-1,57
 223 1142 223 1142 198.5 1117 c 128,-1,50
 174 1092 174 1092 174 1057.5 c 128,-1,51
EndSplineSet
EndChar
StartChar: uni0E2C
Encoding: 3628 3628 167
Width: 1445
VWidth: 2045
Flags: W
HStem: 0 21G<345 458 1177 1290> 861 112<212.5 303.5> 1142 112<212.5 303.5> 1229 112<1046.5 1137.5> 1509 112<1046.5 1137.5>
VStem: 61 111<1012.65 1102.35> 345 113<350 881 1012.65 1102.35> 893 113<1379.65 1469.35> 1177 113<350 1248>
AnchorPoint: "AboveBase" 829.335 1423.95 basechar 0
Fore
1006 1424.5 m 128,-1,1
 1006 1390 1006 1390 1031.5 1365.5 c 128,-1,2
 1057 1341 1057 1341 1092 1341 c 128,-1,3
 1127 1341 1127 1341 1152 1365.5 c 128,-1,4
 1177 1390 1177 1390 1177 1424.5 c 128,-1,5
 1177 1459 1177 1459 1152 1484 c 128,-1,6
 1127 1509 1127 1509 1092 1509 c 128,-1,7
 1057 1509 1057 1509 1031.5 1484 c 128,-1,0
 1006 1459 1006 1459 1006 1424.5 c 128,-1,1
1290 1311 m 25,8,-1
 1290 0 l 9,9,-1
 1177 0 l 17,10,-1
 817 1060 l 25,11,-1
 458 0 l 9,12,-1
 345 0 l 25,13,-1
 345 881 l 1,14,15
 305 861 305 861 259 861 c 0,16,17
 177 861 177 861 119 918.5 c 128,-1,18
 61 976 61 976 61 1057.5 c 128,-1,19
 61 1139 61 1139 119 1196.5 c 128,-1,20
 177 1254 177 1254 258.5 1254 c 128,-1,21
 340 1254 340 1254 398.5 1195.5 c 128,-1,22
 457 1137 457 1137 458 1054 c 2,23,-1
 458 350 l 25,24,-1
 764 1254 l 9,25,-1
 871 1254 l 17,26,-1
 1177 350 l 17,27,-1
 1177 1248 l 0,28,29
 1137 1229 1137 1229 1092 1229 c 0,30,31
 1009 1229 1009 1229 951 1286.5 c 128,-1,32
 893 1344 893 1344 893 1425 c 128,-1,33
 893 1506 893 1506 951 1563.5 c 128,-1,34
 1009 1621 1009 1621 1090.5 1621 c 128,-1,35
 1172 1621 1172 1621 1232 1562 c 16,36,37
 1284 1510 1284 1510 1290 1441 c 9,38,-1
 1381 1494 l 9,39,-1
 1438 1397 l 17,40,-1
 1290 1311 l 25,8,-1
172 1057.5 m 128,-1,42
 172 1023 172 1023 197.5 998 c 128,-1,43
 223 973 223 973 258 973 c 128,-1,44
 293 973 293 973 317.5 998 c 128,-1,45
 342 1023 342 1023 342 1057.5 c 128,-1,46
 342 1092 342 1092 317.5 1117 c 128,-1,47
 293 1142 293 1142 258 1142 c 128,-1,48
 223 1142 223 1142 197.5 1117 c 128,-1,41
 172 1092 172 1092 172 1057.5 c 128,-1,42
EndSplineSet
EndChar
StartChar: uni0E2D
Encoding: 3629 3629 168
Width: 1230
VWidth: 2045
Flags: W
HStem: 0 112<427 970> 468 112<468.5 559.5> 749 112<468.5 559.5> 1142 112<454.1 723.2>
VStem: 95 113<764 897.9> 314 116<112 488 619.65 709.35> 598 112.5<619.65 709.35> 970 113<112 867>
Fore
1083 0 m 9,0,-1
 314 0 l 13,1,-1
 314 662 l 22,2,3
 314 745 314 745 373.5 803 c 132,-1,4
 433 861 433 861 514 861 c 132,-1,5
 595 861 595 861 652.5 803.5 c 132,-1,6
 710 746 710 746 710.5 664.5 c 132,-1,7
 711 583 711 583 653 525.5 c 132,-1,8
 595 468 595 468 512 468 c 4,9,10
 468 468 468 468 427 488 c 5,11,-1
 427 112 l 29,12,-1
 970 112 l 17,13,-1
 970 764 l 2,14,15
 970 867 970 867 918.5 953 c 128,-1,16
 867 1039 867 1039 779.5 1090.5 c 128,-1,17
 692 1142 692 1142 588 1142 c 256,18,19
 485 1142 485 1142 398 1090.5 c 152,-1,20
 311 1039 311 1039 259 953 c 128,-1,21
 207 867 207 867 208 764 c 9,22,-1
 95 764 l 17,23,24
 95 897 95 897 161 1009 c 152,-1,25
 227 1121 227 1121 340.5 1187.5 c 128,-1,26
 454 1254 454 1254 588 1254 c 256,27,28
 723 1254 723 1254 836.5 1187.5 c 128,-1,29
 950 1121 950 1121 1016 1009 c 128,-1,30
 1082 897 1082 897 1083 764 c 2,31,-1
 1083 0 l 9,0,-1
598 664.5 m 132,-1,33
 598 699 598 699 573.5 724 c 132,-1,34
 549 749 549 749 514 749 c 132,-1,35
 479 749 479 749 454.5 724 c 132,-1,36
 430 699 430 699 430 664.5 c 132,-1,37
 430 630 430 630 454.5 605 c 132,-1,38
 479 580 479 580 514 580 c 132,-1,39
 549 580 549 580 573.5 605 c 132,-1,32
 598 630 598 630 598 664.5 c 132,-1,33
EndSplineSet
EndChar
StartChar: uni0E2E
Encoding: 3630 3630 169
Width: 1192
VWidth: 2045
Flags: W
HStem: 0 112<299 880> 402 112<340.5 431.5> 680 111.5<340.5 431.5> 882 103<374.744 628.6>
VStem: 149 122<1006.15 1108.85> 186 116<112 420 551.65 641.35> 470 112.5<551.65 641.35> 880 113<112 899.2>
Fore
814 976 m 0,0,1
 735 926 735 926 668 906 c 0,2,3
 592 882 592 882 470 882 c 128,-1,4
 348 882 348 882 248.5 930.5 c 128,-1,5
 149 979 149 979 149 1059 c 128,-1,6
 149 1139 149 1139 259 1196 c 0,7,8
 369 1252 369 1252 491 1251 c 0,9,10
 680 1249 680 1249 750 1184 c 0,11,12
 819 1121 819 1121 834 1124 c 0,13,14
 864 1130 864 1130 924 1261 c 1,15,-1
 1021 1205 l 1,16,17
 944 1118 944 1118 903 1045 c 0,18,19
 899 1042 899 1042 927 1009 c 0,20,21
 992 923 992 923 993 764 c 2,22,-1
 993 0 l 9,23,-1
 186 0 l 1,24,-1
 186 594 l 6,25,26
 186 677 186 677 245.5 734 c 132,-1,27
 305 791 305 791 386 791.5 c 132,-1,28
 467 792 467 792 524.5 734.5 c 132,-1,29
 582 677 582 677 582.5 597 c 132,-1,30
 583 517 583 517 525 459.5 c 132,-1,31
 467 402 467 402 384 402 c 4,32,33
 340 402 340 402 299 420 c 5,34,-1
 299 112 l 1,35,-1
 880 112 l 1,36,-1
 880 764 l 2,37,38
 880 868 880 868 829 953 c 0,39,40
 816 976 816 976 814 976 c 0,0,1
744 1054 m 0,41,42
 723 1072 723 1072 698 1086 c 0,43,44
 616 1133 616 1133 491 1142 c 256,45,46
 413 1146 413 1146 342 1121.5 c 128,-1,47
 271 1097 271 1097 271 1057.5 c 128,-1,48
 271 1018 271 1018 352 1000.5 c 128,-1,49
 433 983 433 983 500 985 c 0,50,51
 599 985 599 985 662 1009 c 0,52,53
 701 1024 701 1024 744 1054 c 0,41,42
470 596.5 m 132,-1,55
 470 631 470 631 445.5 655.5 c 132,-1,56
 421 680 421 680 386 680 c 132,-1,57
 351 680 351 680 326.5 655.5 c 132,-1,58
 302 631 302 631 302 596.5 c 132,-1,59
 302 562 302 562 326.5 538 c 132,-1,60
 351 514 351 514 386 514 c 132,-1,61
 421 514 421 514 445.5 538 c 132,-1,54
 470 562 470 562 470 596.5 c 132,-1,55
EndSplineSet
EndChar
StartChar: uni0E2F
Encoding: 3631 3631 170
Width: 1120
VWidth: 2045
Flags: W
HStem: 0 21G<848 961> 764 112<359.346 600.9> 1142 112<247.5 338.5>
VStem: 95 113<1012.65 1102.35> 378 113<1012.65 1102.35> 848 113<0 942 1120.1 1254>
Fore
383 882 m 5,0,1
 421 876 421 876 467 876 c 260,2,3
 570 876 570 876 658 926.5 c 132,-1,4
 746 977 746 977 797 1064 c 132,-1,5
 848 1151 848 1151 848 1254 c 13,6,-1
 961 1254 l 29,7,-1
 961 0 l 5,8,-1
 848 0 l 5,9,-1
 848 942 l 21,10,11
 793 876 793 876 697 820 c 132,-1,12
 601 764 601 764 467 764 c 260,13,14
 288 764 288 764 192 846.5 c 132,-1,15
 96 929 96 929 95 1057 c 4,16,17
 96 1139 96 1139 153 1196.5 c 132,-1,18
 210 1254 210 1254 292.5 1254 c 132,-1,19
 375 1254 375 1254 433 1196.5 c 132,-1,20
 491 1139 491 1139 491 1057.5 c 132,-1,21
 491 976 491 976 433 918 c 4,22,23
 409 897 409 897 383 882 c 5,0,1
208 1057.5 m 132,-1,25
 208 1023 208 1023 233 998 c 132,-1,26
 258 973 258 973 293 973 c 132,-1,27
 328 973 328 973 353 998 c 132,-1,28
 378 1023 378 1023 378 1057.5 c 132,-1,29
 378 1092 378 1092 353 1117 c 132,-1,30
 328 1142 328 1142 293 1142 c 132,-1,31
 258 1142 258 1142 233 1117 c 132,-1,24
 208 1092 208 1092 208 1057.5 c 132,-1,25
EndSplineSet
EndChar
StartChar: uni0E30
Encoding: 3632 3632 171
Width: 1120
VWidth: 2045
Flags: W
HStem: 42 148<282.5 448> 359 112<282.5 373.5> 683 151<282.5 448> 1000 112<282.5 373.5>
VStem: 131 113<229.5 320.5 871.5 962.5> 413 114<229.5 320.5 871.5 962.5> 787 113<333 489 972.7 1130>
Fore
900 1130 m 21,0,1
 900 1009 900 1009 839 906.5 c 132,-1,2
 778 804 778 804 674 743.5 c 132,-1,3
 570 683 570 683 448 683 c 4,4,5
 296 683 296 683 213.5 749.5 c 132,-1,6
 131 816 131 816 131 906.5 c 132,-1,7
 131 997 131 997 189 1054.5 c 132,-1,8
 247 1112 247 1112 328.5 1112 c 132,-1,9
 410 1112 410 1112 468.5 1053 c 132,-1,10
 527 994 527 994 527 908 c 4,11,12
 529 838 529 838 454 782 c 5,13,14
 585 793 585 793 686 892 c 132,-1,15
 787 991 787 991 787 1130 c 13,16,-1
 900 1130 l 21,0,1
244 917 m 132,-1,18
 244 882 244 882 268.5 858 c 132,-1,19
 293 834 293 834 328 834 c 132,-1,20
 363 834 363 834 388 858 c 132,-1,21
 413 882 413 882 413 917 c 132,-1,22
 413 952 413 952 388 976 c 132,-1,23
 363 1000 363 1000 328 1000 c 132,-1,24
 293 1000 293 1000 268.5 976 c 132,-1,17
 244 952 244 952 244 917 c 132,-1,18
900 489 m 17,25,26
 900 369 900 369 839 266 c 128,-1,27
 778 163 778 163 674 102.5 c 128,-1,28
 570 42 570 42 448 42 c 0,29,30
 296 42 296 42 213.5 108 c 128,-1,31
 131 174 131 174 131 265 c 128,-1,32
 131 356 131 356 189 413.5 c 128,-1,33
 247 471 247 471 328.5 471 c 128,-1,34
 410 471 410 471 468.5 410.5 c 128,-1,35
 527 350 527 350 527 266 c 0,36,37
 529 196 529 196 454 139 c 1,38,39
 585 151 585 151 686 250.5 c 128,-1,40
 787 350 787 350 787 489 c 9,41,-1
 900 489 l 17,25,26
244 275 m 128,-1,43
 244 240 244 240 268.5 215 c 128,-1,44
 293 190 293 190 328 190 c 128,-1,45
 363 190 363 190 388 215 c 128,-1,46
 413 240 413 240 413 275 c 128,-1,47
 413 310 413 310 388 334.5 c 128,-1,48
 363 359 363 359 328 359 c 128,-1,49
 293 359 293 359 268.5 334.5 c 128,-1,42
 244 310 244 310 244 275 c 128,-1,43
EndSplineSet
EndChar
StartChar: uni0E31
Encoding: 3633 3633 172
Width: 0
VWidth: 2045
Flags: W
HStem: 1384 149.5<-620.5 -454> 1701 111.5<-620.5 -529.5>
VStem: -771 113<1572.65 1662.35> -489 114<1572.65 1662.35> -116 113<1673.7 1831>
AnchorPoint: "AboveMark" -322.009 1932.01 basemark 0
AnchorPoint: "AboveBase" -278.113 1374.68 mark 0
Fore
-3 1831 m 21,0,1
 -3 1710 -3 1710 -64 1607 c 132,-1,2
 -125 1504 -125 1504 -228.5 1444 c 132,-1,3
 -332 1384 -332 1384 -454 1384 c 4,4,5
 -607 1384 -607 1384 -689 1450 c 132,-1,6
 -771 1516 -771 1516 -771 1607 c 132,-1,7
 -771 1698 -771 1698 -713.5 1755 c 132,-1,8
 -656 1812 -656 1812 -574 1812.5 c 132,-1,9
 -492 1813 -492 1813 -433.5 1753 c 132,-1,10
 -375 1693 -375 1693 -375 1607 c 4,11,12
 -374 1538 -374 1538 -448 1482 c 5,13,14
 -317 1492 -317 1492 -216.5 1592 c 132,-1,15
 -116 1692 -116 1692 -116 1831 c 13,16,-1
 -3 1831 l 21,0,1
-658 1617.5 m 132,-1,18
 -658 1583 -658 1583 -634 1558 c 132,-1,19
 -610 1533 -610 1533 -575 1533.5 c 132,-1,20
 -540 1534 -540 1534 -514.5 1558.5 c 132,-1,21
 -489 1583 -489 1583 -489 1617.5 c 132,-1,22
 -489 1652 -489 1652 -514.5 1676.5 c 132,-1,23
 -540 1701 -540 1701 -575 1701 c 132,-1,24
 -610 1701 -610 1701 -634 1676.5 c 132,-1,17
 -658 1652 -658 1652 -658 1617.5 c 132,-1,18
EndSplineSet
EndChar
StartChar: uni0E32
Encoding: 3634 3634 173
Width: 1082
VWidth: 2045
Flags: W
HStem: 0 21G<837 950> 1142 112<377.8 674.2>
VStem: 102 113<834 980.9> 837 113<0 981.5>
Fore
102 834 m 21,0,1
 102 947 102 947 159 1043.5 c 132,-1,2
 216 1140 216 1140 314 1197 c 132,-1,3
 412 1254 412 1254 526 1254 c 132,-1,4
 640 1254 640 1254 737.5 1197 c 132,-1,5
 835 1140 835 1140 892.5 1043.5 c 132,-1,6
 950 947 950 947 950 832 c 14,7,-1
 950 0 l 1,8,-1
 837 0 l 1,9,-1
 837 832 l 6,10,11
 837 961 837 961 746.5 1051.5 c 132,-1,12
 656 1142 656 1142 526 1142 c 132,-1,13
 396 1142 396 1142 305.5 1051.5 c 132,-1,14
 215 961 215 961 215 834 c 13,15,-1
 102 834 l 21,0,1
EndSplineSet
EndChar
StartChar: uni0E34
Encoding: 3636 3636 175
Width: 0
VWidth: 2045
Flags: W
HStem: 1693 112<-795.9 -526.8>
VStem: -1136 967<1361 1455.96 1361 1453>
AnchorPoint: "AboveMark" -299.159 1773.32 basemark 0
AnchorPoint: "AboveBase" -163.095 1296.25 mark 0
Fore
-322 1488 m 17,0,1
 -326 1495 -326 1495 -331 1504 c 0,2,3
 -381 1592 -381 1592 -469.5 1642.5 c 128,-1,4
 -558 1693 -558 1693 -662 1693 c 256,5,6
 -765 1693 -765 1693 -852 1643 c 16,7,8
 -915 1606 -915 1606 -960 1547 c 1,9,-1
 -322 1488 l 17,0,1
-169 1361 m 9,10,-1
 -1136 1453 l 1,11,12
 -1119 1510 -1119 1510 -1089 1562 c 8,13,14
 -1021 1674 -1021 1674 -908.5 1739.5 c 128,-1,15
 -796 1805 -796 1805 -662 1805 c 256,16,17
 -527 1805 -527 1805 -413 1739.5 c 128,-1,18
 -299 1674 -299 1674 -233 1562 c 0,19,20
 -178 1468 -178 1468 -169 1361 c 9,10,-1
EndSplineSet
EndChar
StartChar: uni0E35
Encoding: 3637 3637 176
Width: 0
VWidth: 2045
Flags: W
HStem: 1693 112<-795.9 -526.8>
VStem: -282 113<1630 1864>
AnchorPoint: "AboveBase" -158.521 1298.51 mark 0
AnchorPoint: "AboveMark" -218.772 1918.12 basemark 0
Fore
-169 1361 m 9,0,-1
 -1136 1453 l 1,1,2
 -1119 1510 -1119 1510 -1089 1562 c 8,3,4
 -1021 1674 -1021 1674 -908.5 1739.5 c 128,-1,5
 -796 1805 -796 1805 -662 1805 c 256,6,7
 -527 1805 -527 1805 -413 1740 c 0,8,9
 -337 1695 -337 1695 -282 1630 c 9,10,-1
 -282 1864 l 1,11,-1
 -169 1864 l 9,12,-1
 -169 1361 l 9,0,-1
-322 1488 m 17,13,14
 -326 1495 -326 1495 -331 1504 c 0,15,16
 -381 1592 -381 1592 -469.5 1642.5 c 128,-1,17
 -558 1693 -558 1693 -662 1693 c 256,18,19
 -765 1693 -765 1693 -852 1643 c 16,20,21
 -915 1606 -915 1606 -960 1547 c 1,22,-1
 -322 1488 l 17,13,14
EndSplineSet
EndChar
StartChar: uni0E36
Encoding: 3638 3638 177
Width: 0
VWidth: 2045
Flags: W
HStem: 1693 112<-795.9 -555.502> 1897 112<-417.5 -326.5>
VStem: -570 113<1792.99 1857.35> -287 113<1767.65 1857.35>
AnchorPoint: "AboveBase" -173.767 1300.78 mark 0
AnchorPoint: "AboveMark" -346.73 2030.79 basemark 0
Fore
-287 1634 m 1,0,1
 -256 1601 -256 1601 -233 1562 c 0,2,3
 -178 1468 -178 1468 -169 1361 c 9,4,-1
 -1136 1453 l 1,5,6
 -1119 1510 -1119 1510 -1089 1562 c 8,7,8
 -1021 1674 -1021 1674 -908.5 1739.5 c 128,-1,9
 -796 1805 -796 1805 -662 1805 c 256,10,11
 -613 1805 -613 1805 -569 1797 c 1,12,13
 -570 1803 -570 1803 -570 1812 c 0,14,15
 -570 1894 -570 1894 -512 1951.5 c 128,-1,16
 -454 2009 -454 2009 -372 2009 c 128,-1,17
 -290 2009 -290 2009 -232 1951.5 c 128,-1,18
 -174 1894 -174 1894 -174 1812.5 c 128,-1,19
 -174 1731 -174 1731 -232 1674 c 0,20,21
 -258 1649 -258 1649 -287 1634 c 1,0,1
-457 1812.5 m 128,-1,23
 -457 1778 -457 1778 -432 1753 c 128,-1,24
 -407 1728 -407 1728 -372 1728 c 128,-1,25
 -337 1728 -337 1728 -312 1753 c 128,-1,26
 -287 1778 -287 1778 -287 1812.5 c 128,-1,27
 -287 1847 -287 1847 -312 1872 c 128,-1,28
 -337 1897 -337 1897 -372 1897 c 128,-1,29
 -407 1897 -407 1897 -432 1872 c 128,-1,22
 -457 1847 -457 1847 -457 1812.5 c 128,-1,23
-322 1488 m 17,30,31
 -326 1495 -326 1495 -331 1504 c 0,32,33
 -381 1592 -381 1592 -469.5 1642.5 c 128,-1,34
 -558 1693 -558 1693 -662 1693 c 256,35,36
 -765 1693 -765 1693 -852 1643 c 16,37,38
 -915 1606 -915 1606 -960 1547 c 1,39,-1
 -322 1488 l 17,30,31
EndSplineSet
EndChar
StartChar: uni0E37
Encoding: 3639 3639 178
Width: 0
VWidth: 2045
Flags: W
HStem: 1693 112<-795.9 -556.7>
VStem: -508 113<1781 1864> -282 113<1630 1864>
AnchorPoint: "AboveMark" -216.485 1917.72 basemark 0
AnchorPoint: "AboveBase" -174.528 1293.98 mark 0
Fore
-395 1728 m 17,0,1
 -329 1687 -329 1687 -282 1630 c 9,2,-1
 -282 1864 l 1,3,-1
 -169 1864 l 9,4,-1
 -169 1361 l 9,5,-1
 -1136 1453 l 1,6,7
 -1119 1510 -1119 1510 -1089 1562 c 8,8,9
 -1021 1674 -1021 1674 -908.5 1739.5 c 128,-1,10
 -796 1805 -796 1805 -662 1805 c 256,11,12
 -581 1805 -581 1805 -508 1781 c 9,13,-1
 -508 1864 l 1,14,-1
 -395 1864 l 1,15,-1
 -395 1728 l 17,0,1
-322 1488 m 17,16,17
 -326 1495 -326 1495 -331 1504 c 0,18,19
 -381 1592 -381 1592 -469.5 1642.5 c 128,-1,20
 -558 1693 -558 1693 -662 1693 c 256,21,22
 -765 1693 -765 1693 -852 1643 c 16,23,24
 -915 1606 -915 1606 -960 1547 c 1,25,-1
 -322 1488 l 17,16,17
EndSplineSet
EndChar
StartChar: uni0E38
Encoding: 3640 3640 179
Width: 0
VWidth: 2045
Flags: W
HStem: -474 112<-406.5 -315.5> -196 111.5<-406.5 -315.5>
VStem: -558 113<-324.35 -234.65> -276 113<-671 -456 -324.35 -234.65>
AnchorPoint: "BelowBase" -158.835 -88.4521 mark 0
Fore
-276 -671 m 1,0,-1
 -163 -671 l 1,1,-1
 -163 -279 l 2,2,3
 -163 -199 -163 -199 -221 -142 c 128,-1,4
 -279 -85 -279 -85 -360.5 -84.5 c 128,-1,5
 -442 -84 -442 -84 -500 -141.5 c 128,-1,6
 -558 -199 -558 -199 -558 -279 c 128,-1,7
 -558 -359 -558 -359 -500 -416.5 c 128,-1,8
 -442 -474 -442 -474 -360 -474 c 0,9,10
 -314 -474 -314 -474 -276 -456 c 0,11,-1
 -276 -671 l 1,0,-1
-445 -279.5 m 128,-1,13
 -445 -245 -445 -245 -420.5 -220.5 c 128,-1,14
 -396 -196 -396 -196 -361 -196 c 128,-1,15
 -326 -196 -326 -196 -301 -220.5 c 128,-1,16
 -276 -245 -276 -245 -276 -279.5 c 128,-1,17
 -276 -314 -276 -314 -301 -338 c 128,-1,18
 -326 -362 -326 -362 -361 -362 c 128,-1,19
 -396 -362 -396 -362 -420.5 -338 c 128,-1,12
 -445 -314 -445 -314 -445 -279.5 c 128,-1,13
EndSplineSet
EndChar
StartChar: uni0E39
Encoding: 3641 3641 180
Width: 0
VWidth: 2045
Flags: W
HStem: -669 112<-443 -274> -474 112<-687.5 -596.5> -196 111.5<-687.5 -596.5>
VStem: -839 113<-324.35 -234.65> -556 113<-557 -456 -324.35 -234.65> -274 113<-557 -84>
AnchorPoint: "AboveMark" -185.807 1193.52 mark 0
AnchorPoint: "BelowBase" -112.1 -84.9668 mark 0
Fore
-556 -669 m 5,0,-1
 -161 -669 l 21,1,-1
 -161 -84 l 1,2,-1
 -274 -84 l 1,3,-1
 -274 -557 l 29,4,-1
 -443 -557 l 5,5,-1
 -443 -279 l 2,6,7
 -443 -199 -443 -199 -501.5 -142 c 128,-1,8
 -560 -85 -560 -85 -641.5 -84.5 c 128,-1,9
 -723 -84 -723 -84 -781 -141.5 c 128,-1,10
 -839 -199 -839 -199 -839 -279 c 128,-1,11
 -839 -359 -839 -359 -781 -416.5 c 128,-1,12
 -723 -474 -723 -474 -640 -474 c 0,13,14
 -595 -474 -595 -474 -556 -456 c 0,15,-1
 -556 -669 l 5,0,-1
-726 -279.5 m 128,-1,17
 -726 -245 -726 -245 -701.5 -220.5 c 128,-1,18
 -677 -196 -677 -196 -642 -196 c 128,-1,19
 -607 -196 -607 -196 -581.5 -220.5 c 128,-1,20
 -556 -245 -556 -245 -556 -279.5 c 128,-1,21
 -556 -314 -556 -314 -581.5 -338 c 128,-1,22
 -607 -362 -607 -362 -642 -362 c 128,-1,23
 -677 -362 -677 -362 -701.5 -338 c 128,-1,16
 -726 -314 -726 -314 -726 -279.5 c 128,-1,17
EndSplineSet
EndChar
StartChar: uni0E3A
Encoding: 3642 3642 181
Width: 0
VWidth: 2045
Flags: W
AnchorPoint: "BelowBase" -185.278 -86.1191 mark 0
Fore
-460 -220.5 m 128,-1,1
 -460 -163 -460 -163 -419 -122.5 c 128,-1,2
 -378 -82 -378 -82 -320 -81.5 c 128,-1,3
 -262 -81 -262 -81 -221 -122 c 128,-1,4
 -180 -163 -180 -163 -179.5 -220.5 c 128,-1,5
 -179 -278 -179 -278 -220.5 -318.5 c 128,-1,6
 -262 -359 -262 -359 -320 -359 c 128,-1,7
 -378 -359 -378 -359 -419 -318.5 c 128,-1,0
 -460 -278 -460 -278 -460 -220.5 c 128,-1,1
EndSplineSet
EndChar
StartChar: uni0E3F
Encoding: 3647 3647 182
Width: 1364
VWidth: 2045
Flags: W
HStem: 0 136<284 518 654 863> 692 127<284 518 654 843> 1314 136<284 518 654 793>
VStem: 156 128<136 692 819 1314> 518 136<-133 0 136 692 819 1314 1450 1595> 1040 137<961 1196.3> 1101 146<343.98 534.4>
Fore
654 0 m 25,0,-1
 654 -133 l 1,1,-1
 518 -133 l 1,2,-1
 518 0 l 25,3,-1
 156 0 l 1,4,-1
 156 1450 l 1,5,-1
 518 1450 l 25,6,-1
 518 1595 l 9,7,-1
 654 1595 l 17,8,-1
 654 1450 l 25,9,-1
 692 1450 l 2,10,11
 860 1450 860 1450 966.5 1403 c 128,-1,12
 1073 1356 1073 1356 1125 1262.5 c 128,-1,13
 1177 1169 1177 1169 1177 1078 c 0,14,15
 1177 988 1177 988 1126 905 c 128,-1,16
 1075 822 1075 822 973 772 c 1,17,18
 1107 731 1107 731 1179.5 634.5 c 128,-1,19
 1252 538 1252 538 1247 420 c 0,20,21
 1244 293 1244 293 1195 211.5 c 128,-1,22
 1146 130 1146 130 1090 89 c 128,-1,23
 1034 48 1034 48 948.5 24 c 128,-1,24
 863 0 863 0 747 0 c 2,25,-1
 654 0 l 25,0,-1
654 819 m 25,26,-1
 721 819 l 2,27,28
 851 819 851 819 945.5 877.5 c 128,-1,29
 1040 936 1040 936 1040 1056 c 0,30,31
 1040 1172 1040 1172 986.5 1222 c 128,-1,32
 933 1272 933 1272 863 1293 c 128,-1,33
 793 1314 793 1314 698 1314 c 2,34,-1
 654 1314 l 17,35,-1
 654 819 l 25,26,-1
654 136 m 25,36,-1
 768 136 l 2,37,38
 867 136 867 136 926 160 c 128,-1,39
 985 184 985 184 1028.5 232.5 c 128,-1,40
 1072 281 1072 281 1086.5 328 c 128,-1,41
 1101 375 1101 375 1101 420 c 0,42,43
 1101 508 1101 508 1052 568 c 128,-1,44
 1003 628 1003 628 923 660 c 128,-1,45
 843 692 843 692 744 692 c 2,46,-1
 654 692 l 17,47,-1
 654 136 l 25,36,-1
518 136 m 25,48,-1
 518 692 l 9,49,-1
 284 692 l 1,50,-1
 284 136 l 1,51,-1
 518 136 l 25,48,-1
518 819 m 25,52,-1
 518 1314 l 9,53,-1
 284 1314 l 1,54,-1
 284 819 l 1,55,-1
 518 819 l 25,52,-1
EndSplineSet
EndChar
StartChar: uni0E40
Encoding: 3648 3648 183
Width: 629
VWidth: 2045
Flags: W
HStem: 0 112<315.5 406.5> 279 112<315.5 406.5>
VStem: 165 113<149.5 240.5 373 1254> 447 113<149.5 240.5>
Fore
447 195 m 132,-1,1
 447 230 447 230 421.5 254.5 c 132,-1,2
 396 279 396 279 361 279 c 132,-1,3
 326 279 326 279 301.5 254.5 c 132,-1,4
 277 230 277 230 277.5 195 c 132,-1,5
 278 160 278 160 302 136 c 132,-1,6
 326 112 326 112 361 112 c 132,-1,7
 396 112 396 112 421.5 136 c 132,-1,0
 447 160 447 160 447 195 c 132,-1,1
278 1254 m 21,8,-1
 278 373 l 21,9,10
 318 391 318 391 363 391 c 4,11,12
 444 391 444 391 502 333.5 c 132,-1,13
 560 276 560 276 560 195.5 c 132,-1,14
 560 115 560 115 502 57.5 c 132,-1,15
 444 0 444 0 362.5 0 c 132,-1,16
 281 0 281 0 223 57.5 c 132,-1,17
 165 115 165 115 165 196 c 14,18,-1
 165 1254 l 13,19,-1
 278 1254 l 21,8,-1
EndSplineSet
EndChar
StartChar: uni0E41
Encoding: 3649 3649 184
Width: 1173
VWidth: 2045
Flags: W
HStem: 0 112<315.5 406.5 879.5 970.5> 279 112<315.5 406.5 879.5 970.5>
VStem: 165 113<149.5 240.5 373 1254> 447 113<149.5 240.5> 729 113<149.5 240.5 373 1254> 1011 113<149.5 240.5>
Fore
1011 195 m 132,-1,1
 1011 230 1011 230 985.5 254.5 c 132,-1,2
 960 279 960 279 925 279 c 132,-1,3
 890 279 890 279 866 254.5 c 132,-1,4
 842 230 842 230 842 195 c 132,-1,5
 842 160 842 160 866 136 c 132,-1,6
 890 112 890 112 925 112 c 132,-1,7
 960 112 960 112 985.5 136 c 132,-1,0
 1011 160 1011 160 1011 195 c 132,-1,1
842 1254 m 21,8,-1
 842 373 l 21,9,10
 882 391 882 391 927 391 c 4,11,12
 1008 391 1008 391 1066 333.5 c 132,-1,13
 1124 276 1124 276 1124 195.5 c 132,-1,14
 1124 115 1124 115 1066 57.5 c 132,-1,15
 1008 0 1008 0 926.5 0 c 132,-1,16
 845 0 845 0 787 57.5 c 132,-1,17
 729 115 729 115 729 196 c 14,18,-1
 729 1254 l 13,19,-1
 842 1254 l 21,8,-1
447 195 m 128,-1,21
 447 230 447 230 421.5 254.5 c 128,-1,22
 396 279 396 279 361 279 c 128,-1,23
 326 279 326 279 301.5 254.5 c 128,-1,24
 277 230 277 230 277.5 195 c 128,-1,25
 278 160 278 160 302 136 c 128,-1,26
 326 112 326 112 361 112 c 128,-1,27
 396 112 396 112 421.5 136 c 128,-1,20
 447 160 447 160 447 195 c 128,-1,21
278 1254 m 17,28,-1
 278 373 l 17,29,30
 318 391 318 391 363 391 c 0,31,32
 444 391 444 391 502 333.5 c 128,-1,33
 560 276 560 276 560 195.5 c 128,-1,34
 560 115 560 115 502 57.5 c 128,-1,35
 444 0 444 0 362.5 0 c 128,-1,36
 281 0 281 0 223 57.5 c 128,-1,37
 165 115 165 115 165 196 c 10,38,-1
 165 1254 l 9,39,-1
 278 1254 l 17,28,-1
EndSplineSet
EndChar
StartChar: uni0E42
Encoding: 3650 3650 185
Width: 757
VWidth: 2045
Flags: W
HStem: 0 112<486.5 577.5> 279 112<486.5 577.5> 1619 112<-40 282.1> 1927 112<102.65 400.35>
VStem: 334 113<149.5 240.5 373 1566.8> 616 113<149.5 240.5>
Fore
616 195 m 128,-1,1
 616 230 616 230 591.5 254.5 c 128,-1,2
 567 279 567 279 532 279 c 128,-1,3
 497 279 497 279 472 254.5 c 128,-1,4
 447 230 447 230 447 195 c 128,-1,5
 447 160 447 160 472 136 c 128,-1,6
 497 112 497 112 532 112 c 128,-1,7
 567 112 567 112 591.5 136 c 128,-1,0
 616 160 616 160 616 195 c 128,-1,1
334 1507 m 14,8,9
 334 1553 334 1553 300 1586 c 4,10,11
 268 1619 268 1619 221 1619 c 6,12,-1
 -172 1619 l 5,13,14
 -172 1732 -172 1732 -115 1829 c 132,-1,15
 -58 1926 -58 1926 39.5 1982.5 c 132,-1,16
 137 2039 137 2039 251.5 2039 c 132,-1,17
 366 2039 366 2039 463.5 1982.5 c 132,-1,18
 561 1926 561 1926 619 1829 c 4,19,20
 646 1781 646 1781 662 1728 c 13,21,-1
 552 1704 l 21,22,23
 531 1778 531 1778 471 1837 c 4,24,25
 381 1927 381 1927 251.5 1927 c 132,-1,26
 122 1927 122 1927 32 1837 c 4,27,28
 -17 1788 -17 1788 -40 1731 c 13,29,-1
 221 1731 l 6,30,31
 316 1729 316 1729 381.5 1664.5 c 132,-1,32
 447 1600 447 1600 447 1507 c 22,33,-1
 447 373 l 1,34,35
 485 391 485 391 531 391 c 0,36,37
 613 391 613 391 671 333.5 c 128,-1,38
 729 276 729 276 729 195.5 c 128,-1,39
 729 115 729 115 671 57.5 c 128,-1,40
 613 0 613 0 531.5 0 c 128,-1,41
 450 0 450 0 392 57.5 c 128,-1,42
 334 115 334 115 334 196 c 2,43,-1
 334 1507 l 14,8,9
EndSplineSet
EndChar
StartChar: uni0E43
Encoding: 3651 3651 186
Width: 867
VWidth: 2045
Flags: W
HStem: 0 112<562.5 653.5> 279 112<562.5 653.5> 1501 112<135.5 226.5> 1781 112<135.5 226.5> 1924 112<161.7 332>
VStem: -41 139<1652.65 1755> 265 113<1652.65 1742.35> 410 113<149.5 240.5 373 1846> 692 113<149.5 240.5>
Fore
136 1888 m 5,0,1
 159 1893 159 1893 181 1893 c 4,2,3
 262 1893 262 1893 320 1835.5 c 132,-1,4
 378 1778 378 1778 378 1697 c 132,-1,5
 378 1616 378 1616 320 1558.5 c 132,-1,6
 262 1501 262 1501 181 1501 c 4,7,8
 91 1501 91 1501 25 1566 c 132,-1,9
 -41 1631 -41 1631 -41 1755 c 4,10,11
 -41 1871 -41 1871 42 1953.5 c 132,-1,12
 125 2036 125 2036 241 2036 c 132,-1,13
 357 2036 357 2036 440 1953.5 c 132,-1,14
 523 1871 523 1871 523 1755 c 6,15,-1
 523 373 l 1,16,17
 561 391 561 391 607 391 c 0,18,19
 689 391 689 391 747 333.5 c 128,-1,20
 805 276 805 276 805 195.5 c 128,-1,21
 805 115 805 115 747 57.5 c 128,-1,22
 689 0 689 0 607.5 0 c 128,-1,23
 526 0 526 0 468 57.5 c 128,-1,24
 410 115 410 115 410 196 c 2,25,-1
 410 1755 l 6,26,27
 410 1825 410 1825 360.5 1874.5 c 132,-1,28
 311 1924 311 1924 241 1924 c 4,29,30
 180 1924 180 1924 136 1888 c 5,0,1
98 1697.5 m 132,-1,32
 98 1663 98 1663 122 1638 c 132,-1,33
 146 1613 146 1613 181 1613 c 132,-1,34
 216 1613 216 1613 240.5 1638 c 132,-1,35
 265 1663 265 1663 265 1697.5 c 132,-1,36
 265 1732 265 1732 240.5 1756.5 c 132,-1,37
 216 1781 216 1781 181 1781 c 132,-1,38
 146 1781 146 1781 122 1756.5 c 132,-1,31
 98 1732 98 1732 98 1697.5 c 132,-1,32
692 195 m 128,-1,40
 692 230 692 230 667.5 254.5 c 128,-1,41
 643 279 643 279 608 279 c 128,-1,42
 573 279 573 279 548 254.5 c 128,-1,43
 523 230 523 230 523 195 c 128,-1,44
 523 160 523 160 548 136 c 128,-1,45
 573 112 573 112 608 112 c 128,-1,46
 643 112 643 112 667.5 136 c 128,-1,39
 692 160 692 160 692 195 c 128,-1,40
EndSplineSet
EndChar
StartChar: uni0E44
Encoding: 3652 3652 187
Width: 811
VWidth: 2045
Flags: W
HStem: 0 112<507.5 598.5> 279 112<507.5 598.5>
VStem: -46 113<1674 2102.3> 357 113<149.5 240.5 373 1868> 639 113<149.5 240.5>
Fore
-46 1521 m 25,0,-1
 -46 1997 l 2,1,2
 -46 2078 -46 2078 -104 2136 c 9,3,-1
 -24 2214 l 17,4,5
 67 2124 67 2124 67 1997 c 2,6,-1
 67 1674 l 9,7,-1
 357 2032 l 9,8,-1
 470 2032 l 25,9,-1
 470 373 l 1,10,11
 510 391 510 391 555 391 c 0,12,13
 636 391 636 391 694 333.5 c 128,-1,14
 752 276 752 276 752 195.5 c 128,-1,15
 752 115 752 115 694 57.5 c 128,-1,16
 636 0 636 0 554.5 0 c 128,-1,17
 473 0 473 0 415 57.5 c 128,-1,18
 357 115 357 115 357 196 c 2,19,-1
 357 1868 l 17,20,-1
 76 1521 l 25,21,-1
 -46 1521 l 25,0,-1
639 195 m 128,-1,23
 639 230 639 230 613.5 254.5 c 128,-1,24
 588 279 588 279 553 279 c 128,-1,25
 518 279 518 279 494 254.5 c 128,-1,26
 470 230 470 230 470 195 c 128,-1,27
 470 160 470 160 494 136 c 128,-1,28
 518 112 518 112 553 112 c 128,-1,29
 588 112 588 112 613.5 136 c 128,-1,22
 639 160 639 160 639 195 c 128,-1,23
EndSplineSet
EndChar
StartChar: uni0E45
Encoding: 3653 3653 188
Width: 1082
VWidth: 2045
Flags: W
HStem: 1142 112<246.35 546.65>
VStem: -27 113<834 980.9> 707 113<-548 981.5>
Fore
820 832 m 18,0,1
 820 947 820 947 763.5 1043.5 c 128,-1,2
 707 1140 707 1140 609.5 1197 c 128,-1,3
 512 1254 512 1254 396.5 1254 c 128,-1,4
 281 1254 281 1254 183 1197 c 128,-1,5
 85 1140 85 1140 29 1043.5 c 128,-1,6
 -27 947 -27 947 -27 834 c 9,7,-1
 86 834 l 17,8,9
 86 961 86 961 177 1051.5 c 128,-1,10
 268 1142 268 1142 396 1142 c 128,-1,11
 524 1142 524 1142 615.5 1051.5 c 128,-1,12
 707 961 707 961 707 832 c 10,13,-1
 707 -548 l 13,14,-1
 820 -548 l 29,15,-1
 820 832 l 18,0,1
EndSplineSet
EndChar
StartChar: uni0E46
Encoding: 3654 3654 189
Width: 1173
VWidth: 2045
Flags: W
HStem: 618 113<324.35 416.65> 899 110<324.35 416.65>
VStem: 123 162<768.5 912> 454 113<768.5 859.5> 846 113<-548 1012>
Fore
846 -548 m 5,0,-1
 846 906 l 2,1,2
 846 1012 846 1012 810 1059.5 c 128,-1,3
 774 1107 774 1107 704 1124 c 1,4,-1
 567 1039 l 1,5,-1
 418 1130 l 17,6,7
 354 1121 354 1121 299 1073.5 c 128,-1,8
 244 1026 244 1026 235 946 c 1,9,10
 285 1007 285 1007 370 1009 c 0,11,12
 451 1011 451 1011 509 952.5 c 128,-1,13
 567 894 567 894 567 813.5 c 128,-1,14
 567 733 567 733 509 675.5 c 128,-1,15
 451 618 451 618 370 618 c 0,16,17
 259 618 259 618 191 697 c 128,-1,18
 123 776 123 776 123 912 c 0,19,20
 123 1045 123 1045 217 1142 c 128,-1,21
 311 1239 311 1239 431 1254 c 1,22,-1
 567 1171 l 1,23,-1
 701 1254 l 1,24,25
 787 1242 787 1242 873 1158.5 c 128,-1,26
 959 1075 959 1075 959 908 c 2,27,-1
 959 -548 l 5,28,-1
 846 -548 l 5,0,-1
285 814 m 128,-1,30
 285 779 285 779 310 755 c 128,-1,31
 335 731 335 731 370.5 731 c 128,-1,32
 406 731 406 731 430 755 c 128,-1,33
 454 779 454 779 454 814 c 128,-1,34
 454 849 454 849 430 874 c 128,-1,35
 406 899 406 899 370.5 899 c 128,-1,36
 335 899 335 899 310 874 c 128,-1,29
 285 849 285 849 285 814 c 128,-1,30
EndSplineSet
EndChar
StartChar: uni0E47
Encoding: 3655 3655 190
Width: 0
VWidth: 2045
Flags: W
HStem: 1296 86<-455.214 -385.786> 1399.5 111<-771.3 -683.05> 1494 83<-455.214 -385.786> 1658 101.5<-846.25 -407.845>
VStem: -1024 112<1452.52 1610> -561 84<1403.84 1472.16> -364 83<1403.84 1472.16>
AnchorPoint: "AboveMark" -659.261 1267.29 mark 0
AnchorPoint: "AboveBase" -272.014 1267.68 mark 0
Fore
-238 1803 m 1,0,-1
 -314 1876 l 1,1,2
 -364 1805 -364 1805 -418.5 1778.5 c 128,-1,3
 -473 1752 -473 1752 -656 1759.5 c 128,-1,4
 -839 1767 -839 1767 -931.5 1698.5 c 128,-1,5
 -1024 1630 -1024 1630 -1024 1519 c 0,6,7
 -1024 1403 -1024 1403 -954 1351 c 128,-1,8
 -884 1299 -884 1299 -778 1296 c 1,9,10
 -782 1329 -782 1329 -770.5 1364.5 c 128,-1,11
 -759 1400 -759 1400 -718 1399.5 c 128,-1,12
 -677 1399 -677 1399 -610.5 1347.5 c 128,-1,13
 -544 1296 -544 1296 -436 1296 c 16,14,15
 -364 1296 -364 1296 -323 1338 c 0,16,17
 -281 1381 -281 1381 -281 1438 c 128,-1,18
 -281 1495 -281 1495 -322 1536 c 128,-1,19
 -363 1577 -363 1577 -421 1577 c 128,-1,20
 -479 1577 -479 1577 -520 1536 c 128,-1,21
 -561 1495 -561 1495 -561 1438 c 0,22,23
 -561 1420 -561 1420 -560 1408 c 1,24,25
 -592 1411 -592 1411 -644.5 1460 c 128,-1,26
 -697 1509 -697 1509 -743.5 1510.5 c 144,-1,27
 -790 1512 -790 1512 -817.5 1476.5 c 128,-1,28
 -845 1441 -845 1441 -845 1402 c 1,29,30
 -878 1412 -878 1412 -895 1441 c 128,-1,31
 -912 1470 -912 1470 -912 1519 c 0,32,33
 -912 1589 -912 1589 -852.5 1626.5 c 128,-1,34
 -793 1664 -793 1664 -615.5 1658 c 128,-1,35
 -438 1652 -438 1652 -367.5 1689 c 128,-1,36
 -297 1726 -297 1726 -238 1803 c 1,0,-1
-477 1438 m 128,-1,38
 -477 1462 -477 1462 -461 1478 c 128,-1,39
 -445 1494 -445 1494 -420.5 1494 c 128,-1,40
 -396 1494 -396 1494 -380 1478 c 128,-1,41
 -364 1462 -364 1462 -364 1438 c 128,-1,42
 -364 1414 -364 1414 -380 1398 c 128,-1,43
 -396 1382 -396 1382 -420.5 1382 c 128,-1,44
 -445 1382 -445 1382 -461 1398 c 128,-1,37
 -477 1414 -477 1414 -477 1438 c 128,-1,38
EndSplineSet
EndChar
StartChar: uni0E48
Encoding: 3656 3656 191
Width: 0
VWidth: 2045
Flags: W
VStem: -454 113<1737 2042>
AnchorPoint: "AboveMark" -357.627 1659.99 mark 0
Fore
-454 2042 m 25,0,-1
 -341 2042 l 1,1,-1
 -341 1737 l 1,2,-1
 -454 1737 l 1,3,-1
 -454 2042 l 25,0,-1
EndSplineSet
MultipleSubs2: "Multiple Substitution lookup 5" uni0E4D uni0E48
Substitution2: "Single Substitution lookup 4" uni0E48.low
EndChar
StartChar: uni0E49
Encoding: 3657 3657 192
Width: 0
VWidth: 2045
Flags: W
HStem: 2054 85<-602.404 -533.837>
VStem: -709 84<1965.51 2031.25> -512 85<1965.51 2031.25> -146 114<2044.1 2178>
AnchorPoint: "AboveMark" -236.754 1671.54 mark 0
Fore
-585 1870 m 17,0,1
 -630 1870 -630 1870 -669.5 1904.5 c 128,-1,2
 -709 1939 -709 1939 -709 1998 c 128,-1,3
 -709 2057 -709 2057 -668 2098 c 128,-1,4
 -627 2139 -627 2139 -568 2139 c 128,-1,5
 -509 2139 -509 2139 -468 2098 c 128,-1,6
 -427 2057 -427 2057 -427 1998 c 0,7,8
 -427 1947 -427 1947 -448 1917 c 2,9,-1
 -527 1800 l 5,10,11
 -425 1800 -425 1800 -337.5 1850 c 132,-1,12
 -250 1900 -250 1900 -198 1987.5 c 156,-1,13
 -146 2075 -146 2075 -146 2178 c 269,14,-1
 -32 2178 l 277,15,16
 -32 2045 -32 2045 -98.5 1932 c 132,-1,17
 -165 1819 -165 1819 -279 1754 c 156,-1,18
 -393 1689 -393 1689 -527 1689 c 14,19,-1
 -640 1689 l 1,20,-1
 -640 1800 l 1,21,-1
 -585 1870 l 17,0,1
-625 1998.5 m 128,-1,23
 -625 1976 -625 1976 -608.5 1959 c 128,-1,24
 -592 1942 -592 1942 -568 1942 c 128,-1,25
 -544 1942 -544 1942 -528 1959 c 128,-1,26
 -512 1976 -512 1976 -512 1998.5 c 128,-1,27
 -512 2021 -512 2021 -528 2037.5 c 128,-1,28
 -544 2054 -544 2054 -568 2054 c 128,-1,29
 -592 2054 -592 2054 -608.5 2037.5 c 128,-1,22
 -625 2021 -625 2021 -625 1998.5 c 128,-1,23
EndSplineSet
Substitution2: "Single Substitution lookup 4" uni0E49.low
MultipleSubs2: "Multiple Substitution lookup 5" uni0E4D uni0E49
EndChar
StartChar: uni0E4A
Encoding: 3658 3658 193
Width: 0
VWidth: 2045
Flags: W
HStem: 1686 84.5<-765.108 -697.473> 1882 85<-763.544 -696.697> 2021 112<-773.55 -647.45 -492.8 -373.2>
VStem: -933 146<1794.95 1909> -674 85<1792.13 1859.35> -320 113<1855.25 1967.5> -52 114<2041.1 2175>
AnchorPoint: "AboveMark" -457.524 1658.66 mark 0
Fore
-433 1797 m 1,0,-1
-210 1867 m 1,1,2
 -146 1914 -146 1914 -104 1985 c 8,3,4
 -52 2072 -52 2072 -52 2175 c 265,5,-1
 62 2175 l 273,6,7
 62 2042 62 2042 -4 1929.5 c 128,-1,8
 -70 1817 -70 1817 -184.5 1751.5 c 152,-1,9
 -299 1686 -299 1686 -433 1686 c 9,10,-1
 -433 1797 l 17,11,12
 -375 1808 -375 1808 -347.5 1836 c 128,-1,13
 -320 1864 -320 1864 -320 1909 c 152,-1,14
 -320 1954 -320 1954 -353.5 1987.5 c 128,-1,15
 -387 2021 -387 2021 -433 2021 c 152,-1,16
 -479 2021 -479 2021 -512 1988 c 0,17,18
 -524 1976 -524 1976 -534 1962 c 1,19,-1
 -607 1962 l 1,20,21
 -616 1976 -616 1976 -628 1988 c 0,22,23
 -662 2021 -662 2021 -710.5 2021 c 152,-1,24
 -759 2021 -759 2021 -793.5 1984 c 128,-1,25
 -828 1947 -828 1947 -828 1909 c 1,26,27
 -802 1967 -802 1967 -721 1967 c 0,28,29
 -666 1967 -666 1967 -627 1926 c 128,-1,30
 -588 1885 -588 1885 -589 1825 c 0,31,32
 -589 1767 -589 1767 -630 1726.5 c 128,-1,33
 -671 1686 -671 1686 -730 1686 c 0,34,35
 -820 1686 -820 1686 -876.5 1744 c 128,-1,36
 -933 1802 -933 1802 -933 1909 c 24,37,38
 -933 2003 -933 2003 -867.5 2068 c 128,-1,39
 -802 2133 -802 2133 -707 2133 c 16,40,41
 -628 2133 -628 2133 -570 2087 c 1,42,43
 -512 2133 -512 2133 -433 2133 c 8,44,45
 -338 2133 -338 2133 -272.5 2068 c 128,-1,46
 -207 2003 -207 2003 -207 1909 c 16,47,48
 -207 1888 -207 1888 -210 1867 c 1,1,2
-787 1825.5 m 128,-1,50
 -787 1802 -787 1802 -770 1786 c 128,-1,51
 -753 1770 -753 1770 -730 1770.5 c 128,-1,52
 -707 1771 -707 1771 -690.5 1786.5 c 128,-1,53
 -674 1802 -674 1802 -674 1825.5 c 128,-1,54
 -674 1849 -674 1849 -690.5 1865.5 c 128,-1,55
 -707 1882 -707 1882 -730 1882 c 128,-1,56
 -753 1882 -753 1882 -770 1865.5 c 128,-1,49
 -787 1849 -787 1849 -787 1825.5 c 128,-1,50
EndSplineSet
Substitution2: "Single Substitution lookup 4" uni0E4A.low
MultipleSubs2: "Multiple Substitution lookup 5" uni0E4D uni0E4A
EndChar
StartChar: uni0E4B
Encoding: 3659 3659 194
Width: 0
VWidth: 2045
Flags: W
HStem: 1859 112<-598 -448 -335 -186>
VStem: -448 113<1710 1859 1971 2121>
AnchorPoint: "AboveMark" -387.384 1652.93 mark 0
Fore
-186 1859 m 1,0,-1
 -335 1859 l 1,1,-1
 -335 1710 l 1,2,-1
 -448 1710 l 1,3,-1
 -448 1859 l 1,4,-1
 -598 1859 l 1,5,-1
 -598 1971 l 1,6,-1
 -448 1971 l 1,7,-1
 -448 2121 l 1,8,-1
 -335 2121 l 1,9,-1
 -335 1971 l 1,10,-1
 -186 1971 l 1,11,-1
 -186 1859 l 1,0,-1
EndSplineSet
Substitution2: "Single Substitution lookup 4" uni0E4B.low
MultipleSubs2: "Multiple Substitution lookup 5" uni0E4D uni0E4B
EndChar
StartChar: uni0E4C
Encoding: 3660 3660 195
Width: 0
VWidth: 2045
Flags: W
HStem: 1701 111<-576.65 -484.35> 1979 111<-576.65 -484.35 -352 -73.4>
VStem: -729 113<1850.65 1940.35> -445 113<1850.65 1940.35>
AnchorPoint: "AboveMark" -387.384 1662 mark 0
Fore
-352 1979 m 17,0,1
 -332 1941 -332 1941 -332 1896 c 0,2,3
 -332 1816 -332 1816 -390 1758.5 c 128,-1,4
 -448 1701 -448 1701 -530.5 1701 c 128,-1,5
 -613 1701 -613 1701 -671 1758.5 c 128,-1,6
 -729 1816 -729 1816 -729 1896 c 128,-1,7
 -729 1976 -729 1976 -671 2033 c 128,-1,8
 -613 2090 -613 2090 -531 2090 c 8,9,-1
 -180 2090 l 2,10,11
 -98 2090 -98 2090 -40 2148 c 9,12,-1
 40 2069 l 17,13,14
 -52 1979 -52 1979 -180 1979 c 2,15,-1
 -352 1979 l 17,0,1
-616 1895.5 m 128,-1,17
 -616 1861 -616 1861 -591 1836.5 c 128,-1,18
 -566 1812 -566 1812 -530.5 1812 c 128,-1,19
 -495 1812 -495 1812 -470 1836.5 c 128,-1,20
 -445 1861 -445 1861 -445 1895.5 c 128,-1,21
 -445 1930 -445 1930 -470 1954.5 c 128,-1,22
 -495 1979 -495 1979 -530.5 1979 c 128,-1,23
 -566 1979 -566 1979 -591 1954.5 c 128,-1,16
 -616 1930 -616 1930 -616 1895.5 c 128,-1,17
EndSplineSet
Substitution2: "Single Substitution lookup 4" uni0E4C.low
MultipleSubs2: "Multiple Substitution lookup 5" uni0E4D uni0E4C
EndChar
StartChar: uni0E4D
Encoding: 3661 3661 196
Width: 0
VWidth: 2045
Flags: W
HStem: 1359 112<-438.5 -347.5> 1639 112<-438.5 -347.5>
VStem: -592 113<1508.5 1599.5> -308 113<1508.5 1599.5>
AnchorPoint: "AboveMark" -399.584 1814.81 basemark 0
AnchorPoint: "AboveBase" -277.712 1328.01 mark 0
Fore
-592 1555 m 132,-1,1
 -592 1636 -592 1636 -534 1693.5 c 132,-1,2
 -476 1751 -476 1751 -393.5 1751 c 132,-1,3
 -311 1751 -311 1751 -253 1693.5 c 132,-1,4
 -195 1636 -195 1636 -195 1555 c 132,-1,5
 -195 1474 -195 1474 -253 1416.5 c 132,-1,6
 -311 1359 -311 1359 -393.5 1359 c 132,-1,7
 -476 1359 -476 1359 -534 1416.5 c 132,-1,0
 -592 1474 -592 1474 -592 1555 c 132,-1,1
-479 1554 m 132,-1,9
 -479 1519 -479 1519 -453.5 1495 c 132,-1,10
 -428 1471 -428 1471 -393 1471 c 132,-1,11
 -358 1471 -358 1471 -333 1495 c 132,-1,12
 -308 1519 -308 1519 -308 1554 c 132,-1,13
 -308 1589 -308 1589 -333 1614 c 132,-1,14
 -358 1639 -358 1639 -393 1639 c 132,-1,15
 -428 1639 -428 1639 -453.5 1614 c 132,-1,8
 -479 1589 -479 1589 -479 1554 c 132,-1,9
EndSplineSet
Substitution2: "Single Substitution lookup 3" uni0E4D.high
EndChar
StartChar: uni0E4E
Encoding: 3662 3662 197
Width: 0
VWidth: 2045
Flags: W
HStem: 1276 112<-536.8 -477> 1612 112<-536.95 -459.084> 1849 112<-297.95 -177.05>
VStem: -703 113<1439.2 1558.8> -463 112.5<1722 1795.8>
AnchorPoint: "AboveBase" -139.855 1226.5 mark 0
Fore
-396 1578 m 1,0,1
 -430 1612 -430 1612 -476.5 1612 c 128,-1,2
 -523 1612 -523 1612 -556.5 1578.5 c 128,-1,3
 -590 1545 -590 1545 -590 1499 c 128,-1,4
 -590 1453 -590 1453 -556.5 1420.5 c 128,-1,5
 -523 1388 -523 1388 -477 1388 c 1,6,-1
 -477 1276 l 1,7,8
 -570 1276 -570 1276 -636.5 1341 c 128,-1,9
 -703 1406 -703 1406 -703 1499 c 128,-1,10
 -703 1592 -703 1592 -636.5 1657.5 c 128,-1,11
 -570 1723 -570 1723 -477 1724 c 0,12,13
 -470 1724 -470 1724 -463 1722 c 1,14,15
 -463 1729 -463 1729 -463 1737 c 0,16,17
 -463 1829 -463 1829 -397 1895 c 128,-1,18
 -331 1961 -331 1961 -237 1961 c 128,-1,19
 -143 1961 -143 1961 -77.5 1895 c 128,-1,20
 -12 1829 -12 1829 -12 1737 c 1,21,-1
 -125 1737 l 1,22,23
 -125 1782 -125 1782 -158 1815.5 c 128,-1,24
 -191 1849 -191 1849 -237.5 1849 c 128,-1,25
 -284 1849 -284 1849 -317.5 1815.5 c 128,-1,26
 -351 1782 -351 1782 -350.5 1736 c 128,-1,27
 -350 1690 -350 1690 -317 1658 c 1,28,-1
 -317 1578 l 1,29,-1
 -396 1578 l 1,0,1
EndSplineSet
EndChar
